<svg width="1920" height="998" viewBox="0 0 1920 998" fill="none" xmlns="http://www.w3.org/2000/svg">
<path d="M960 0.666656C1499.03 0.666656 1936 437.637 1936 976.667C1936 1515.7 1499.03 1952.67 960 1952.67C420.97 1952.67 -16 1515.7 -16 976.667C-16 437.637 420.97 0.666656 960 0.666656ZM960 1.99966C421.706 1.99966 -14.667 438.373 -14.667 976.667C-14.667 1514.96 421.706 1951.33 960 1951.33C1498.29 1951.33 1934.67 1514.96 1934.67 976.667C1934.67 438.373 1498.29 1.99966 960 1.99966ZM962.816 106.005C1442.38 107.523 1830.67 496.75 1830.67 976.667L1830.66 979.483C1829.14 1459.04 1439.92 1847.33 960 1847.33L957.184 1847.33C478.561 1845.81 90.8536 1458.11 89.3379 979.483L89.333 976.667C89.3332 495.811 479.144 106 960 106L962.816 106.005ZM960 107.333C479.881 107.333 90.6662 496.547 90.666 976.667C90.6662 1456.79 479.881 1846 960 1846C1440.12 1846 1829.33 1456.79 1829.33 976.667C1829.33 496.547 1440.12 107.333 960 107.333ZM960 212.667C1381.95 212.667 1724 554.721 1724 976.667C1724 1398.61 1381.95 1740.67 960 1740.67C538.054 1740.67 196 1398.61 196 976.667C196 554.721 538.054 212.667 960 212.667ZM960 214C538.791 214 197.333 555.457 197.333 976.667C197.333 1397.88 538.791 1739.33 960 1739.33C1381.21 1739.33 1722.67 1397.88 1722.67 976.667C1722.67 555.457 1381.21 214 960 214ZM960 319.334C1323.03 319.334 1617.33 613.632 1617.33 976.667L1617.32 980.918C1615.03 1342 1321.62 1634 960 1634L955.749 1633.99C594.67 1631.7 302.667 1338.28 302.667 976.667C302.667 613.632 596.965 319.334 960 319.334ZM960 320.667C597.701 320.667 304 614.368 304 976.667C304 1338.97 597.701 1632.67 960 1632.67C1322.3 1632.67 1616 1338.97 1616 976.667C1616 614.368 1322.3 320.667 960 320.667ZM963.561 426.011C1266.05 427.927 1510.67 673.73 1510.67 976.667L1510.66 980.227C1508.74 1282.71 1262.94 1527.33 960 1527.33L956.438 1527.32C655.139 1525.41 411.253 1281.53 409.345 980.227L409.333 976.667C409.333 672.542 655.875 426 960 426L963.561 426.011ZM960 427.333C656.612 427.333 410.666 673.278 410.666 976.667C410.666 1280.05 656.612 1526 960 1526C1263.39 1526 1509.33 1280.05 1509.33 976.667C1509.33 673.278 1263.39 427.333 960 427.333ZM960 539.334C1201.53 539.334 1397.33 735.134 1397.33 976.667L1397.33 979.496C1395.8 1219.73 1200.59 1414 960 1414L957.172 1413.99C716.941 1412.47 522.667 1217.26 522.667 976.667C522.667 735.134 718.468 539.334 960 539.334ZM960 540.667C719.204 540.667 524 735.871 524 976.667C524 1217.46 719.204 1412.67 960 1412.67C1200.8 1412.67 1396 1217.46 1396 976.667C1396 735.871 1200.8 540.667 960 540.667Z" fill="url(#paint0_radial_8018_8531)" style=""/>
<path d="M960 0.666656C1499.03 0.666656 1936 437.637 1936 976.667C1936 1515.7 1499.03 1952.67 960 1952.67C420.97 1952.67 -16 1515.7 -16 976.667C-16 437.637 420.97 0.666656 960 0.666656ZM960 1.99966C421.706 1.99966 -14.667 438.373 -14.667 976.667C-14.667 1514.96 421.706 1951.33 960 1951.33C1498.29 1951.33 1934.67 1514.96 1934.67 976.667C1934.67 438.373 1498.29 1.99966 960 1.99966ZM962.816 106.005C1442.38 107.523 1830.67 496.75 1830.67 976.667L1830.66 979.483C1829.14 1459.04 1439.92 1847.33 960 1847.33L957.184 1847.33C478.561 1845.81 90.8536 1458.11 89.3379 979.483L89.333 976.667C89.3332 495.811 479.144 106 960 106L962.816 106.005ZM960 107.333C479.881 107.333 90.6662 496.547 90.666 976.667C90.6662 1456.79 479.881 1846 960 1846C1440.12 1846 1829.33 1456.79 1829.33 976.667C1829.33 496.547 1440.12 107.333 960 107.333ZM960 212.667C1381.95 212.667 1724 554.721 1724 976.667C1724 1398.61 1381.95 1740.67 960 1740.67C538.054 1740.67 196 1398.61 196 976.667C196 554.721 538.054 212.667 960 212.667ZM960 214C538.791 214 197.333 555.457 197.333 976.667C197.333 1397.88 538.791 1739.33 960 1739.33C1381.21 1739.33 1722.67 1397.88 1722.67 976.667C1722.67 555.457 1381.21 214 960 214ZM960 319.334C1323.03 319.334 1617.33 613.632 1617.33 976.667L1617.32 980.918C1615.03 1342 1321.62 1634 960 1634L955.749 1633.99C594.67 1631.7 302.667 1338.28 302.667 976.667C302.667 613.632 596.965 319.334 960 319.334ZM960 320.667C597.701 320.667 304 614.368 304 976.667C304 1338.97 597.701 1632.67 960 1632.67C1322.3 1632.67 1616 1338.97 1616 976.667C1616 614.368 1322.3 320.667 960 320.667ZM963.561 426.011C1266.05 427.927 1510.67 673.73 1510.67 976.667L1510.66 980.227C1508.74 1282.71 1262.94 1527.33 960 1527.33L956.438 1527.32C655.139 1525.41 411.253 1281.53 409.345 980.227L409.333 976.667C409.333 672.542 655.875 426 960 426L963.561 426.011ZM960 427.333C656.612 427.333 410.666 673.278 410.666 976.667C410.666 1280.05 656.612 1526 960 1526C1263.39 1526 1509.33 1280.05 1509.33 976.667C1509.33 673.278 1263.39 427.333 960 427.333ZM960 539.334C1201.53 539.334 1397.33 735.134 1397.33 976.667L1397.33 979.496C1395.8 1219.73 1200.59 1414 960 1414L957.172 1413.99C716.941 1412.47 522.667 1217.26 522.667 976.667C522.667 735.134 718.468 539.334 960 539.334ZM960 540.667C719.204 540.667 524 735.871 524 976.667C524 1217.46 719.204 1412.67 960 1412.67C1200.8 1412.67 1396 1217.46 1396 976.667C1396 735.871 1200.8 540.667 960 540.667Z" fill="url(#paint1_linear_8018_8531)" style=""/>
<path d="M1510.67 580.667L1511.8 619.535L1550.67 620.667L1511.8 621.798L1510.67 660.667L1509.54 621.798L1470.67 620.667L1509.54 619.535L1510.67 580.667Z" fill="#111111" style="fill:#111111;fill:color(display-p3 0.0667 0.0667 0.0667);fill-opacity:1;"/>
<path d="M433.333 788.667L433.974 810.692L456 811.333L433.974 811.974L433.333 834L432.692 811.974L410.667 811.333L432.692 810.692L433.333 788.667Z" fill="#111111" style="fill:#111111;fill:color(display-p3 0.0667 0.0667 0.0667);fill-opacity:1;"/>
<path d="M441.333 388.667L442.465 427.535L481.333 428.667L442.465 429.798L441.333 468.667L440.202 429.798L401.333 428.667L440.202 427.535L441.333 388.667Z" fill="#111111" style="fill:#111111;fill:color(display-p3 0.0667 0.0667 0.0667);fill-opacity:1;"/>
<path d="M1216 351.333L1216.64 373.359L1238.67 374L1216.64 374.641L1216 396.667L1215.36 374.641L1193.33 374L1215.36 373.359L1216 351.333Z" fill="#111111" style="fill:#111111;fill:color(display-p3 0.0667 0.0667 0.0667);fill-opacity:1;"/>
<defs>
<radialGradient id="paint0_radial_8018_8531" cx="0" cy="0" r="1" gradientUnits="userSpaceOnUse" gradientTransform="translate(960 976.667) rotate(90) scale(960)">
<stop stop-color="#111111" style="stop-color:#111111;stop-color:color(display-p3 0.0667 0.0667 0.0667);stop-opacity:1;"/>
<stop offset="1" stop-color="#111111" stop-opacity="0.04" style="stop-color:#111111;stop-color:color(display-p3 0.0667 0.0667 0.0667);stop-opacity:0.04;"/>
</radialGradient>
<linearGradient id="paint1_linear_8018_8531" x1="960" y1="1936.67" x2="960" y2="16.6666" gradientUnits="userSpaceOnUse">
<stop stop-color="#111111" stop-opacity="0" style="stop-color:none;stop-opacity:0;"/>
<stop offset="0.504808" stop-color="#FFFCFA" stop-opacity="0" style="stop-color:none;stop-opacity:0;"/>
<stop offset="1" stop-color="#FFFCFA" style="stop-color:#FFFCFA;stop-color:color(display-p3 1.0000 0.9882 0.9804);stop-opacity:1;"/>
</linearGradient>
</defs>
</svg>
