<svg width="36" height="36" viewBox="0 0 36 36" fill="none" xmlns="http://www.w3.org/2000/svg">
<g clip-path="url(#clip0_6164_519)">
<path d="M15.4513 35.156C12.438 34.5329 9.62635 33.1433 7.41904 31.1861C1.75217 26.1613 0.000867248 18.2675 2.99448 11.2441C3.72968 9.51918 4.92482 7.76862 6.40568 6.24784L7.71127 4.90719L7.80336 12.7542C7.89151 20.2655 7.9114 20.6437 8.26708 21.5902C8.97913 23.4839 9.74228 24.6893 11.0563 25.9957C14.4503 29.3705 19.4288 30.2129 23.6611 28.1283C27.639 26.169 30.1467 21.9085 29.8554 17.6051C29.6595 14.7143 28.6858 12.5948 26.5837 10.4828C24.994 8.88583 23.1238 7.84259 21.0879 7.41728C19.0162 6.9846 19.1157 6.92142 19.1157 8.67198V10.1833L20.2513 10.3922C24.6496 11.2014 27.5585 15.5134 26.6417 19.8653C26.349 21.2551 25.6957 22.4826 24.6474 23.6132C23.0542 25.3312 20.8126 26.1524 18.8553 26.1488C15.6189 26.1424 12.9165 24.3065 11.6068 21.5911C11.6068 21.5911 11.2638 20.8151 11.1533 20.3353C10.5049 17.515 10.9196 11.5779 10.9196 11.5779L10.8693 2.89672L11.3826 2.63167C11.6649 2.48596 11.9357 2.36662 11.9844 2.36662C12.0329 2.36662 12.0947 6.354 12.1216 11.2273C12.1216 11.2273 11.4982 17.6155 12.2684 20.0636C12.3795 20.4168 12.5906 21.0211 12.5906 21.0211C13.2658 22.3946 14.3481 23.6027 15.7544 24.2678C16.8218 24.7725 17.3592 25.0011 18.9383 25.0011C19.9702 25.0011 20.8843 24.6758 21.9361 24.1929C23.176 23.6236 24.5982 22.1141 25.1238 20.736C26.5719 16.9388 24.5555 12.8535 20.671 11.7144C19.0834 11.2488 19.1158 11.2233 19.1158 12.9468V14.4522L19.8778 14.6558C22.6248 15.3893 23.4629 19.0652 21.3065 20.954C20.5446 21.6214 19.8581 21.9162 18.6573 21.9162C17.374 21.9162 16.1423 21.1408 15.509 19.9515C15.1286 19.237 15.0965 18.5594 15.0965 18.2488C15.0965 15.3819 15.0343 10.2255 15.0343 10.2255L14.9828 1.38073L15.3773 1.28297C15.594 1.22886 16.4709 1.09582 17.3253 0.986927C20.2235 0.617776 24.5112 1.56462 27.3918 3.21022C31.3191 5.45355 34.2906 9.30738 35.5279 13.7618C35.9535 15.2941 36.0009 15.7394 36.0009 18.2043C36.0009 20.6581 35.9523 21.1185 35.5358 22.617C33.8531 28.6712 29.5724 32.999 23.4517 34.8344C22.1635 35.2209 21.5602 35.2945 19.2872 35.343C17.4529 35.382 16.2639 35.3241 15.4513 35.156Z" fill="#FFFCFA" style="fill:#FFFCFA;fill:color(display-p3 1.0000 0.9882 0.9804);fill-opacity:1;"/>
</g>
<defs>
<clipPath id="clip0_6164_519">
<rect width="36" height="36" fill="white" style="fill:white;fill-opacity:1;"/>
</clipPath>
</defs>
</svg>
