<svg width="329" height="345" viewBox="0 0 329 345" fill="none" xmlns="http://www.w3.org/2000/svg">
<path d="M0 0H145.597V171.406H68.5161C62.3306 245.803 85.1693 281.3 137.032 277.896L145.597 341.353C138.935 342.326 132.988 343.298 127.754 344.271C122.996 344.757 119.189 345 116.335 345C77.7944 345 48.7702 331.628 29.2621 304.884C9.75403 278.14 0 241.184 0 194.017V0ZM183.403 3.05176e-05H329V171.406H253.347C252.871 174.81 252.395 178.7 251.919 183.076C251.919 186.966 251.919 191.586 251.919 196.935C251.919 254.313 274.996 281.3 321.149 277.896L329 341.353C322.339 342.326 316.391 343.298 311.157 344.271C306.399 344.757 302.355 345 299.024 345C261.436 345 232.649 331.628 212.665 304.884C193.157 278.14 183.403 241.184 183.403 194.017V3.05176e-05Z" fill="#FF6600" style="fill:#FF6600;fill:color(display-p3 1.0000 0.3999 0.0000);fill-opacity:1;"/>
</svg>
