<svg width="90" height="32" viewBox="0 0 90 32" fill="none" xmlns="http://www.w3.org/2000/svg">
<path fill-rule="evenodd" clip-rule="evenodd" d="M16 0C24.8366 0 32 7.16344 32 16C32 22.8746 27.6641 28.7358 21.5781 31H38.6836C37.0664 29.9252 36 28.0874 36 26C36 22.6863 38.6863 20 42 20C45.3137 20 48 22.6863 48 26C48 28.2313 46.781 30.1762 44.9736 31.21C51.3749 29.1181 56 23.1 56 16C56 7.16344 48.8366 0 40 0H56C64.8366 0 72 7.16344 72 16C72 17.6344 71.7532 19.2111 71.2979 20.6963L81 0H90L75 32H66L69.4033 24.7393C66.5472 29.1107 61.6114 32 56 32H0C0 28 2.34341 22.4585 5 16C2.34341 9.80898 0 4 0 0H16ZM16 4C22.6274 4 28 9.37258 28 16V11.5303C27.9999 9.58707 26.8907 7.85747 25.5166 6.4834C24.1425 5.10933 22.4129 4.00014 20.4697 4H16Z" fill="#111111" style="fill:#111111;fill:color(display-p3 0.0667 0.0667 0.0667);fill-opacity:1;"/>
</svg>
