<svg width="39" height="35" viewBox="0 0 39 35" fill="none" xmlns="http://www.w3.org/2000/svg">
<path d="M33.0301 32.3846L38.8725 3.24743C39.5986 -0.3735 37.0464 0.0413975 35.6796 0.701462L1.4404 14.5628C-1.1683 15.9207 0.35344 16.9202 1.4404 17.2502L9.20332 19.965C9.79123 20.1706 10.4414 20.0906 10.9619 19.7486L30.5845 6.85421C32.5672 5.68985 32.287 6.49762 31.8347 7.14707C31.773 7.23579 31.7001 7.31604 31.6219 7.39069L17.06 21.2918C16.1711 22.1404 16.2506 23.5824 17.2274 24.3281L29.4522 33.6606C29.5726 33.7526 29.703 33.8322 29.8434 33.8893C32.1788 34.8395 32.9421 33.3006 33.0301 32.3846Z" fill="#F8F8FF"/>
</svg>
