<svg width="136" height="66" viewBox="0 0 136 66" fill="none" xmlns="http://www.w3.org/2000/svg">
<path d="M11.7704 10.9702C11.7704 11.4162 11.6812 11.8621 11.5029 12.2189C11.3245 12.5756 11.1461 12.8432 10.7894 13.1108C10.5219 13.3783 10.1652 13.5567 9.80844 13.6459C9.45172 13.7351 9.095 13.8243 8.73828 13.9135V14.8054H6.95467V13.9135C6.41959 13.8243 5.97369 13.7351 5.61696 13.5567C5.26024 13.3783 4.90352 13.2 4.72516 12.8432C4.45762 12.5756 4.27926 12.2189 4.19008 11.8621C4.1009 11.5054 4.01172 11.0594 4.01172 10.6135V6.86754C4.01172 6.42159 4.1009 5.97565 4.27926 5.61889C4.45762 5.26213 4.63598 4.99457 4.9927 4.727C5.26024 4.45943 5.61696 4.28105 5.97369 4.19186C6.33041 4.10267 6.68713 4.01348 7.04385 4.01348V3.38916H8.82746V4.01348C9.18418 4.01348 9.5409 4.10267 9.89762 4.19186C10.2543 4.37024 10.5219 4.54862 10.8786 4.727C11.1461 4.99457 11.4137 5.26213 11.5029 5.61889C11.6812 5.97565 11.7704 6.42159 11.7704 6.86754V10.9702ZM7.04385 5.35132C6.68713 5.44051 6.33041 5.61889 6.06287 5.79727C5.88451 5.97565 5.79533 6.3324 5.79533 6.77835V11.1486C5.79533 11.327 5.79533 11.5054 5.88451 11.6838C5.97369 11.8621 6.06287 11.9513 6.15205 12.0405C6.24123 12.1297 6.41959 12.2189 6.59795 12.3081C6.77631 12.3973 6.95467 12.3973 7.04385 12.3973V5.35132ZM10.1652 6.77835C10.1652 6.3324 10.076 6.06484 9.80844 5.79727C9.5409 5.5297 9.27336 5.44051 8.91664 5.44051V12.4865C9.095 12.4865 9.18418 12.3973 9.36254 12.3973C9.5409 12.3081 9.63008 12.2189 9.80844 12.1297C9.89762 12.0405 10.076 11.8621 10.076 11.7729C10.1652 11.5946 10.1652 11.4162 10.1652 11.2378V6.77835Z" fill="#1B3968" style="fill:#1B3968;fill:color(display-p3 0.1059 0.2235 0.4078);fill-opacity:1;"/>
<path d="M20.6887 11.862C20.6887 12.843 20.4211 13.5566 19.9752 14.0917C19.5293 14.6268 18.8159 14.8052 17.8349 14.8052C16.8539 14.8052 16.1405 14.5376 15.6946 14.0917C15.2487 13.6458 15.0703 12.9322 15.0703 11.9512V6.33224C15.0703 5.88629 15.1595 5.44034 15.2487 5.08359C15.3379 4.72683 15.5162 4.37007 15.6946 4.10251C15.9621 3.83494 16.2297 3.65656 16.5864 3.47818C16.9431 3.38899 17.2998 3.2998 17.8349 3.2998C18.37 3.2998 18.8159 3.38899 19.1726 3.47818C19.5293 3.65656 19.7969 3.83494 20.0644 4.10251C20.2428 4.37007 20.4211 4.72683 20.5103 5.08359C20.5995 5.44034 20.6887 5.88629 20.6887 6.33224V11.862ZM18.8159 6.15386C18.8159 5.7971 18.7267 5.52953 18.6375 5.26197C18.4592 4.9944 18.2808 4.90521 17.8349 4.90521C17.6565 4.90521 17.4782 4.90521 17.2998 5.08359C17.2106 5.17278 17.0323 5.26197 16.9431 5.44035C16.8539 5.61872 16.8539 5.70791 16.7647 5.88629C16.7647 6.06467 16.7647 6.24305 16.7647 6.33224V12.0403C16.7647 12.3079 16.8539 12.5755 17.0323 12.843C17.2106 13.1106 17.4782 13.1998 17.8349 13.1998C18.1916 13.1998 18.4592 13.1106 18.6375 12.843C18.8159 12.5755 18.9051 12.3079 18.9051 11.9512L18.8159 6.15386Z" fill="#1B3968" style="fill:#1B3968;fill:color(display-p3 0.1059 0.2235 0.4078);fill-opacity:1;"/>
<path d="M27.9129 14.8054V9.81078H25.8617V14.8054H24.0781V3.38916H25.8617V8.11619H27.9129V3.38916H29.6965V14.8054H27.9129Z" fill="#1B3968" style="fill:#1B3968;fill:color(display-p3 0.1059 0.2235 0.4078);fill-opacity:1;"/>
<path d="M33.8872 14.8054V16.9459H32.3711V13.2892L33.0845 13.1108C33.4413 12.754 33.6196 12.3973 33.7088 11.9513C33.798 11.5054 33.8872 10.9702 33.8872 10.2567L34.0655 3.38916H39.238V13.1108H39.9514V16.9459H38.4354V14.8054H33.8872ZM35.5816 10.2567C35.5816 10.8811 35.4924 11.5054 35.4924 11.9513C35.4032 12.3973 35.314 12.8432 35.1357 13.1108H37.6327V5.08375H35.6708L35.5816 10.2567Z" fill="#1B3968" style="fill:#1B3968;fill:color(display-p3 0.1059 0.2235 0.4078);fill-opacity:1;"/>
<path d="M50.8322 3.2998C51.2782 3.2998 51.7241 3.38899 52.0808 3.47818C52.4375 3.56737 52.705 3.83494 52.9726 4.01332C53.2401 4.28089 53.3293 4.54845 53.5077 4.81602C53.5077 5.17278 53.5077 5.52953 53.5077 5.88629L51.7241 6.33224C51.7241 5.88629 51.6349 5.61872 51.4565 5.35116C51.2782 5.08359 51.0106 4.9944 50.6539 4.9944C50.4755 4.9944 50.2972 4.9944 50.1188 5.08359C50.0296 5.17278 49.8513 5.26197 49.8513 5.44035C49.7621 5.61872 49.7621 5.70791 49.6729 5.88629C49.6729 6.06467 49.6729 6.24305 49.6729 6.33224V12.1295C49.6729 12.2187 49.6729 12.3971 49.6729 12.4863C49.6729 12.6647 49.7621 12.7539 49.8513 12.843C49.9404 12.9322 50.0296 13.0214 50.1188 13.1106C50.208 13.1998 50.3863 13.1998 50.5647 13.1998C51.189 13.1998 51.5457 12.7539 51.5457 11.7728C51.8132 11.862 52.17 11.862 52.4375 11.9512C52.705 12.0403 53.0618 12.0403 53.3293 12.0403C53.3293 12.9322 53.0618 13.5566 52.6159 14.0917C52.17 14.6268 51.4565 14.8052 50.5647 14.8052C49.5837 14.8052 48.8703 14.5376 48.4244 14.0917C47.9785 13.6458 47.7109 12.9322 47.7109 12.0403V6.42143C47.7109 5.97548 47.7109 5.61872 47.8893 5.17278C47.9785 4.81602 48.1568 4.45926 48.3352 4.1917C48.6027 3.92413 48.8703 3.65656 49.227 3.56737C49.8513 3.38899 50.2972 3.2998 50.8322 3.2998Z" fill="#1B3968" style="fill:#1B3968;fill:color(display-p3 0.1059 0.2235 0.4078);fill-opacity:1;"/>
<path d="M62.0676 11.8623C62.0676 12.8434 61.8 13.5569 61.3541 14.092C60.9082 14.6272 60.1948 14.8055 59.2138 14.8055C58.2328 14.8055 57.5194 14.538 57.0735 14.092C56.6276 13.6461 56.4492 12.9326 56.4492 11.9515V6.33256C56.4492 5.88661 56.5384 5.44067 56.6276 5.08391C56.7168 4.72715 56.8951 4.3704 57.0735 4.10283C57.2518 3.83526 57.6086 3.65688 57.9653 3.47851C58.322 3.30013 58.7679 3.21094 59.2138 3.21094C59.7489 3.21094 60.1948 3.30013 60.5515 3.38932C60.9082 3.56769 61.1758 3.74607 61.4433 4.01364C61.6217 4.28121 61.8 4.63796 61.8892 4.99472C61.9784 5.35148 62.0676 5.79742 62.0676 6.24337V11.8623ZM60.284 6.15418C60.284 5.79742 60.1948 5.52986 60.1056 5.26229C59.9273 4.99472 59.7489 4.90553 59.303 4.90553C59.1246 4.90553 58.9463 4.90553 58.7679 5.08391C58.6787 5.1731 58.5004 5.26229 58.4112 5.44067C58.322 5.61905 58.322 5.70823 58.2328 5.88661C58.2328 6.06499 58.2328 6.24337 58.2328 6.33256V12.0407C58.2328 12.3082 58.322 12.5758 58.5004 12.8434C58.6787 13.1109 58.9463 13.2001 59.303 13.2001C59.6597 13.2001 59.9273 13.1109 60.1056 12.8434C60.284 12.5758 60.3732 12.3082 60.3732 11.9515L60.284 6.15418Z" fill="#1B3968" style="fill:#1B3968;fill:color(display-p3 0.1059 0.2235 0.4078);fill-opacity:1;"/>
<path d="M66.2622 14.8054V16.9459H64.7461V13.2892L65.4595 13.1108C65.8163 12.754 65.9946 12.3973 66.0838 11.9513C66.173 11.5054 66.2622 10.9702 66.2622 10.2567L66.4405 3.38916H71.613V13.1108H72.3264V16.9459H70.8104V14.8054H66.2622ZM67.8674 10.2567C67.8674 10.8811 67.7782 11.5054 67.7782 11.9513C67.689 12.3973 67.5999 12.8432 67.4215 13.1108H69.9186V5.08375H68.0458L67.8674 10.2567Z" fill="#1B3968" style="fill:#1B3968;fill:color(display-p3 0.1059 0.2235 0.4078);fill-opacity:1;"/>
<path d="M75.2695 14.8054V3.38916H80.442V4.99457H77.0531V8.11619H79.9961V9.81078H77.0531V13.1108H80.442V14.8054H75.2695Z" fill="#1B3968" style="fill:#1B3968;fill:color(display-p3 0.1059 0.2235 0.4078);fill-opacity:1;"/>
<path d="M87.3953 7.6703L84.9874 14.8054H83.293V3.38922H85.0766V10.6135H85.1658L87.5736 3.38922H89.3572V14.7162H87.5736L87.3953 7.6703ZM85.2549 0.802734C85.2549 0.891924 85.2549 1.0703 85.3441 1.15949C85.4333 1.24868 85.5225 1.42706 85.6117 1.51625C85.7008 1.60544 85.79 1.69463 85.9684 1.78382C86.0576 1.873 86.2359 1.873 86.4143 1.873C86.5926 1.873 86.771 1.873 86.8602 1.78382C86.9494 1.69463 87.1277 1.60544 87.2169 1.51625C87.3061 1.42706 87.3953 1.33787 87.3953 1.15949C87.3953 0.981113 87.3953 0.891924 87.3953 0.802734H88.733C88.733 0.981113 88.6438 1.24868 88.5546 1.51625C88.4654 1.78382 88.2871 2.05138 88.1087 2.31895C87.9303 2.49733 87.6628 2.67571 87.3953 2.85409C87.1277 3.03246 86.771 3.03246 86.4143 3.03246C85.9684 3.03246 85.6117 2.94328 85.3441 2.85409C84.9874 2.67571 84.7199 2.49733 84.5415 2.31895C84.3631 2.14057 84.1848 1.873 84.0956 1.60544C84.0064 1.33787 83.9172 1.0703 83.9172 0.891924L85.2549 0.802734Z" fill="#1B3968" style="fill:#1B3968;fill:color(display-p3 0.1059 0.2235 0.4078);fill-opacity:1;"/>
<path d="M95.3338 3.2998C95.7797 3.2998 96.2256 3.38899 96.5823 3.47818C96.939 3.56737 97.2066 3.83494 97.4741 4.01332C97.7416 4.28089 97.8308 4.54845 98.0092 4.81602C98.0984 5.17278 98.1875 5.44035 98.1875 5.88629L96.4039 6.33224C96.4039 5.88629 96.3147 5.61872 96.1364 5.35116C95.958 5.08359 95.6905 4.9944 95.3338 4.9944C95.1554 4.9944 94.977 4.9944 94.7987 5.08359C94.7095 5.17278 94.5311 5.26197 94.5311 5.44035C94.442 5.61872 94.442 5.70791 94.3528 5.88629C94.3528 6.06467 94.3528 6.24305 94.3528 6.33224V12.1295C94.3528 12.2187 94.3528 12.3971 94.3528 12.4863C94.3528 12.6647 94.442 12.7539 94.5311 12.843C94.6203 12.9322 94.7095 13.0214 94.7987 13.1106C94.8879 13.1998 95.0662 13.1998 95.2446 13.1998C95.8688 13.1998 96.2256 12.7539 96.2256 11.7728C96.4931 11.862 96.8498 11.862 97.1174 11.9512C97.3849 12.0403 97.7416 12.0403 98.0092 12.0403C98.0092 12.9322 97.7416 13.5566 97.2957 14.0917C96.8498 14.6268 96.1364 14.8052 95.2446 14.8052C94.2636 14.8052 93.6393 14.5376 93.1043 14.0917C92.5692 13.6458 92.3908 12.9322 92.3908 12.0403V6.42143C92.3908 5.97548 92.3908 5.61872 92.5692 5.17278C92.6584 4.81602 92.8367 4.45926 93.0151 4.1917C93.2826 3.92413 93.5502 3.65656 93.9069 3.56737C94.3528 3.38899 94.7987 3.2998 95.3338 3.2998Z" fill="#1B3968" style="fill:#1B3968;fill:color(display-p3 0.1059 0.2235 0.4078);fill-opacity:1;"/>
<path d="M103.985 4.99457V14.8054H102.201V4.99457H100.328V3.38916H105.857V4.99457H103.985Z" fill="#1B3968" style="fill:#1B3968;fill:color(display-p3 0.1059 0.2235 0.4078);fill-opacity:1;"/>
<path d="M112.722 8.8297C113.257 9.00808 113.614 9.27565 113.792 9.72159C113.971 10.1675 114.06 10.7027 114.06 11.327C114.06 12.4865 113.792 13.3783 113.257 13.9135C112.722 14.4486 111.919 14.7162 110.849 14.7162H108.441V3.38916H110.938C111.919 3.38916 112.722 3.65673 113.168 4.19186C113.614 4.727 113.881 5.5297 113.881 6.51078C113.881 7.04592 113.792 7.49186 113.614 7.84862C113.525 8.20538 113.168 8.56213 112.722 8.8297ZM112.276 6.51078C112.276 5.97565 112.187 5.61889 111.919 5.35132C111.741 5.08375 111.384 4.99457 110.849 4.99457H110.314V7.93781H110.938C111.384 7.93781 111.741 7.84862 111.919 7.58105C112.098 7.31348 112.276 6.95673 112.276 6.51078ZM112.365 11.1486C112.365 10.6135 112.276 10.2567 112.098 9.98916C111.919 9.72159 111.563 9.6324 111.028 9.6324H110.314V13.2H111.028C111.295 13.2 111.563 13.1108 111.741 13.0216C111.919 12.9324 112.009 12.754 112.098 12.5756C112.187 12.3973 112.276 12.2189 112.276 11.9513C112.365 11.6838 112.365 11.4162 112.365 11.1486Z" fill="#1B3968" style="fill:#1B3968;fill:color(display-p3 0.1059 0.2235 0.4078);fill-opacity:1;"/>
<path d="M121.462 7.67024L119.054 14.8054H117.359V3.38916H119.054V10.6135H119.143L121.551 3.38916H123.334V14.8054H121.551V7.67024H121.462Z" fill="#1B3968" style="fill:#1B3968;fill:color(display-p3 0.1059 0.2235 0.4078);fill-opacity:1;"/>
<path d="M126.281 14.8054L126.906 11.2378C126.995 10.8811 127.084 10.5243 127.262 10.1675C127.441 9.81078 127.619 9.6324 127.976 9.45402C127.441 9.27565 127.084 8.91889 126.906 8.47294C126.727 8.027 126.638 7.49186 126.638 6.86754C126.638 5.70808 126.906 4.90538 127.441 4.28105C127.976 3.74592 128.778 3.38916 129.67 3.38916H132.346V14.7162H130.562V9.89997H130.116C129.759 9.89997 129.492 9.98916 129.224 10.2567C128.957 10.5243 128.778 10.8811 128.689 11.5946L128.154 14.8054H126.281ZM129.848 4.99457C129.313 4.99457 128.957 5.17294 128.689 5.44051C128.422 5.70808 128.332 6.15402 128.332 6.68916C128.332 7.2243 128.511 7.67024 128.778 7.84862C129.046 8.027 129.403 8.20538 129.848 8.20538H130.562V4.99457H129.848Z" fill="#1B3968" style="fill:#1B3968;fill:color(display-p3 0.1059 0.2235 0.4078);fill-opacity:1;"/>
<path d="M9.45437 24.2592L6.42224 33.089H4.37109V18.9971H6.51142V27.916H6.6006L9.54355 18.9971H11.6839V33.089H9.54355V24.2592H9.45437Z" fill="#1B3968" style="fill:#1B3968;fill:color(display-p3 0.1059 0.2235 0.4078);fill-opacity:1;"/>
<path d="M22.5626 33.089V26.9349H20.0656V33.089H17.8361V18.9971H20.0656V24.8836H22.5626V18.9971H24.7921V33.089H22.5626Z" fill="#1B3968" style="fill:#1B3968;fill:color(display-p3 0.1059 0.2235 0.4078);fill-opacity:1;"/>
<path d="M35.7617 33.089V26.9349H33.1755V33.089H31.0352V18.9971H33.1755V24.8836H35.7617V18.9971H37.9912V33.089H35.7617Z" fill="#1B3968" style="fill:#1B3968;fill:color(display-p3 0.1059 0.2235 0.4078);fill-opacity:1;"/>
<path d="M51.0114 29.4325C51.0114 30.6812 50.7439 31.5731 50.2088 32.1974C49.6737 32.8217 48.7819 33.1785 47.5334 33.1785C46.2849 33.1785 45.4822 32.9109 44.9472 32.2866C44.4121 31.6623 44.1445 30.8596 44.1445 29.7001V22.565C44.1445 22.0298 44.2337 21.4947 44.3229 21.0487C44.4121 20.6028 44.6796 20.1569 44.9472 19.8893C45.2147 19.5325 45.5714 19.265 46.0173 19.1758C46.4632 18.9974 46.9983 18.9082 47.6226 18.9082C48.2468 18.9082 48.8711 18.9974 49.2278 19.1758C49.6737 19.3541 50.0304 19.6217 50.298 19.8893C50.5655 20.246 50.7439 20.6028 50.9222 21.0487C51.0114 21.4947 51.1006 22.0298 51.1006 22.6541L51.0114 29.4325ZM48.7819 22.3866C48.7819 22.0298 48.6927 21.6731 48.5144 21.3163C48.336 20.9596 47.9793 20.8704 47.5334 20.8704C47.2658 20.8704 47.0875 20.9596 46.9091 21.0487C46.7308 21.1379 46.6416 21.3163 46.5524 21.4947C46.4632 21.6731 46.374 21.8514 46.374 22.0298C46.374 22.2082 46.2849 22.3866 46.2849 22.6541V29.7893C46.2849 30.146 46.374 30.5028 46.5524 30.7704C46.7308 31.0379 47.0875 31.2163 47.5334 31.2163C47.9793 31.2163 48.336 31.0379 48.5144 30.7704C48.6927 30.4136 48.7819 30.0569 48.7819 29.7001V22.3866Z" fill="#1B3968" style="fill:#1B3968;fill:color(display-p3 0.1059 0.2235 0.4078);fill-opacity:1;"/>
<path d="M62.2467 25.6866C62.8709 25.865 63.3168 26.3109 63.5844 26.846C63.8519 27.3812 63.9411 28.0947 63.9411 28.8082C63.9411 30.3244 63.5844 31.3947 62.9601 32.019C62.3359 32.7325 61.3549 33.0893 60.0172 33.0893H57.0742V18.9082H60.1955C61.4441 18.9082 62.3359 19.265 62.9601 19.8893C63.5844 20.5136 63.8519 21.4947 63.8519 22.7433C63.8519 23.3677 63.7627 23.992 63.4952 24.4379C63.2277 24.8839 62.8709 25.3298 62.3359 25.5082L62.2467 25.6866ZM61.6224 22.8325C61.6224 22.2082 61.5332 21.6731 61.2657 21.4055C60.9982 21.1379 60.5522 20.9596 59.928 20.9596H59.2145V24.6163H59.928C60.5522 24.6163 60.909 24.4379 61.1765 24.1704C61.5332 23.8136 61.6224 23.3677 61.6224 22.8325ZM61.8008 28.6298C61.8008 28.0055 61.7116 27.4704 61.4441 27.1136C61.1765 26.7569 60.7306 26.6677 60.1064 26.6677H59.3037V31.0379H60.1955C60.5523 31.0379 60.8198 30.9487 61.0873 30.8596C61.2657 30.7704 61.4441 30.5028 61.6224 30.3244C61.7116 30.146 61.8008 29.8785 61.89 29.6109C61.8008 29.2541 61.8008 28.8974 61.8008 28.6298Z" fill="#1B3968" style="fill:#1B3968;fill:color(display-p3 0.1059 0.2235 0.4078);fill-opacity:1;"/>
<path d="M75.089 33.089L74.5539 30.1457H71.9677C71.8785 30.5917 71.7894 31.1268 71.7002 31.5727C71.611 32.1079 71.5218 32.5538 71.4326 33.089H69.2031C69.649 30.6809 70.1841 28.3619 70.63 26.043C71.0759 23.7241 71.611 21.316 72.0569 18.9971H74.5539L77.4969 33.089H75.089ZM73.1271 22.2079C72.9487 23.189 72.8595 24.17 72.6812 25.1511C72.5028 26.1322 72.3244 27.1133 72.1461 28.0944H74.108L73.1271 22.2079Z" fill="#1B3968" style="fill:#1B3968;fill:color(display-p3 0.1059 0.2235 0.4078);fill-opacity:1;"/>
<path d="M89.6279 18.9971V31.0376H90.5197V35.7646H88.647V33.089H82.6719V18.9971H84.9014V31.0376H87.3984V18.9971H89.6279Z" fill="#1B3968" style="fill:#1B3968;fill:color(display-p3 0.1059 0.2235 0.4078);fill-opacity:1;"/>
<path d="M100.954 24.2592L98.0108 33.089H95.7812V18.9971H98.0108V27.916H98.0999L101.043 18.9971H103.183V33.089H101.043V24.2592H100.954Z" fill="#1B3968" style="fill:#1B3968;fill:color(display-p3 0.1059 0.2235 0.4078);fill-opacity:1;"/>
<path d="M108.801 33.0893L109.603 28.6298C109.693 28.1839 109.871 27.7379 110.049 27.292C110.228 26.9352 110.584 26.5785 110.941 26.4001C110.317 26.1325 109.871 25.6866 109.603 25.1514C109.336 24.6163 109.247 23.9028 109.247 23.1893C109.247 21.7623 109.603 20.7812 110.228 19.9785C110.941 19.265 111.833 18.9082 112.992 18.9082H116.292V33.0001H114.062V26.9352H113.438C113.081 26.9352 112.725 27.1136 112.368 27.3812C112.011 27.6487 111.833 28.1839 111.655 28.9866L110.941 33.0001L108.801 33.0893ZM113.171 21.0487C112.546 21.0487 112.011 21.2271 111.744 21.6731C111.476 22.0298 111.387 22.565 111.387 23.2785C111.387 23.992 111.565 24.4379 111.922 24.7055C112.279 24.9731 112.725 25.0623 113.26 25.0623H114.152V21.0487C114.062 21.0487 113.171 21.0487 113.171 21.0487Z" fill="#1B3968" style="fill:#1B3968;fill:color(display-p3 0.1059 0.2235 0.4078);fill-opacity:1;"/>
<path d="M126.547 29.9673L125.566 27.3809L124.674 24.8836H124.585V33.089H122.355V18.9971H124.496L126.012 23.0106L127.171 26.043H127.26L128.42 22.9214L129.936 18.9971H132.076V33.089H129.847V24.9727L128.866 27.47L127.885 29.9673H126.547Z" fill="#1B3968" style="fill:#1B3968;fill:color(display-p3 0.1059 0.2235 0.4078);fill-opacity:1;"/>
<path d="M130.826 40.2242C131.272 39.9567 131.718 39.5999 132.164 39.3324H132.253C129.756 40.4918 127.259 41.4729 124.851 42.454C109.512 48.4296 95.1537 50.9269 82.5793 51.0161C64.9216 51.1053 51.0095 46.3783 43.6075 39.2432H30.2305C50.296 58.2405 97.1157 62.6107 130.826 40.2242Z" fill="white" style="fill:white;fill-opacity:1;"/>
<path d="M17.0347 39.2435H4.37109C21.3154 57.1705 45.5724 63.9489 65.9055 64.8408C68.0458 64.93 70.097 64.93 72.059 64.93C85.2577 64.7516 99.9724 61.8975 112.725 55.03C120.038 51.1056 126.727 45.9327 132.167 39.1543C101.31 69.4786 39.5081 64.2165 17.0347 39.2435Z" fill="#E22A2A" style="fill:#E22A2A;fill:color(display-p3 0.8863 0.1647 0.1647);fill-opacity:1;"/>
<path d="M132.167 39.2432C131.632 39.5999 131.186 39.9567 130.74 40.2242C97.1191 62.6107 50.2994 58.2405 30.2338 39.2432H17.0352C39.5086 64.2161 101.311 69.4783 132.167 39.2432Z" fill="#339FD9" style="fill:#339FD9;fill:color(display-p3 0.2000 0.6235 0.8510);fill-opacity:1;"/>
<path d="M132.522 39.1541C132.522 39.0649 132.433 38.9757 132.344 38.9757C132.344 38.9757 132.255 38.8866 132.166 38.8866H132.076H131.987H131.898C129.401 39.9568 126.993 41.0271 124.496 42.0082C110.316 47.4487 95.7801 50.392 82.403 50.4811H81.6896C65.2804 50.4811 51.5466 46.2893 43.9663 38.9757L43.8771 38.8866L43.7879 38.7974H43.6987H4.4594C4.4594 38.7974 4.37022 38.7974 4.28104 38.8866L4.10268 38.9757C4.0135 39.0649 3.92432 39.1541 4.0135 39.2433V39.4217C4.0135 39.4217 4.0135 39.5109 4.10268 39.6001C11.9506 47.8947 21.9387 54.3163 33.7106 58.7757C43.5204 62.5217 54.6679 64.6622 65.8155 65.1974C67.3315 65.2866 68.9368 65.2866 70.542 65.2866C71.0771 65.2866 71.523 65.2866 72.0581 65.2866C79.0142 65.1974 85.9702 64.3947 92.6588 62.7893C99.9715 61.0947 106.749 58.5974 112.903 55.3866C120.751 51.1947 127.261 45.9325 132.433 39.5109V39.4217V39.3325V39.2433C132.522 39.3325 132.522 39.2433 132.522 39.1541ZM131.095 40.046C126.101 45.9325 119.859 50.9271 112.546 54.7622C101.042 60.8271 86.6837 64.3055 72.0581 64.573C70.007 64.573 67.9558 64.573 65.9047 64.4839C51.5466 63.8595 24.6142 59.7568 5.08367 39.6001H43.5204C51.2791 47.0028 65.1912 51.1947 81.6896 51.1947C81.9571 51.1947 82.1355 51.1947 82.403 51.1947C95.8692 51.1055 110.495 48.1622 124.674 42.6325C126.904 41.919 129.044 41.0271 131.095 40.046Z" fill="#E1F1F9" style="fill:#E1F1F9;fill:color(display-p3 0.8824 0.9451 0.9765);fill-opacity:1;"/>
</svg>
