<svg width="34" height="34" viewBox="0 0 34 34" fill="none" xmlns="http://www.w3.org/2000/svg">
<rect x="0.000366211" width="34" height="34" rx="8" fill="url(#paint0_linear_12009_1845)" style=""/>
<path d="M23.4622 16.6755C23.4739 15.7614 23.7167 14.8651 24.168 14.07C24.6192 13.2749 25.2643 12.6069 26.0431 12.1281C25.5483 11.4215 24.8956 10.84 24.1369 10.4298C23.3781 10.0196 22.5341 9.79199 21.6719 9.76501C19.8328 9.57197 18.0499 10.8655 17.1127 10.8655C16.1574 10.8655 14.7144 9.78418 13.1606 9.81615C12.1556 9.84862 11.1761 10.1409 10.3175 10.6645C9.45904 11.188 8.75079 11.9251 8.26181 12.8037C6.14368 16.471 7.72362 21.8605 9.75261 24.8249C10.7678 26.2764 11.9542 27.8978 13.5066 27.8403C15.0257 27.7773 15.5931 26.8716 17.4268 26.8716C19.2435 26.8716 19.7758 27.8403 21.3597 27.8037C22.9898 27.7773 24.0168 26.3457 24.9963 24.8805C25.7257 23.8462 26.287 22.7031 26.6593 21.4935C25.7123 21.093 24.9041 20.4225 24.3356 19.5657C23.767 18.7089 23.4633 17.7038 23.4622 16.6755Z" fill="white" style="fill:white;fill-opacity:1;"/>
<path d="M20.4708 7.81539C21.3596 6.74843 21.7975 5.37703 21.6914 3.99243C20.3335 4.13505 19.0792 4.78403 18.1784 5.81005C17.738 6.31129 17.4007 6.89442 17.1858 7.52611C16.9708 8.15779 16.8825 8.82564 16.9258 9.49148C17.605 9.49847 18.2769 9.35126 18.891 9.06094C19.505 8.77061 20.0452 8.34474 20.4708 7.81539Z" fill="white" style="fill:white;fill-opacity:1;"/>
<defs>
<linearGradient id="paint0_linear_12009_1845" x1="17.0004" y1="33.7406" x2="17.0004" y2="0.00801432" gradientUnits="userSpaceOnUse">
<stop stop-color="#111111" style="stop-color:#111111;stop-color:color(display-p3 0.0667 0.0667 0.0667);stop-opacity:1;"/>
<stop offset="1" stop-color="#333333" style="stop-color:#333333;stop-color:color(display-p3 0.2000 0.2000 0.2000);stop-opacity:1;"/>
</linearGradient>
</defs>
</svg>
