<svg width="98" height="98" viewBox="0 0 98 98" fill="none" xmlns="http://www.w3.org/2000/svg">
<path d="M60.3575 57.6075L65.5 24.25H54.5V21.5H43.5V24.25H29.75C26.725 24.25 24.25 26.725 24.25 29.75V40.75C24.25 43.775 26.725 46.25 29.75 46.25H35.8825L37.6425 57.6075C34.535 60.1375 32.5 63.9325 32.5 68.25V71C32.5 74.025 34.975 76.5 38 76.5H60C63.025 76.5 65.5 74.025 65.5 71V68.25C65.5 63.9325 63.465 60.1375 60.3575 57.6075ZM29.75 40.75V29.75H33.3525L35.0575 40.75H29.75ZM49 68.25C47.4875 68.25 46.25 67.0125 46.25 65.5C46.25 63.9875 47.4875 62.75 49 62.75C50.5125 62.75 51.75 63.9875 51.75 65.5C51.75 67.0125 50.5125 68.25 49 68.25ZM55.2975 54.5H42.73L38.9075 29.75H59.0925L55.2975 54.5Z" fill="#BAB17A" style="fill:#BAB17A;fill:color(display-p3 0.7312 0.6933 0.4783);fill-opacity:1;"/>
</svg>
