<svg width="34" height="34" viewBox="0 0 34 34" fill="none" xmlns="http://www.w3.org/2000/svg">
<path fill-rule="evenodd" clip-rule="evenodd" d="M16.3199 34C8.62657 34 4.77989 34 2.38989 31.61C-0.000121518 29.22 -0.000121671 25.3733 -0.00012201 17.6799L-0.00012207 16.3199C-0.000122409 8.62657 -0.000122623 4.7799 2.38989 2.38987C4.77989 5.52698e-07 8.62657 3.92601e-07 16.3198 5.91888e-08L17.6799 2.49005e-10C25.3732 -3.33167e-07 29.2199 -5.52698e-07 31.6099 2.38987C33.9999 4.77986 33.9999 8.62657 33.9999 16.3199V17.6799C33.9999 25.3733 33.9999 29.22 31.6099 31.61C29.2199 34 25.3732 34 17.6799 34H16.3199Z" fill="#0077FF" style="fill:#0077FF;fill:color(display-p3 0.0000 0.4667 1.0000);fill-opacity:1;"/>
<path d="M19.6607 20.9528C18.7447 20.724 18.1024 19.9045 18.1024 18.9647V7.89234C18.1024 6.82485 19.1111 6.04196 20.1516 6.30187L26.7406 7.94786C27.6567 8.17666 28.299 8.9961 28.299 9.93593V21.0083C28.299 22.0758 27.2903 22.8587 26.2498 22.5988L19.6607 20.9528Z" fill="white" style="fill:white;fill-opacity:1;"/>
<path d="M7.25935 26.0512C6.34328 25.8224 5.70099 25.0029 5.70099 24.0631V12.9907C5.70099 11.9232 6.70967 11.1404 7.75015 11.4003L14.3392 13.0462C15.2553 13.275 15.8976 14.0945 15.8976 15.0343V26.1067C15.8976 27.1742 14.8889 27.9571 13.8484 27.6972L7.25935 26.0512Z" fill="white" style="fill:white;fill-opacity:1;"/>
<path d="M13.46 23.5021C12.544 23.2733 11.9017 22.4539 11.9017 21.514V10.4417C11.9017 9.37421 12.9104 8.59128 13.9509 8.85119L20.5399 10.4972C21.456 10.726 22.0983 11.5455 22.0983 12.4853V23.5576C22.0983 24.6251 21.0896 25.408 20.0491 25.1481L13.46 23.5021Z" fill="white" style="fill:white;fill-opacity:1;"/>
<path d="M17.7726 24.5824C17.484 24.5089 17.2787 24.2538 17.2686 23.9562L16.982 15.5003C16.899 14.3811 16.0683 13.4911 15.2002 13.229C15.1514 13.2142 15.0994 13.2341 15.0705 13.276C15.0412 13.3186 15.0525 13.3776 15.0934 13.4093C15.3078 13.5752 15.8978 14.1168 15.8978 15.0509L15.8961 24.1069L17.7726 24.5824Z" fill="#2B71F6" style="fill:#2B71F6;fill:color(display-p3 0.1686 0.4431 0.9647);fill-opacity:1;"/>
<path d="M23.9748 22.0308C23.6865 21.9586 23.4809 21.7043 23.4709 21.4072L23.1842 12.9519C23.1012 11.8328 22.2705 10.9427 21.4024 10.6806C21.3536 10.6659 21.3016 10.6857 21.2727 10.7276C21.2434 10.7703 21.2547 10.8292 21.2956 10.8609C21.51 11.0269 22.1001 11.5684 22.1001 12.5025L22.0983 21.5616L23.9748 22.0308Z" fill="#2B71F6" style="fill:#2B71F6;fill:color(display-p3 0.1686 0.4431 0.9647);fill-opacity:1;"/>
</svg>
