<svg width="98" height="98" viewBox="0 0 98 98" fill="none" xmlns="http://www.w3.org/2000/svg">
<path d="M76.4999 40.75C74.366 40.8035 72.2571 40.281 70.3949 39.2375C68.9076 38.3839 67.2142 37.9558 65.4999 38V35.25C67.6339 35.1965 69.7428 35.719 71.6049 36.7625C73.0923 37.6161 74.7857 38.0442 76.4999 38M76.4999 32.5C74.7857 32.5442 73.0923 32.1161 71.6049 31.2625C69.7428 30.219 67.6339 29.6965 65.4999 29.75V32.5C67.2142 32.4558 68.9076 32.8839 70.3949 33.7375C72.2571 34.781 74.366 35.3035 76.4999 35.25M76.4999 43.5C74.7857 43.5442 73.0923 43.1161 71.6049 42.2625C69.7428 41.219 67.6339 40.6965 65.4999 40.75V43.5C67.2142 43.4558 68.9076 43.8839 70.3949 44.7375C72.2571 45.781 74.366 46.3035 76.4999 46.25M43.4999 51.0075C49.9937 49.7516 56.4188 48.1637 62.7499 46.25V27C62.7499 27 44.8749 21.5 36.6249 21.5C32.9523 21.5103 29.4089 22.8566 26.656 25.2876C23.9031 27.7186 22.1287 31.0682 21.6641 34.7114C21.1994 38.3545 22.0762 42.0423 24.1308 45.0864C26.1854 48.1306 29.2775 50.3232 32.8299 51.255L35.2499 68.25H37.9999C38.1099 69.5607 38.5317 70.8262 39.2301 71.9408C39.9286 73.0554 40.8834 73.9869 42.0149 74.6575C43.2908 75.416 44.3503 76.4896 45.0919 77.7754C45.8335 79.0611 46.2322 80.5158 46.2499 82H48.9999C48.9875 80.1055 48.5001 78.2445 47.5825 76.587C46.6649 74.9296 45.3463 73.5287 43.7474 72.5125C41.8224 71 40.7499 69.9825 40.7499 68.25H43.4999M36.6249 43.5C35.2652 43.5 33.936 43.0968 32.8054 42.3414C31.6748 41.5859 30.7936 40.5122 30.2733 39.2559C29.7529 37.9997 29.6168 36.6174 29.882 35.2838C30.1473 33.9501 30.8021 32.7251 31.7636 31.7636C32.7251 30.8022 33.9501 30.1474 35.2837 29.8821C36.6173 29.6168 37.9997 29.753 39.2559 30.2733C40.5121 30.7937 41.5859 31.6749 42.3413 32.8055C43.0967 33.936 43.4999 35.2653 43.4999 36.625C43.4999 38.4484 42.7756 40.197 41.4863 41.4864C40.197 42.7757 38.4483 43.5 36.6249 43.5Z" fill="#BAB17A" style="fill:#BAB17A;fill:color(display-p3 0.7312 0.6933 0.4783);fill-opacity:1;"/>
</svg>
