<svg width="98" height="98" viewBox="0 0 98 98" fill="none" xmlns="http://www.w3.org/2000/svg">
<path d="M76.5 40.75C74.3661 40.8035 72.2572 40.281 70.395 39.2375C68.9077 38.3839 67.2143 37.9558 65.5 38V35.25C67.6339 35.1965 69.7428 35.719 71.605 36.7625C73.0923 37.6161 74.7857 38.0442 76.5 38M76.5 32.5C74.7857 32.5442 73.0923 32.1161 71.605 31.2625C69.7428 30.219 67.6339 29.6965 65.5 29.75V32.5C67.2143 32.4558 68.9077 32.8839 70.395 33.7375C72.2572 34.781 74.3661 35.3035 76.5 35.25M76.5 43.5C74.7857 43.5442 73.0923 43.1161 71.605 42.2625C69.7428 41.219 67.6339 40.6965 65.5 40.75V43.5C67.2143 43.4558 68.9077 43.8839 70.395 44.7375C72.2572 45.781 74.3661 46.3035 76.5 46.25M43.5 51.0075C49.9937 49.7516 56.4188 48.1637 62.75 46.25V27C62.75 27 44.875 21.5 36.625 21.5C32.9524 21.5103 29.409 22.8566 26.656 25.2876C23.9031 27.7186 22.1288 31.0682 21.6641 34.7114C21.1995 38.3545 22.0763 42.0423 24.1309 45.0864C26.1855 48.1306 29.2775 50.3232 32.83 51.255L35.25 68.25H38C38.11 69.5607 38.5318 70.8262 39.2302 71.9408C39.9286 73.0554 40.8834 73.9869 42.015 74.6575C43.2908 75.416 44.3503 76.4896 45.0919 77.7754C45.8335 79.0611 46.2323 80.5158 46.25 82H49C48.9875 80.1055 48.5002 78.2445 47.5826 76.587C46.665 74.9296 45.3464 73.5287 43.7475 72.5125C41.8225 71 40.75 69.9825 40.75 68.25H43.5M36.625 43.5C35.2653 43.5 33.936 43.0968 32.8055 42.3414C31.6749 41.5859 30.7937 40.5122 30.2733 39.2559C29.753 37.9997 29.6168 36.6174 29.8821 35.2838C30.1474 33.9501 30.8022 32.7251 31.7636 31.7636C32.7251 30.8022 33.9501 30.1474 35.2838 29.8821C36.6174 29.6168 37.9997 29.753 39.256 30.2733C40.5122 30.7937 41.5859 31.6749 42.3414 32.8055C43.0968 33.936 43.5 35.2653 43.5 36.625C43.5 38.4484 42.7757 40.197 41.4864 41.4864C40.1971 42.7757 38.4484 43.5 36.625 43.5Z" fill="white" style="fill:white;fill-opacity:1;"/>
</svg>
