<svg width="52" height="52" viewBox="0 0 52 52" fill="none" xmlns="http://www.w3.org/2000/svg">
<path d="M36.3784 49.8331C35.4684 49.4648 34.8184 48.6414 34.6667 47.6664C34.5584 47.1031 34.6667 46.7131 35.5334 45.1531C38.7834 39.3031 40.4517 32.6948 40.365 25.9998C40.4517 19.4998 38.87 13.1514 35.75 7.4531C35.295 6.49977 34.8834 5.58977 34.5367 4.61477C34.6667 3.79143 35.0784 3.0331 35.75 2.5781C36.725 2.0581 37.9167 2.16643 38.805 2.7731C39.4117 3.5531 39.9317 4.3331 40.365 5.2431C42.705 9.74977 44.2867 14.5164 45.0667 19.4998C45.565 23.4214 45.63 27.4081 45.2617 31.3514C44.59 36.4214 43.095 41.3181 40.7984 45.8898C39.4117 48.6631 38.6317 49.8331 37.8084 49.8331C37.635 49.8331 37.44 49.8331 37.2667 49.8331C36.9634 49.8331 36.6817 49.8331 36.3784 49.8331ZM26.9317 45.0448C25.6967 44.6981 24.9167 43.4414 25.1767 42.1848C25.1767 41.9248 25.8484 40.7331 26.455 39.5198C29.0117 34.6014 30.1167 29.0548 29.6184 23.5298C29.315 19.5648 28.1667 15.7081 26.2817 12.2198C24.9167 9.48977 24.83 9.05643 25.6317 7.88643C26.585 6.82477 28.1667 6.6731 29.3367 7.5831C30.8967 9.87977 32.1317 12.3931 33.0417 15.0364C35.815 23.2481 35.3817 32.1964 31.8284 40.0831C30.0084 44.1781 28.73 45.4998 26.9317 44.9364V45.0448ZM17.1817 40.2131C16.4017 39.8664 15.8167 39.1731 15.6 38.3498C15.6 37.9164 15.6 37.3531 16.575 35.6198C19.8034 29.7698 19.8034 22.6631 16.575 16.8131C15.1667 14.0831 15.1667 13.5198 16.315 12.4798C16.7267 12.0031 17.3334 11.7648 17.9834 11.8514C19.37 11.8514 20.15 12.5231 21.32 14.9714C23.1617 18.3514 24.115 22.1431 24.0934 25.9998C24.18 29.9214 23.2267 33.8214 21.3417 37.2664C20.1717 39.5414 19.5867 40.0831 18.4167 40.2781C18.005 40.3214 17.5717 40.2781 17.1817 40.0831V40.2131ZM8.06002 35.5981C7.34502 35.2514 6.78169 34.6664 6.50002 33.9081C6.28336 33.1498 6.50002 32.4998 7.36669 31.1131C8.45002 29.6398 8.97002 27.8198 8.86169 25.9998C9.01336 24.1581 8.51502 22.3381 7.45336 20.8214C7.08502 20.2798 6.78169 19.6948 6.50002 19.1098C6.26169 17.7448 7.17169 16.4448 8.66669 16.1848C9.83669 15.9681 10.66 16.4664 11.7434 18.1131C14.885 22.9014 14.885 29.0764 11.7434 33.8648C10.6384 35.5331 9.38169 36.0314 8.08169 35.5981H8.06002Z" fill="#4379B9" style="fill:#4379B9;fill:color(display-p3 0.2612 0.4758 0.7252);fill-opacity:1;"/>
</svg>
