<svg width="98" height="98" viewBox="0 0 98 98" fill="none" xmlns="http://www.w3.org/2000/svg">
<path d="M35.25 21.5H62.75C64.2087 21.5 65.6076 22.0795 66.6391 23.1109C67.6705 24.1424 68.25 25.5413 68.25 27V40.75H29.75V27C29.75 25.5413 30.3295 24.1424 31.3609 23.1109C32.3924 22.0795 33.7913 21.5 35.25 21.5ZM68.25 68.25C68.25 69.7087 67.6705 71.1076 66.6391 72.1391C65.6076 73.1705 64.2087 73.75 62.75 73.75V76.5H57.25V73.75H40.75V76.5H35.25V73.75C33.7913 73.75 32.3924 73.1705 31.3609 72.1391C30.3295 71.1076 29.75 69.7087 29.75 68.25V43.5H68.25V68.25ZM38 29.75V35.25H43.5V29.75H38ZM38 49V57.25H43.5V49H38Z" fill="white" style="fill:white;fill-opacity:1;"/>
</svg>
