<svg width="24" height="24" viewBox="0 0 24 24" fill="none" xmlns="http://www.w3.org/2000/svg">
<path d="M16.0598 13.09L21.6898 18.68L18.3698 21.96L12.7798 16.37V15.45L15.1398 13.09H16.0598ZM16.9698 10.56L15.9998 9.6L11.2098 14.4V16.37L5.5798 22L2.2998 18.68L7.8898 13.09H9.8598L10.6398 12.31L6.7998 8.46H5.4998L2.6898 5.62L5.3098 3L8.1098 5.8V7.11L11.9998 10.95L14.6598 8.29L13.6998 7.28L14.9998 5.97H12.3398L11.6898 5.32L14.9998 2L15.6598 2.66V5.32L16.9698 4L20.2498 7.28C21.3398 8.38 21.3398 10.17 20.2498 11.26L18.2798 9.25L16.9698 10.56Z" fill="#261000"/>
</svg>
