<svg width="98" height="98" viewBox="0 0 98 98" fill="none" xmlns="http://www.w3.org/2000/svg">
<path d="M27.001 29.75C25.5423 29.75 24.1433 30.3295 23.1119 31.3609C22.0804 32.3924 21.501 33.7913 21.501 35.25V62.75C21.501 64.2087 22.0804 65.6076 23.1119 66.6391C24.1433 67.6705 25.5423 68.25 27.001 68.25H71.001C72.4597 68.25 73.8586 67.6705 74.8901 66.6391C75.9215 65.6076 76.501 64.2087 76.501 62.75V35.25C76.501 33.7913 75.9215 32.3924 74.8901 31.3609C73.8586 30.3295 72.4597 29.75 71.001 29.75H27.001ZM27.001 35.25H60.001V62.75H27.001V35.25ZM68.251 35.25C68.9803 35.25 69.6798 35.5397 70.1955 36.0555C70.7113 36.5712 71.001 37.2707 71.001 38C71.001 38.7293 70.7113 39.4288 70.1955 39.9445C69.6798 40.4603 68.9803 40.75 68.251 40.75C67.5216 40.75 66.8222 40.4603 66.3064 39.9445C65.7907 39.4288 65.501 38.7293 65.501 38C65.501 37.2707 65.7907 36.5712 66.3064 36.0555C66.8222 35.5397 67.5216 35.25 68.251 35.25ZM51.751 40.75V57.25H57.251V40.75H51.751ZM68.251 46.25C68.9803 46.25 69.6798 46.5397 70.1955 47.0555C70.7113 47.5712 71.001 48.2707 71.001 49C71.001 49.7293 70.7113 50.4288 70.1955 50.9445C69.6798 51.4603 68.9803 51.75 68.251 51.75C67.5216 51.75 66.8222 51.4603 66.3064 50.9445C65.7907 50.4288 65.501 49.7293 65.501 49C65.501 48.2707 65.7907 47.5712 66.3064 47.0555C66.8222 46.5397 67.5216 46.25 68.251 46.25Z" fill="#BAB17A" style="fill:#BAB17A;fill:color(display-p3 0.7312 0.6933 0.4783);fill-opacity:1;"/>
</svg>
