<svg width="98" height="98" viewBox="0 0 98 98" fill="none" xmlns="http://www.w3.org/2000/svg">
<path d="M27.0009 29.75C25.5422 29.75 24.1432 30.3295 23.1118 31.3609C22.0803 32.3924 21.5009 33.7913 21.5009 35.25V62.75C21.5009 64.2087 22.0803 65.6076 23.1118 66.6391C24.1432 67.6705 25.5422 68.25 27.0009 68.25H71.0009C72.4596 68.25 73.8585 67.6705 74.8899 66.6391C75.9214 65.6076 76.5009 64.2087 76.5009 62.75V35.25C76.5009 33.7913 75.9214 32.3924 74.8899 31.3609C73.8585 30.3295 72.4596 29.75 71.0009 29.75H27.0009ZM27.0009 35.25H60.0009V62.75H27.0009V35.25ZM68.2509 35.25C68.9802 35.25 69.6797 35.5397 70.1954 36.0555C70.7111 36.5712 71.0009 37.2707 71.0009 38C71.0009 38.7293 70.7111 39.4288 70.1954 39.9445C69.6797 40.4603 68.9802 40.75 68.2509 40.75C67.5215 40.75 66.822 40.4603 66.3063 39.9445C65.7906 39.4288 65.5009 38.7293 65.5009 38C65.5009 37.2707 65.7906 36.5712 66.3063 36.0555C66.822 35.5397 67.5215 35.25 68.2509 35.25ZM51.7509 40.75V57.25H57.2509V40.75H51.7509ZM68.2509 46.25C68.9802 46.25 69.6797 46.5397 70.1954 47.0555C70.7111 47.5712 71.0009 48.2707 71.0009 49C71.0009 49.7293 70.7111 50.4288 70.1954 50.9445C69.6797 51.4603 68.9802 51.75 68.2509 51.75C67.5215 51.75 66.822 51.4603 66.3063 50.9445C65.7906 50.4288 65.5009 49.7293 65.5009 49C65.5009 48.2707 65.7906 47.5712 66.3063 47.0555C66.822 46.5397 67.5215 46.25 68.2509 46.25Z" fill="white" style="fill:white;fill-opacity:1;"/>
</svg>
