<svg width="52" height="52" viewBox="0 0 52 52" fill="none" xmlns="http://www.w3.org/2000/svg">
<path d="M49.8327 16.9373H41.0948L32.7856 24.9102V8.97732H26.0437V12.8343C25.8219 12.5884 25.5854 12.3425 25.334 12.0966C22.8797 9.81862 19.3461 8.66669 14.8219 8.66669C9.60284 8.66669 6.63107 10.7117 5.04908 12.4331C3.09747 14.5687 2.22516 17.4809 2.83134 19.8495C4.39854 25.9845 10.9039 26.9682 15.6795 27.5118C19.4496 27.9389 23.0571 28.5472 22.9684 31.4853C22.8649 34.5398 18.9321 35.2905 16.3448 35.2905C9.61763 35.2905 9.39585 30.9417 9.39585 30.9417H2.16602C2.26951 32.5725 2.83134 35.1999 5.13779 37.452C7.65123 39.9242 11.4362 41.1667 16.3596 41.1667C20.1445 41.1667 23.5894 40.0924 26.0437 38.1768V40.8043H32.7856V33.2844L35.166 30.9934L41.9819 40.8043H49.8327L39.912 26.4504L49.8327 16.9373ZM9.57327 18.4905C8.98188 16.2125 11.5692 14.1934 14.9402 14.1934C17.9711 14.1934 21.002 14.7887 22.1553 18.4775H26.0289V24.1207C21.1942 20.639 10.6969 22.8264 9.57327 18.4905Z" fill="#28827D" style="fill:#28827D;fill:color(display-p3 0.1574 0.5114 0.4900);fill-opacity:1;"/>
</svg>
