<svg width="98" height="98" viewBox="0 0 98 98" fill="none" xmlns="http://www.w3.org/2000/svg">
<path d="M56.7825 46.7175C61.0725 51.0075 61.0725 57.9925 56.7825 62.2825C52.4925 66.5725 45.5075 66.5725 41.2175 62.2825L56.7825 46.7175ZM32.5 21.5H65.5C66.9587 21.5 68.3576 22.0795 69.3891 23.1109C70.4205 24.1424 71 25.5413 71 27V71C71 72.4587 70.4205 73.8576 69.3891 74.8891C68.3576 75.9205 66.9587 76.5 65.5 76.5H32.5C31.0413 76.5 29.6424 75.9205 28.6109 74.8891C27.5795 73.8576 27 72.4587 27 71V27C27 25.5413 27.5795 24.1424 28.6109 23.1109C29.6424 22.0795 31.0413 21.5 32.5 21.5ZM35.25 27C34.5207 27 33.8212 27.2897 33.3055 27.8055C32.7897 28.3212 32.5 29.0207 32.5 29.75C32.5 30.4793 32.7897 31.1788 33.3055 31.6945C33.8212 32.2103 34.5207 32.5 35.25 32.5C35.9793 32.5 36.6788 32.2103 37.1945 31.6945C37.7103 31.1788 38 30.4793 38 29.75C38 29.0207 37.7103 28.3212 37.1945 27.8055C36.6788 27.2897 35.9793 27 35.25 27ZM43.5 27C42.7707 27 42.0712 27.2897 41.5555 27.8055C41.0397 28.3212 40.75 29.0207 40.75 29.75C40.75 30.4793 41.0397 31.1788 41.5555 31.6945C42.0712 32.2103 42.7707 32.5 43.5 32.5C44.2293 32.5 44.9288 32.2103 45.4445 31.6945C45.9603 31.1788 46.25 30.4793 46.25 29.75C46.25 29.0207 45.9603 28.3212 45.4445 27.8055C44.9288 27.2897 44.2293 27 43.5 27ZM49 38C44.6239 38 40.4271 39.7384 37.3327 42.8327C34.2384 45.9271 32.5 50.1239 32.5 54.5C32.5 58.8761 34.2384 63.0729 37.3327 66.1673C40.4271 69.2616 44.6239 71 49 71C53.3761 71 57.5729 69.2616 60.6673 66.1673C63.7616 63.0729 65.5 58.8761 65.5 54.5C65.5 50.1239 63.7616 45.9271 60.6673 42.8327C57.5729 39.7384 53.3761 38 49 38Z" fill="#BAB17A" style="fill:#BAB17A;fill:color(display-p3 0.7312 0.6933 0.4783);fill-opacity:1;"/>
</svg>
