<svg width="40" height="34" viewBox="0 0 40 34" fill="none" xmlns="http://www.w3.org/2000/svg">
<g clip-path="url(#clip0_12196_11488)">
<path fill-rule="evenodd" clip-rule="evenodd" d="M17.0374 4.98468C17.892 4.78197 18.7825 4.6748 19.6976 4.6748C24.7869 4.6748 29.1171 7.98982 30.726 12.6184C30.7691 12.4016 30.8105 12.178 30.8502 11.9477L30.8534 11.9287L30.8569 11.9097C31.0119 11.0765 31.1565 10.215 31.2907 9.32515C31.432 8.38761 31.7838 7.51757 32.2963 6.77102C29.3967 2.91267 24.832 0.424805 19.6976 0.424805C15.8246 0.424805 12.2758 1.84038 9.52136 4.19195C10.3189 4.03323 11.1429 3.95549 11.9887 3.95549C13.7942 3.95549 15.5044 4.26628 17.0374 4.98468ZM13.0179 6.81C12.686 6.78125 12.3429 6.76687 11.9887 6.76687C10.0938 6.76687 8.42852 7.25008 6.99297 8.21648C6.46034 8.56418 5.95736 8.96229 5.48401 9.41075C4.42726 11.5782 3.83301 14.0217 3.83301 16.6067C3.83301 19.3114 4.48357 21.8611 5.63377 24.1019C5.75085 23.8386 5.83377 23.555 5.87646 23.2572C6.01107 22.318 6.15355 21.419 6.30391 20.5602C6.61973 18.9202 7.00733 17.4999 7.46671 16.2991C7.66168 15.8196 7.87498 15.3819 8.10662 14.9864C8.55669 11.605 10.3955 8.67377 13.0179 6.81ZM8.96452 21.3594C10.7651 25.5842 14.8931 28.5386 19.6976 28.5386C20.8459 28.5386 21.9555 28.3698 23.0039 28.0552C24.5037 28.711 26.1681 28.9943 27.9233 28.9943C28.6759 28.9943 29.4119 28.9297 30.1283 28.7995C27.3396 31.2836 23.6909 32.7886 19.6976 32.7886C14.6628 32.7886 10.1758 30.3963 7.26952 26.6653C7.96603 25.8321 8.44111 24.7986 8.60369 23.6639C8.71852 22.8629 8.83886 22.0948 8.96452 21.3594ZM33.776 24.0734C33.4863 24.3085 33.1863 24.5285 32.8759 24.7333C31.4116 25.6997 29.7608 26.1829 27.9233 26.1829C27.5169 26.1829 27.1252 26.1648 26.7482 26.1286C28.9838 24.4036 30.5929 21.8785 31.1659 18.971C31.6545 18.3596 32.0666 17.6154 32.4021 16.7384C32.8903 15.5378 33.2779 14.1028 33.5649 12.4335C33.7261 11.5666 33.8761 10.6729 34.0149 9.75253C34.0195 9.72159 34.0246 9.69074 34.0301 9.66014C35.0124 11.765 35.5622 14.1203 35.5622 16.6067C35.5622 19.2999 34.9171 21.8394 33.776 24.0734Z" fill="#9EDF9C" style="fill:#9EDF9C;fill:color(display-p3 0.6196 0.8745 0.6118);fill-opacity:1;"/>
<path d="M27.9233 20.6038C28.9856 20.6038 29.8756 20.267 30.5933 19.5935C31.3398 18.8906 31.9428 17.9389 32.4022 16.7382C32.8903 15.5375 33.2778 14.1026 33.5649 12.4333C33.7262 11.5663 33.8762 10.6727 34.0149 9.75219C34.2487 8.20137 35.5389 7.03017 37.0773 7.03017C38.8392 7.03017 40.2363 8.55289 39.9666 10.3289C39.714 11.9924 39.3695 13.6311 38.9913 14.9811C38.3884 17.236 37.5845 19.1835 36.5796 20.8234C35.5747 22.4634 34.3402 23.7667 32.8759 24.733C31.4116 25.6995 29.7608 26.1827 27.9233 26.1827C26.1718 26.1827 24.6933 25.8459 23.4874 25.1723C22.2816 24.4695 21.2623 23.6056 20.4297 22.5806C19.6258 21.5556 18.908 20.4574 18.2763 19.286C17.6734 18.1146 17.0705 17.0311 16.4676 16.0354C15.8933 15.0104 15.2473 14.1611 14.5296 13.4875C13.8118 12.7847 12.9648 12.4333 11.9887 12.4333C10.9263 12.4333 10.022 12.7847 9.2755 13.4875C8.55775 14.1611 7.95478 15.0983 7.4667 16.2989C7.00733 17.4996 6.61973 18.92 6.30391 20.5599C6.15355 21.4188 6.01107 22.3177 5.87645 23.2569C5.65906 24.7736 4.39849 25.9191 2.89569 25.9191C1.17505 25.9191 -0.19382 24.4314 0.0225598 22.6902C0.229462 21.0253 0.514454 19.37 0.877542 18.0121C1.50918 15.7279 2.32744 13.7657 3.33233 12.1258C4.33721 10.4565 5.55743 9.15337 6.99297 8.21622C8.4285 7.24981 10.0938 6.7666 11.9887 6.7666C13.74 6.7666 15.2187 7.11803 16.4245 7.82087C17.6303 8.49443 18.6496 9.34368 19.4823 10.3687C20.3436 11.3644 21.0757 12.4626 21.6786 13.6633C22.3103 14.8639 22.9132 15.9768 23.4874 17.0018C24.0903 18.0268 24.722 18.8906 25.3823 19.5935C26.0714 20.267 26.9183 20.6038 27.9233 20.6038Z" fill="#0E46A3" style="fill:#0E46A3;fill:color(display-p3 0.0549 0.2745 0.6392);fill-opacity:1;"/>
</g>
<defs>
<clipPath id="clip0_12196_11488">
<rect width="40" height="34" fill="white" style="fill:white;fill-opacity:1;"/>
</clipPath>
</defs>
</svg>
