<svg width="142" height="40" viewBox="0 0 142 40" fill="none" xmlns="http://www.w3.org/2000/svg">
<path fill-rule="evenodd" clip-rule="evenodd" d="M20.4449 5.86456C21.4704 5.62608 22.539 5.5 23.6371 5.5C29.7443 5.5 34.9405 9.40002 36.8712 14.8454C36.9229 14.5903 36.9726 14.3273 37.0202 14.0564L37.0241 14.034L37.0283 14.0116C37.2142 13.0314 37.3878 12.0179 37.5488 10.971C37.7184 9.86801 38.1405 8.84443 38.7555 7.96614C35.276 3.4269 29.7984 0.5 23.6371 0.5C18.9895 0.5 14.7309 2.16538 11.4256 4.93194C12.3826 4.74521 13.3714 4.65375 14.3864 4.65375C16.553 4.65375 18.6053 5.01938 20.4449 5.86456ZM15.6215 8.012C15.2232 7.97817 14.8115 7.96125 14.3864 7.96125C12.1125 7.96125 10.1142 8.52973 8.39157 9.66668C7.75241 10.0757 7.14883 10.5441 6.58081 11.0717C5.31271 13.6217 4.59961 16.4963 4.59961 19.5375C4.59961 22.7195 5.38028 25.7192 6.76053 28.3554C6.90102 28.0456 7.00052 27.712 7.05175 27.3616C7.21328 26.2567 7.38426 25.1991 7.56469 24.1887C7.94368 22.2593 8.4088 20.5883 8.96005 19.1757C9.19402 18.6115 9.44998 18.0966 9.72794 17.6313C10.268 13.6532 12.4746 10.2047 15.6215 8.012ZM10.7574 25.1289C12.9181 30.0993 17.8717 33.575 23.6371 33.575C25.015 33.575 26.3466 33.3765 27.6047 33.0064C29.4044 33.7779 31.4017 34.1112 33.5079 34.1112C34.4111 34.1112 35.2942 34.0352 36.1539 33.882C32.8075 36.8045 28.429 38.575 23.6371 38.575C17.5953 38.575 12.2109 35.7606 8.72343 31.3712C9.55924 30.3909 10.1293 29.1751 10.3244 27.8401C10.4622 26.8977 10.6066 25.9941 10.7574 25.1289ZM40.5312 28.3219C40.1835 28.5985 39.8235 28.8573 39.451 29.0982C37.6939 30.2352 35.7129 30.8037 33.5079 30.8037C33.0202 30.8037 32.5502 30.7823 32.0978 30.7397C34.7805 28.7103 36.7115 25.7396 37.399 22.319C37.9854 21.5997 38.4799 20.7242 38.8825 19.6925C39.4683 18.28 39.9334 16.5918 40.2779 14.6279C40.4713 13.608 40.6513 12.5566 40.8178 11.4738C40.8234 11.4374 40.8295 11.4011 40.8361 11.3651C42.0149 13.8414 42.6746 16.6124 42.6746 19.5375C42.6746 22.706 41.9005 25.6937 40.5312 28.3219Z" fill="#9EDF9C" style="fill:#9EDF9C;fill:color(display-p3 0.6196 0.8745 0.6118);fill-opacity:1;"/>
<path d="M33.5079 24.2402C34.7827 24.2402 35.8507 23.844 36.712 23.0516C37.6078 22.2247 38.3313 21.105 38.8826 19.6924C39.4683 18.2799 39.9334 16.5917 40.2779 14.6278C40.4714 13.6078 40.6514 12.5565 40.8179 11.4736C41.0984 9.64914 42.6467 8.27126 44.4927 8.27126C46.607 8.27126 48.2835 10.0627 47.9599 12.1521C47.6568 14.1091 47.2434 16.037 46.7896 17.6252C46.0661 20.2781 45.1014 22.5693 43.8955 24.4986C42.6896 26.428 41.2082 27.9612 39.4511 29.0981C37.6939 30.2351 35.7129 30.8036 33.5079 30.8036C31.4062 30.8036 29.6319 30.4074 28.1849 29.6149C26.7379 28.7881 25.5148 27.7717 24.5156 26.5658C23.5509 25.36 22.6896 24.068 21.9316 22.6899C21.2081 21.3117 20.4846 20.037 19.7611 18.8656C19.072 17.6597 18.2968 16.6606 17.4355 15.8681C16.5742 15.0413 15.5578 14.6278 14.3864 14.6278C13.1116 14.6278 12.0264 15.0413 11.1306 15.8681C10.2693 16.6606 9.54574 17.7631 8.96004 19.1756C8.40879 20.5882 7.94367 22.2592 7.56469 24.1886C7.38426 25.199 7.21328 26.2566 7.05174 27.3615C6.79087 29.1459 5.27819 30.4935 3.47483 30.4935C1.41006 30.4935 -0.232584 28.7432 0.0270718 26.6948C0.275355 24.7361 0.617345 22.7887 1.05305 21.1911C1.81102 18.5038 2.79293 16.1954 3.99879 14.2661C5.20465 12.3022 6.66891 10.7691 8.39156 9.66661C10.1142 8.52966 12.1125 7.96118 14.3864 7.96118C16.488 7.96118 18.2624 8.37462 19.7094 9.2015C21.1564 9.99392 22.3795 10.993 23.3787 12.1989C24.4123 13.3703 25.2908 14.6623 26.0143 16.0749C26.7723 17.4874 27.4958 18.7967 28.1849 20.0025C28.9084 21.2084 29.6664 22.2247 30.4588 23.0516C31.2857 23.844 32.302 24.2402 33.5079 24.2402Z" fill="#0E46A3" style="fill:#0E46A3;fill:color(display-p3 0.0549 0.2745 0.6392);fill-opacity:1;"/>
<path d="M60.41 24.6655C60.09 24.6655 59.8447 24.5802 59.674 24.4095C59.5034 24.2282 59.418 23.9722 59.418 23.6415V17.5935C59.418 17.2628 59.5034 17.0122 59.674 16.8415C59.8447 16.6708 60.0847 16.5855 60.394 16.5855C60.7034 16.5855 60.9434 16.6708 61.114 16.8415C61.2847 17.0122 61.37 17.2628 61.37 17.5935V18.7615L61.194 18.2815C61.4074 17.7482 61.738 17.3268 62.186 17.0175C62.634 16.7082 63.1674 16.5535 63.786 16.5535C64.4154 16.5535 64.9327 16.7028 65.338 17.0015C65.7434 17.3002 66.026 17.7588 66.186 18.3775H65.962C66.1754 17.8122 66.5274 17.3695 67.018 17.0495C67.5087 16.7188 68.074 16.5535 68.714 16.5535C69.3114 16.5535 69.802 16.6708 70.186 16.9055C70.5807 17.1402 70.874 17.4975 71.066 17.9775C71.258 18.4468 71.354 19.0442 71.354 19.7695V23.6415C71.354 23.9722 71.2634 24.2282 71.082 24.4095C70.9114 24.5802 70.666 24.6655 70.346 24.6655C70.026 24.6655 69.7807 24.5802 69.61 24.4095C69.4394 24.2282 69.354 23.9722 69.354 23.6415V19.8495C69.354 19.2522 69.2527 18.8148 69.05 18.5375C68.858 18.2602 68.5274 18.1215 68.058 18.1215C67.5354 18.1215 67.1247 18.3082 66.826 18.6815C66.5274 19.0442 66.378 19.5508 66.378 20.2015V23.6415C66.378 23.9722 66.2927 24.2282 66.122 24.4095C65.9514 24.5802 65.706 24.6655 65.386 24.6655C65.066 24.6655 64.8154 24.5802 64.634 24.4095C64.4634 24.2282 64.378 23.9722 64.378 23.6415V19.8495C64.378 19.2522 64.2767 18.8148 64.074 18.5375C63.882 18.2602 63.5567 18.1215 63.098 18.1215C62.5754 18.1215 62.1647 18.3082 61.866 18.6815C61.5674 19.0442 61.418 19.5508 61.418 20.2015V23.6415C61.418 24.3242 61.082 24.6655 60.41 24.6655ZM77.0093 24.6975C76.1986 24.6975 75.4946 24.5322 74.8973 24.2015C74.2999 23.8708 73.8359 23.4015 73.5053 22.7935C73.1746 22.1748 73.0093 21.4495 73.0093 20.6175C73.0093 19.9882 73.0999 19.4282 73.2813 18.9375C73.4733 18.4362 73.7453 18.0095 74.0973 17.6575C74.4493 17.2948 74.8706 17.0228 75.3613 16.8415C75.8519 16.6495 76.4013 16.5535 77.0093 16.5535C77.8199 16.5535 78.5239 16.7188 79.1213 17.0495C79.7186 17.3802 80.1826 17.8495 80.5133 18.4575C80.8439 19.0655 81.0093 19.7855 81.0093 20.6175C81.0093 21.2468 80.9133 21.8122 80.7213 22.3135C80.5399 22.8148 80.2733 23.2468 79.9213 23.6095C79.5693 23.9615 79.1479 24.2335 78.6573 24.4255C78.1666 24.6068 77.6173 24.6975 77.0093 24.6975ZM77.0093 23.1775C77.4039 23.1775 77.7506 23.0815 78.0493 22.8895C78.3479 22.6975 78.5773 22.4148 78.7373 22.0415C78.9079 21.6575 78.9933 21.1828 78.9933 20.6175C78.9933 19.7642 78.8119 19.1295 78.4493 18.7135C78.0866 18.2868 77.6066 18.0735 77.0093 18.0735C76.6146 18.0735 76.2679 18.1695 75.9693 18.3615C75.6706 18.5428 75.4359 18.8255 75.2653 19.2095C75.1053 19.5828 75.0253 20.0522 75.0253 20.6175C75.0253 21.4602 75.2066 22.1002 75.5693 22.5375C75.9319 22.9642 76.4119 23.1775 77.0093 23.1775ZM83.676 24.6655C83.356 24.6655 83.1107 24.5802 82.94 24.4095C82.7694 24.2282 82.684 23.9722 82.684 23.6415V17.5935C82.684 17.2628 82.7694 17.0122 82.94 16.8415C83.1107 16.6708 83.3507 16.5855 83.66 16.5855C83.9694 16.5855 84.2094 16.6708 84.38 16.8415C84.5507 17.0122 84.636 17.2628 84.636 17.5935V18.6815L84.46 18.2815C84.6947 17.7162 85.0574 17.2895 85.548 17.0015C86.0494 16.7028 86.6147 16.5535 87.244 16.5535C87.8734 16.5535 88.3907 16.6708 88.796 16.9055C89.2014 17.1402 89.5054 17.4975 89.708 17.9775C89.9107 18.4468 90.012 19.0442 90.012 19.7695V23.6415C90.012 23.9722 89.9267 24.2282 89.756 24.4095C89.5854 24.5802 89.34 24.6655 89.02 24.6655C88.7 24.6655 88.4494 24.5802 88.268 24.4095C88.0974 24.2282 88.012 23.9722 88.012 23.6415V19.8655C88.012 19.2575 87.8947 18.8148 87.66 18.5375C87.436 18.2602 87.084 18.1215 86.604 18.1215C86.0174 18.1215 85.548 18.3082 85.196 18.6815C84.8547 19.0442 84.684 19.5295 84.684 20.1375V23.6415C84.684 24.3242 84.348 24.6655 83.676 24.6655ZM93.0594 24.6495C92.7394 24.6495 92.4941 24.5535 92.3234 24.3615C92.1527 24.1695 92.0674 23.9028 92.0674 23.5615V17.6895C92.0674 17.3375 92.1527 17.0708 92.3234 16.8895C92.4941 16.6975 92.7394 16.6015 93.0594 16.6015C93.3794 16.6015 93.6247 16.6975 93.7954 16.8895C93.9767 17.0708 94.0674 17.3375 94.0674 17.6895V23.5615C94.0674 23.9028 93.9821 24.1695 93.8114 24.3615C93.6407 24.5535 93.3901 24.6495 93.0594 24.6495ZM93.0594 15.1135C92.6861 15.1135 92.3927 15.0228 92.1794 14.8415C91.9767 14.6495 91.8754 14.3882 91.8754 14.0575C91.8754 13.7162 91.9767 13.4548 92.1794 13.2735C92.3927 13.0922 92.6861 13.0015 93.0594 13.0015C93.4434 13.0015 93.7367 13.0922 93.9394 13.2735C94.1421 13.4548 94.2434 13.7162 94.2434 14.0575C94.2434 14.3882 94.1421 14.6495 93.9394 14.8415C93.7367 15.0228 93.4434 15.1135 93.0594 15.1135ZM99.0335 24.6975C98.5749 24.6975 98.0895 24.6495 97.5775 24.5535C97.0655 24.4575 96.6069 24.2922 96.2015 24.0575C96.0309 23.9508 95.9082 23.8282 95.8335 23.6895C95.7695 23.5402 95.7429 23.3962 95.7535 23.2575C95.7749 23.1082 95.8282 22.9802 95.9135 22.8735C96.0095 22.7668 96.1269 22.6975 96.2655 22.6655C96.4149 22.6335 96.5749 22.6602 96.7455 22.7455C97.1722 22.9482 97.5722 23.0922 97.9455 23.1775C98.3189 23.2522 98.6869 23.2895 99.0495 23.2895C99.5615 23.2895 99.9402 23.2042 100.186 23.0335C100.442 22.8522 100.57 22.6175 100.57 22.3295C100.57 22.0842 100.484 21.8975 100.314 21.7695C100.154 21.6308 99.9082 21.5295 99.5775 21.4655L97.9775 21.1615C97.3162 21.0335 96.8095 20.7935 96.4575 20.4415C96.1162 20.0788 95.9455 19.6148 95.9455 19.0495C95.9455 18.5375 96.0842 18.0948 96.3615 17.7215C96.6495 17.3482 97.0442 17.0602 97.5455 16.8575C98.0469 16.6548 98.6229 16.5535 99.2735 16.5535C99.7429 16.5535 100.18 16.6068 100.586 16.7135C101.002 16.8095 101.402 16.9642 101.786 17.1775C101.946 17.2628 102.052 17.3748 102.106 17.5135C102.17 17.6522 102.186 17.7962 102.154 17.9455C102.122 18.0842 102.058 18.2122 101.962 18.3295C101.866 18.4362 101.743 18.5055 101.594 18.5375C101.455 18.5588 101.295 18.5268 101.114 18.4415C100.783 18.2708 100.463 18.1482 100.154 18.0735C99.8549 17.9988 99.5669 17.9615 99.2895 17.9615C98.7669 17.9615 98.3775 18.0522 98.1215 18.2335C97.8762 18.4148 97.7535 18.6548 97.7535 18.9535C97.7535 19.1775 97.8282 19.3642 97.9775 19.5135C98.1269 19.6628 98.3562 19.7642 98.6655 19.8175L100.266 20.1215C100.959 20.2495 101.482 20.4842 101.834 20.8255C102.196 21.1668 102.378 21.6255 102.378 22.2015C102.378 22.9802 102.074 23.5935 101.466 24.0415C100.858 24.4788 100.047 24.6975 99.0335 24.6975ZM107.862 24.6975C106.977 24.6975 106.214 24.5322 105.574 24.2015C104.934 23.8708 104.438 23.4015 104.086 22.7935C103.745 22.1855 103.574 21.4655 103.574 20.6335C103.574 19.8228 103.739 19.1135 104.07 18.5055C104.411 17.8975 104.875 17.4228 105.462 17.0815C106.059 16.7295 106.737 16.5535 107.494 16.5535C108.049 16.5535 108.545 16.6442 108.982 16.8255C109.43 17.0068 109.809 17.2682 110.118 17.6095C110.438 17.9508 110.678 18.3668 110.838 18.8575C111.009 19.3375 111.094 19.8815 111.094 20.4895C111.094 20.6815 111.025 20.8308 110.886 20.9375C110.758 21.0335 110.571 21.0815 110.326 21.0815H105.19V19.9295H109.686L109.43 20.1695C109.43 19.6788 109.355 19.2682 109.206 18.9375C109.067 18.6068 108.859 18.3562 108.582 18.1855C108.315 18.0042 107.979 17.9135 107.574 17.9135C107.126 17.9135 106.742 18.0202 106.422 18.2335C106.113 18.4362 105.873 18.7295 105.702 19.1135C105.542 19.4868 105.462 19.9348 105.462 20.4575V20.5695C105.462 21.4442 105.665 22.1002 106.07 22.5375C106.486 22.9642 107.094 23.1775 107.894 23.1775C108.171 23.1775 108.481 23.1455 108.822 23.0815C109.174 23.0068 109.505 22.8842 109.814 22.7135C110.038 22.5855 110.235 22.5322 110.406 22.5535C110.577 22.5642 110.71 22.6228 110.806 22.7295C110.913 22.8362 110.977 22.9695 110.998 23.1295C111.019 23.2788 110.987 23.4335 110.902 23.5935C110.827 23.7535 110.694 23.8922 110.502 24.0095C110.129 24.2442 109.697 24.4202 109.206 24.5375C108.726 24.6442 108.278 24.6975 107.862 24.6975ZM113.694 24.6655C113.374 24.6655 113.129 24.5802 112.958 24.4095C112.787 24.2282 112.702 23.9722 112.702 23.6415V17.5935C112.702 17.2628 112.787 17.0122 112.958 16.8415C113.129 16.6708 113.369 16.5855 113.678 16.5855C113.987 16.5855 114.227 16.6708 114.398 16.8415C114.569 17.0122 114.654 17.2628 114.654 17.5935V18.6815L114.478 18.2815C114.713 17.7162 115.075 17.2895 115.566 17.0015C116.067 16.7028 116.633 16.5535 117.262 16.5535C117.891 16.5535 118.409 16.6708 118.814 16.9055C119.219 17.1402 119.523 17.4975 119.726 17.9775C119.929 18.4468 120.03 19.0442 120.03 19.7695V23.6415C120.03 23.9722 119.945 24.2282 119.774 24.4095C119.603 24.5802 119.358 24.6655 119.038 24.6655C118.718 24.6655 118.467 24.5802 118.286 24.4095C118.115 24.2282 118.03 23.9722 118.03 23.6415V19.8655C118.03 19.2575 117.913 18.8148 117.678 18.5375C117.454 18.2602 117.102 18.1215 116.622 18.1215C116.035 18.1215 115.566 18.3082 115.214 18.6815C114.873 19.0442 114.702 19.5295 114.702 20.1375V23.6415C114.702 24.3242 114.366 24.6655 113.694 24.6655ZM124.949 24.6975C124.491 24.6975 124.005 24.6495 123.493 24.5535C122.981 24.4575 122.523 24.2922 122.117 24.0575C121.947 23.9508 121.824 23.8282 121.749 23.6895C121.685 23.5402 121.659 23.3962 121.669 23.2575C121.691 23.1082 121.744 22.9802 121.829 22.8735C121.925 22.7668 122.043 22.6975 122.181 22.6655C122.331 22.6335 122.491 22.6602 122.661 22.7455C123.088 22.9482 123.488 23.0922 123.861 23.1775C124.235 23.2522 124.603 23.2895 124.965 23.2895C125.477 23.2895 125.856 23.2042 126.101 23.0335C126.357 22.8522 126.485 22.6175 126.485 22.3295C126.485 22.0842 126.4 21.8975 126.229 21.7695C126.069 21.6308 125.824 21.5295 125.493 21.4655L123.893 21.1615C123.232 21.0335 122.725 20.7935 122.373 20.4415C122.032 20.0788 121.861 19.6148 121.861 19.0495C121.861 18.5375 122 18.0948 122.277 17.7215C122.565 17.3482 122.96 17.0602 123.461 16.8575C123.963 16.6548 124.539 16.5535 125.189 16.5535C125.659 16.5535 126.096 16.6068 126.501 16.7135C126.917 16.8095 127.317 16.9642 127.701 17.1775C127.861 17.2628 127.968 17.3748 128.021 17.5135C128.085 17.6522 128.101 17.7962 128.069 17.9455C128.037 18.0842 127.973 18.2122 127.877 18.3295C127.781 18.4362 127.659 18.5055 127.509 18.5375C127.371 18.5588 127.211 18.5268 127.029 18.4415C126.699 18.2708 126.379 18.1482 126.069 18.0735C125.771 17.9988 125.483 17.9615 125.205 17.9615C124.683 17.9615 124.293 18.0522 124.037 18.2335C123.792 18.4148 123.669 18.6548 123.669 18.9535C123.669 19.1775 123.744 19.3642 123.893 19.5135C124.043 19.6628 124.272 19.7642 124.581 19.8175L126.181 20.1215C126.875 20.2495 127.397 20.4842 127.749 20.8255C128.112 21.1668 128.293 21.6255 128.293 22.2015C128.293 22.9802 127.989 23.5935 127.381 24.0415C126.773 24.4788 125.963 24.6975 124.949 24.6975ZM132.498 24.6975C131.933 24.6975 131.426 24.5908 130.978 24.3775C130.541 24.1535 130.194 23.8548 129.938 23.4815C129.693 23.1082 129.57 22.6868 129.57 22.2175C129.57 21.6415 129.719 21.1882 130.018 20.8575C130.317 20.5162 130.802 20.2708 131.474 20.1215C132.146 19.9722 133.047 19.8975 134.178 19.8975H134.978V21.0495H134.194C133.533 21.0495 133.005 21.0815 132.61 21.1455C132.215 21.2095 131.933 21.3215 131.762 21.4815C131.602 21.6308 131.522 21.8442 131.522 22.1215C131.522 22.4735 131.645 22.7615 131.89 22.9855C132.135 23.2095 132.477 23.3215 132.914 23.3215C133.266 23.3215 133.575 23.2415 133.842 23.0815C134.119 22.9108 134.338 22.6815 134.498 22.3935C134.658 22.1055 134.738 21.7748 134.738 21.4015V19.5615C134.738 19.0282 134.621 18.6442 134.386 18.4095C134.151 18.1748 133.757 18.0575 133.202 18.0575C132.893 18.0575 132.557 18.0948 132.194 18.1695C131.842 18.2442 131.469 18.3722 131.074 18.5535C130.871 18.6495 130.69 18.6762 130.53 18.6335C130.381 18.5908 130.263 18.5055 130.178 18.3775C130.093 18.2388 130.05 18.0895 130.05 17.9295C130.05 17.7695 130.093 17.6148 130.178 17.4655C130.263 17.3055 130.407 17.1882 130.61 17.1135C131.101 16.9108 131.57 16.7668 132.018 16.6815C132.477 16.5962 132.893 16.5535 133.266 16.5535C134.034 16.5535 134.663 16.6708 135.154 16.9055C135.655 17.1402 136.029 17.4975 136.274 17.9775C136.519 18.4468 136.642 19.0548 136.642 19.8015V23.6415C136.642 23.9722 136.562 24.2282 136.402 24.4095C136.242 24.5802 136.013 24.6655 135.714 24.6655C135.415 24.6655 135.181 24.5802 135.01 24.4095C134.85 24.2282 134.77 23.9722 134.77 23.6415V22.8735H134.898C134.823 23.2468 134.674 23.5722 134.45 23.8495C134.237 24.1162 133.965 24.3242 133.634 24.4735C133.303 24.6228 132.925 24.6975 132.498 24.6975Z" fill="#0E46A3" style="fill:#0E46A3;fill:color(display-p3 0.0549 0.2745 0.6392);fill-opacity:1;"/>
</svg>
