<svg width="222" height="98" viewBox="0 0 222 98" fill="none" xmlns="http://www.w3.org/2000/svg">
<g clip-path="url(#clip0_10138_1704)">
<mask id="mask0_10138_1704" style="mask-type:luminance" maskUnits="userSpaceOnUse" x="16" y="16" width="66" height="66">
<path d="M29.2009 16C21.909 16 16 21.9094 16 29.2019V68.8028C16 76.0906 21.909 82 29.2009 82H68.7991C76.0864 82 81.9953 76.0906 82 68.8028V29.2019C82 21.9094 76.091 16 68.7991 16H29.2009Z" fill="white" style="fill:white;fill-opacity:1;"/>
</mask>
<g mask="url(#mask0_10138_1704)">
<path d="M16 16H81.9953V82H16V16Z" fill="#005BFF" style="fill:#005BFF;fill:color(display-p3 0.0000 0.3569 1.0000);fill-opacity:1;"/>
<path d="M89.298 72.5467C84.2835 77.0576 78.5026 83.7155 71.2407 83.4534C69.2859 82.136 72.3772 79.5677 73.368 78.4561C76.5332 74.9055 79.6558 71.1153 82.7326 67.2521C93.8005 53.355 90.1773 61.1015 89.298 72.5467Z" fill="#F1117E" style="fill:#F1117E;fill:color(display-p3 0.9451 0.0667 0.4941);fill-opacity:1;"/>
<path d="M76.4249 4.19599C71.4851 15.491 65.4285 26.7114 56.8823 35.7364C50.9687 41.9812 46.8516 46.6448 39.5551 52.2572C31.1148 58.7495 22.8574 63.8103 14.8627 70.6946C10.6381 74.5843 5.65724 77.8011 0.282898 80.0863C0.315819 80.5246 0.767492 86.8625 0.781462 86.9463C0.855964 86.9044 2.35067 85.7029 2.64868 85.4841C15.2617 76.7115 29.7642 70.8163 42.1111 61.4217C57.3038 48.6411 70.0287 32.8383 80.8952 16.2759C90.7849 2.46704 97.2707 2.23439 76.4249 4.19599Z" fill="#F1117E" style="fill:#F1117E;fill:color(display-p3 0.9451 0.0667 0.4941);fill-opacity:1;"/>
<path d="M28.0744 19.4923C25.1269 22.6124 22.2493 25.737 19.367 28.9222C17.7977 30.6639 16.3822 32.5405 14.8316 34.3101C12.061 37.472 9.19269 40.5967 5.91923 43.1812C2.59921 45.7983 -0.972261 48.4433 -4.35747 50.9766C-4.36679 50.7856 -4.76724 41.9099 -4.77655 41.7096C-3.34238 39.2788 -1.89889 36.5267 -0.832568 33.8863C-0.203952 32.3263 0.350161 30.6871 0.983433 29.1271C2.1941 26.1235 3.78194 23.3761 6.11946 21.1874C7.42325 19.9627 8.92262 19.0965 10.4639 18.2723C15.0877 15.7949 19.7069 13.2756 24.34 10.8215C27.1013 9.35461 29.192 6.79806 31.6552 4.86551L41.429 4.42312C36.9915 9.47569 32.6983 14.5981 28.0744 19.4923Z" fill="#F1117E" style="fill:#F1117E;fill:color(display-p3 0.9451 0.0667 0.4941);fill-opacity:1;"/>
<path d="M49.509 90.5299C53.1873 86.7952 66.0741 78.1195 64.0207 76.9304C63.8359 76.8234 63.6074 76.8236 63.4151 76.9166C56.3377 80.3382 49.7304 85.1999 44.7578 91.3643C44.6294 91.5233 44.4365 91.6158 44.2322 91.6136C43.0678 91.6017 39.3035 91.5594 36.8886 91.5326C36.2434 91.5255 35.9849 90.6961 36.5118 90.3236C36.9206 90.0344 37.259 89.7887 37.4499 89.6471C43.2818 85.1507 49.7782 81.7757 56.0723 78.1071C63.6183 73.7089 70.1607 67.7792 75.2813 60.7032C77.6364 57.4486 80.0379 54.2344 82.8508 51.3867C82.881 51.356 82.9143 51.3286 82.95 51.3044C90.8029 45.967 92.9753 30.005 103.808 24.3644C104.255 24.1314 104.789 24.4562 104.784 24.9608C104.749 29.067 99.3222 32.4057 98.9663 36.6192C98.9628 36.6606 98.9559 36.7019 98.9449 36.742C94.7338 52.0553 79.8934 62.4422 72.8506 70.4368C68.6672 75.1856 63.7064 84.6334 58.0047 90.9411C57.9421 91.0104 57.8951 91.0921 57.8659 91.1809C57.5808 92.0496 52.4768 91.7496 49.9616 91.6604C49.3838 91.6399 49.1033 90.9419 49.509 90.5299Z" fill="#F1117E" style="fill:#F1117E;fill:color(display-p3 0.9451 0.0667 0.4941);fill-opacity:1;"/>
<path d="M-2.48254 93.4449C11.6371 83.7013 28.5152 78.63 42.3452 68.5856C50.3562 61.6929 56.4841 52.6903 64.6086 45.9885C66.8537 44.6357 66.2238 46.6885 65.4949 48.0187C57.3346 64.3867 41.0412 73.7785 25.8591 82.7568C14.9102 89.7585 12.7294 95.5956 -2.48254 93.4449Z" fill="#F1117E" style="fill:#F1117E;fill:color(display-p3 0.9451 0.0667 0.4941);fill-opacity:1;"/>
<path d="M94.7817 26.3205C107.039 20.2344 103.858 13.8054 102.271 1.5219C95.8651 6.07201 91.8362 11.217 86.9438 17.2206C72.4725 33.969 67.3455 58.4795 47.7357 71.0144C37.6663 76.8724 29.5276 85.2041 20.9247 92.9248C22.8693 92.2409 33.7755 93.3821 34.3262 90.3822C36.8978 86.034 39.7046 82.5832 44.4312 80.5341C53.2977 75.8789 60.9482 69.2685 68.7279 63.0289C79.4026 52.4688 79.4113 32.5539 94.7817 26.3205Z" fill="#F1117E" style="fill:#F1117E;fill:color(display-p3 0.9451 0.0667 0.4941);fill-opacity:1;"/>
<path d="M74.9915 4.23768C67.2011 18.3512 52.9235 32.7752 38.4856 43.5755C32.8634 47.7812 26.3361 50.6017 19.4303 51.8685C14.1616 52.835 11.8649 54.3716 4.33536 60.6971C1.73219 63.4109 0.330616 65.9302 -1.91843 70.2656C-1.92309 70.1166 -2.53308 56.7424 -2.53308 56.7424C3.45693 48.5816 12.6154 45.0421 19.5525 38.0878C25.2728 32.1143 29.2652 24.6233 34.5415 18.264C37.176 14.9151 45.527 7.36147 47.0996 5.49938C47.1183 5.49966 55.7419 5.10849 55.7419 5.10849C51.7999 10.1019 47.7847 14.867 39.4551 24.7252C38.4529 25.9113 30.1753 34.4347 27.1496 39.124C26.1645 40.6508 25.4972 42.2034 26.2406 42.7827C27.0281 43.3963 28.137 42.3758 29.9302 41.2553C40.2203 34.8255 47.4139 28.756 55.7469 18.3759C69.2361 1.57277 58.8966 3.06674 74.9915 4.23768Z" fill="#F1117E" style="fill:#F1117E;fill:color(display-p3 0.9451 0.0667 0.4941);fill-opacity:1;"/>
<path d="M19.8866 48.6474C15.8178 49.7349 13.4009 53.9153 14.4884 57.9843C15.5759 62.0536 19.7559 64.4706 23.8248 63.3831C27.8935 62.2954 30.3105 58.1152 29.2229 54.0459C29.2221 54.0428 29.2212 54.0397 29.2204 54.0366C28.1311 49.9709 23.9522 47.5579 19.8866 48.6474ZM22.9126 59.9412C20.7419 60.5257 18.5084 59.2396 17.924 57.0687C17.3397 54.8979 18.6256 52.6643 20.7963 52.0799C22.967 51.4954 25.2004 52.7815 25.7848 54.9523L25.7861 54.9569C26.3674 57.1267 25.0815 59.3573 22.9126 59.9412ZM53.7333 39.5775C48.0403 41.1031 44.3082 45.6349 45.3978 49.7016C46.4874 53.7683 51.9853 55.827 57.6782 54.3014C63.3712 52.7759 67.103 48.244 66.0134 44.1773C64.9238 40.1106 59.4262 38.052 53.7333 39.5775ZM56.758 50.8667C52.8263 51.9203 49.3291 50.6357 48.8323 48.7813C48.3354 46.9268 50.7218 44.0658 54.6535 43.0123C58.5852 41.9587 62.0823 43.2431 62.5792 45.0975C63.076 46.9519 60.6989 49.8107 56.758 50.8667ZM78.4096 33.3137C77.4598 33.5682 76.8963 34.5445 77.1508 35.4942L78.6961 41.262L67.4252 36.3769C67.1683 36.2612 66.8665 36.3758 66.7509 36.6328C66.7021 36.7413 66.6928 36.8634 66.7245 36.9781L69.9012 48.8342C70.1556 49.7839 71.1318 50.3475 72.0814 50.093C73.0311 49.8385 73.5947 48.8624 73.3403 47.9127L71.7949 42.1449L83.0671 47.0347C83.3286 47.1463 83.631 47.0245 83.7424 46.763C83.7874 46.6574 83.7959 46.5398 83.7664 46.4289L80.5897 34.5727C80.3353 33.623 79.3592 33.0593 78.4096 33.3137ZM43.6629 54.0271L37.8397 55.5875L42.638 43.7512C42.7433 43.487 42.6146 43.1877 42.3504 43.0823C42.2485 43.0416 42.1363 43.0347 42.03 43.0623L31.2714 45.9453C30.3218 46.1997 29.7581 47.176 30.0126 48.1257C30.267 49.0754 31.2433 49.6391 32.1929 49.3846L37.0308 48.0882L32.2058 59.9367C32.0966 60.1963 32.2184 60.4953 32.478 60.6046C32.5844 60.6494 32.7029 60.6567 32.8138 60.6254L44.5856 57.471C45.5208 57.1675 46.0329 56.1633 45.7293 55.2281C45.4479 54.3609 44.557 53.8465 43.6654 54.0364L43.6629 54.0271Z" fill="white" style="fill:white;fill-opacity:1;"/>
</g>
</g>
<path d="M159.029 38C150.59 38 143.751 42.9187 143.751 48.9932C143.751 55.0676 150.59 59.9863 159.029 59.9863C167.467 59.9863 174.306 55.0676 174.306 48.9932C174.306 42.9187 167.467 38 159.029 38ZM159.029 54.8661C153.203 54.8661 148.844 51.7751 148.844 49.0066C148.844 46.2382 153.203 43.1472 159.029 43.1472C164.855 43.1472 169.214 46.2382 169.214 49.0066C169.214 51.7751 164.868 54.8661 159.029 54.8661Z" fill="white" style="fill:white;fill-opacity:1;"/>
<path d="M108.918 38C102.893 38 98.0133 42.9187 98 48.9932C98 55.0676 102.879 59.9863 108.905 59.9998C114.93 59.9998 119.81 55.0811 119.823 49.0066C119.823 42.9187 114.944 38 108.918 38ZM114.731 48.9932C114.731 52.232 112.131 54.8526 108.918 54.8661C105.705 54.8661 103.092 52.2454 103.092 49.0066C103.092 45.7678 105.692 43.1337 108.905 43.1337C112.118 43.1337 114.731 45.7543 114.731 48.9932Z" fill="white" style="fill:white;fill-opacity:1;"/>
<path d="M139.768 54.3681H131.116L142.154 39.6792C142.514 39.1954 142.181 38.4966 141.568 38.4966H125.704C124.131 38.4966 122.784 39.948 123.117 41.5876C123.357 42.7971 124.477 43.6169 125.704 43.6169H132.809L121.758 58.3192C121.398 58.803 121.731 59.4884 122.331 59.4884H139.675C140.901 59.4884 142.021 58.6686 142.261 57.4591C142.594 55.8061 141.341 54.3681 139.768 54.3681Z" fill="white" style="fill:white;fill-opacity:1;"/>
<path d="M198 41.0642V58.7635C198 58.9248 197.947 59.0861 197.84 59.2205C197.587 59.543 197.12 59.5968 196.8 59.3414L183.043 48.3348V56.9358C183.043 58.3872 181.856 59.543 180.416 59.5027C179.03 59.4624 177.95 58.2663 177.95 56.8686V39.2365C177.95 39.0618 178.003 38.9006 178.11 38.7662C178.363 38.4571 178.83 38.4033 179.137 38.6587L192.894 49.6653V41.1314C192.894 39.7338 193.974 38.5511 195.347 38.4974C196.8 38.4436 198 39.6128 198 41.0642Z" fill="white" style="fill:white;fill-opacity:1;"/>
<defs>
<clipPath id="clip0_10138_1704">
<rect width="66" height="66" fill="white" style="fill:white;fill-opacity:1;" transform="translate(16 16)"/>
</clipPath>
</defs>
</svg>
