<svg width="222" height="50" viewBox="0 0 222 50" fill="none" xmlns="http://www.w3.org/2000/svg">
<path d="M98.4783 0H49.2383V49.24H86.1683C92.9683 49.24 98.4783 43.73 98.4783 36.93V0Z" fill="#4D5759" style="fill:#4D5759;fill:color(display-p3 0.3020 0.3412 0.3490);fill-opacity:1;"/>
<path d="M12.31 0C5.51 0 0 5.51 0 12.31V36.93C0 43.73 5.51 49.24 12.31 49.24H49.24V0H12.31Z" fill="#B1EC52" style="fill:#B1EC52;fill:color(display-p3 0.6941 0.9255 0.3216);fill-opacity:1;"/>
<path d="M40.6892 18.4598H34.7792L29.1592 24.6198V12.3098H24.5992V15.2898C24.4492 15.0998 24.2892 14.9098 24.1192 14.7198C22.4592 12.9598 20.0692 12.0698 17.0092 12.0698C13.4792 12.0698 11.4692 13.6498 10.3992 14.9798C9.07922 16.6298 8.48922 18.8798 8.89922 20.7098C9.95922 25.4498 14.3592 26.2098 17.5892 26.6298C20.1392 26.9598 22.5792 27.4298 22.5192 29.6998C22.4492 32.0598 19.7892 32.6398 18.0392 32.6398C13.4892 32.6398 13.3392 29.2798 13.3392 29.2798H8.44922C8.51922 30.5398 8.89922 32.5698 10.4592 34.3098C12.1592 36.2198 14.7192 37.1798 18.0492 37.1798C20.6092 37.1798 22.9392 36.3498 24.5992 34.8698V36.8998H29.1592V31.0898L30.7692 29.3198L35.3792 36.8998H40.6892L33.9792 25.8098L40.6892 18.4598ZM13.4592 19.6598C13.0592 17.8998 14.8092 16.3398 17.0892 16.3398C19.1392 16.3398 21.1892 16.7998 21.9692 19.6498H24.5892V24.0098C21.3192 21.3198 14.2192 23.0098 13.4592 19.6598Z" fill="#4D5759" style="fill:#4D5759;fill:color(display-p3 0.3020 0.3412 0.3490);fill-opacity:1;"/>
<path d="M64.9491 37.5602C63.7291 37.5602 62.7191 37.2201 62.0091 36.5101C59.1991 33.7001 62.1991 26.2901 68.8491 19.6401C75.4991 12.9901 82.9091 9.99015 85.7191 12.8001C88.5291 15.6101 85.5291 23.0201 78.8791 29.6701C73.9191 34.6301 68.5391 37.5602 64.9491 37.5602ZM82.7691 13.1801C79.8691 13.1801 74.8091 15.7001 69.8591 20.6501C63.4691 27.0401 61.1291 33.5902 63.0191 35.4902C64.9091 37.3801 71.4691 35.0401 77.8591 28.6501C84.2491 22.2601 86.5891 15.7102 84.6991 13.8102C84.2791 13.3902 83.6091 13.1701 82.7691 13.1701V13.1801Z" fill="white" style="fill:white;fill-opacity:1;"/>
<path d="M82.7713 37.5602C79.1913 37.5602 73.8013 34.6301 68.8413 29.6701C62.1913 23.0201 59.1913 15.6101 62.0013 12.8001C64.8113 9.99015 72.2213 12.9901 78.8713 19.6401C85.5213 26.2901 88.5213 33.7001 85.7113 36.5101C85.0013 37.2201 83.9813 37.5602 82.7713 37.5602ZM64.9513 13.1801C64.1113 13.1801 63.4513 13.3901 63.0213 13.8201C61.1313 15.7101 63.4713 22.2701 69.8613 28.6601C76.2513 35.0501 82.8013 37.3901 84.7013 35.5001C86.5913 33.6101 84.2513 27.0501 77.8613 20.6601C72.9113 15.7101 67.8513 13.1901 64.9513 13.1901V13.1801Z" fill="#B1EC52" style="fill:#B1EC52;fill:color(display-p3 0.6941 0.9255 0.3216);fill-opacity:1;"/>
<path d="M110.1 33.8201C110.41 33.9201 110.76 33.9701 111.17 33.9701C111.68 33.9701 112.09 33.8201 112.4 33.5101C112.71 33.2001 112.91 32.7901 113.01 32.3401L106.52 18.6001H110.84L115 28.4601L118.65 18.6001H122.76L116.91 32.1401C116.14 33.9301 115.35 35.2601 114.48 36.1001C113.61 36.9701 112.67 37.4001 111.62 37.4001C111.26 37.4001 110.98 37.4001 110.75 37.3501C110.49 37.3201 110.29 37.2701 110.11 37.2201L109.62 37.0701C109.49 37.0201 109.36 36.9701 109.24 36.9401V33.4701C109.47 33.6201 109.75 33.7501 110.08 33.8301L110.1 33.8201Z" fill="#4D5759" style="fill:#4D5759;fill:color(display-p3 0.3020 0.3412 0.3490);fill-opacity:1;"/>
<path d="M129.801 31.7799C129.541 31.8599 129.261 31.9099 128.961 31.9799C128.651 32.0299 128.321 32.0799 127.991 32.1099C127.661 32.1599 127.331 32.1599 127.021 32.1599C126.231 32.1599 125.561 32.0799 124.951 31.9599C124.361 31.8099 123.851 31.5999 123.441 31.2999C123.031 30.9899 122.721 30.5799 122.521 30.0699C122.321 29.5799 122.211 28.9699 122.211 28.2599V23.3599H125.731V27.5699C125.731 27.9499 125.781 28.2899 125.881 28.5099C125.961 28.7699 126.111 28.9699 126.311 29.1199C126.511 29.2699 126.741 29.3799 127.051 29.4299C127.361 29.4799 127.711 29.5099 128.121 29.5099C128.731 29.5099 129.191 29.4599 129.551 29.3599C129.911 29.2299 130.191 29.0999 130.391 28.9799V23.3599H133.911V36.9499H130.391V31.5899C130.241 31.6399 130.031 31.7199 129.781 31.7899L129.801 31.7799Z" fill="#4D5759" style="fill:#4D5759;fill:color(display-p3 0.3020 0.3412 0.3490);fill-opacity:1;"/>
<path d="M147.571 35.2499C147.601 35.5099 147.671 35.7399 147.751 35.8599C147.831 36.0399 147.901 36.1399 148.011 36.2199C148.111 36.2999 148.191 36.3499 148.321 36.3699V36.9299H144.411L144.211 36.2899C144.111 36.0299 144.081 35.7299 144.081 35.3399L143.291 36.1299C143.011 36.3599 142.731 36.5599 142.401 36.7399C142.071 36.9199 141.711 37.0699 141.281 37.1699C140.851 37.2699 140.341 37.3199 139.751 37.3199C139.161 37.3199 138.581 37.2399 138.061 37.0599C137.551 36.8799 137.121 36.5999 136.731 36.2699C136.371 35.9099 136.071 35.4799 135.861 34.9399C135.661 34.4299 135.551 33.8199 135.551 33.1299C135.551 32.5699 135.631 32.0599 135.811 31.5699C135.991 31.0799 136.241 30.6799 136.551 30.3199C136.881 29.9599 137.271 29.6599 137.721 29.4299C138.181 29.1699 138.691 29.0199 139.281 28.9399L142.731 28.4299C142.861 28.3999 142.991 28.3999 143.141 28.3499C143.291 28.3199 143.421 28.2699 143.551 28.1699C143.681 28.0899 143.781 27.9899 143.861 27.8599C143.941 27.7099 143.991 27.5299 143.991 27.2999C143.991 27.0699 143.941 26.8699 143.891 26.6899C143.811 26.4899 143.691 26.3299 143.531 26.1999C143.351 26.0499 143.151 25.9399 142.871 25.8699C142.591 25.7899 142.231 25.7699 141.821 25.7699C141.331 25.7699 140.981 25.8199 140.701 25.8999C140.391 25.9999 140.161 26.1599 140.011 26.3099C139.831 26.4899 139.701 26.6899 139.631 26.8999L139.481 27.6399H135.961C135.961 27.4899 135.991 27.2599 136.041 26.9499C136.091 26.6699 136.191 26.3399 136.351 25.9799C136.481 25.6499 136.711 25.2899 136.961 24.9299C137.221 24.5699 137.551 24.2399 138.011 23.9299C138.421 23.6499 138.961 23.3899 139.571 23.2099C140.181 23.0299 140.901 22.9299 141.771 22.8999C142.971 22.8999 143.971 23.0299 144.731 23.2599C145.471 23.5199 146.061 23.8499 146.491 24.2299C146.901 24.6399 147.181 25.0699 147.331 25.5599C147.461 26.0499 147.531 26.5299 147.531 27.0199V34.2199C147.531 34.6299 147.561 34.9599 147.611 35.2199L147.571 35.2499ZM143.331 30.6099C143.101 30.7099 142.821 30.8099 142.461 30.8699L141.521 31.0499C141.111 31.1299 140.751 31.1999 140.451 31.3099C140.141 31.4099 139.891 31.5399 139.681 31.6899C139.481 31.8699 139.321 32.0699 139.221 32.2999C139.121 32.5299 139.071 32.8099 139.071 33.1699C139.071 33.4499 139.121 33.7099 139.201 33.9099C139.301 34.1399 139.431 34.2899 139.611 34.4499C139.761 34.5799 139.941 34.7099 140.151 34.7599C140.381 34.8399 140.611 34.8599 140.871 34.8599C141.001 34.8599 141.181 34.8299 141.381 34.8099C141.581 34.7799 141.791 34.7299 142.041 34.6599C142.271 34.5599 142.501 34.4599 142.731 34.2999C142.961 34.1699 143.161 33.9699 143.341 33.7399C143.541 33.5099 143.701 33.2299 143.801 32.8699C143.901 32.5399 143.981 32.1499 143.981 31.6999V30.3199C143.781 30.4499 143.551 30.5499 143.341 30.6299L143.331 30.6099Z" fill="#4D5759" style="fill:#4D5759;fill:color(display-p3 0.3020 0.3412 0.3490);fill-opacity:1;"/>
<path d="M157.429 27.2099C157.329 26.9299 157.169 26.6999 156.999 26.5199C156.799 26.3199 156.569 26.1899 156.309 26.0899C156.029 26.0099 155.699 25.9599 155.309 25.9599C154.719 25.9599 154.259 26.0899 153.909 26.3699C153.549 26.6499 153.269 26.9799 153.089 27.3899C152.889 27.8199 152.779 28.2799 152.709 28.7699C152.659 29.2599 152.609 29.7099 152.609 30.1499C152.609 30.5899 152.639 31.0699 152.689 31.5499C152.739 32.0599 152.839 32.4899 153.049 32.8999C153.229 33.3099 153.479 33.6699 153.869 33.9199C154.229 34.1999 154.709 34.3299 155.329 34.3299C155.739 34.3299 156.099 34.2499 156.399 34.0699C156.679 33.9199 156.939 33.7099 157.139 33.4799C157.339 33.2199 157.499 32.9699 157.599 32.6899C157.679 32.4299 157.729 32.1799 157.729 31.9499H161.409C161.409 32.1799 161.379 32.4599 161.309 32.8199C161.209 33.1999 161.079 33.5599 160.899 33.9699C160.719 34.3499 160.469 34.7599 160.179 35.1699C159.849 35.5799 159.489 35.9399 159.029 36.2399C158.569 36.5699 158.059 36.8299 157.449 37.0299C156.839 37.2299 156.119 37.3399 155.329 37.3399C154.309 37.3399 153.389 37.1899 152.599 36.8799C151.809 36.5499 151.139 36.0899 150.609 35.4799C150.069 34.8699 149.659 34.1299 149.379 33.2099C149.099 32.3199 148.949 31.2899 148.949 30.1499C148.949 29.0099 149.099 27.9499 149.409 27.0599C149.719 26.1899 150.149 25.4299 150.709 24.8099C151.269 24.1999 151.939 23.7399 152.729 23.4299C153.499 23.0999 154.389 22.9399 155.339 22.9399C155.749 22.9399 156.179 22.9899 156.639 23.0399C157.069 23.0899 157.509 23.2199 157.939 23.3699C158.369 23.5499 158.779 23.7499 159.189 24.0099C159.569 24.2699 159.929 24.5999 160.259 24.9799C160.569 25.3599 160.819 25.8199 161.029 26.3299C161.229 26.8399 161.359 27.4499 161.409 28.1399H157.729C157.649 27.7799 157.579 27.4499 157.449 27.1999L157.429 27.2099Z" fill="#4D5759" style="fill:#4D5759;fill:color(display-p3 0.3020 0.3412 0.3490);fill-opacity:1;"/>
<path d="M173.689 23.3501V26.2101H169.579V36.9401H166.059V26.2101H161.949V23.3501H173.699H173.689Z" fill="#4D5759" style="fill:#4D5759;fill:color(display-p3 0.3020 0.3412 0.3490);fill-opacity:1;"/>
<path d="M183.489 28.2599V23.3599H187.009V36.9499H183.489V31.1299H178.309V36.9499H174.789V23.3599H178.309V28.2599H183.489Z" fill="#4D5759" style="fill:#4D5759;fill:color(display-p3 0.3020 0.3412 0.3490);fill-opacity:1;"/>
<path d="M192.949 31.7301L197.909 23.3501H201.609V36.9401H198.089V28.7401H198.039L193.239 36.9401H189.379V23.3501H192.899V31.7301H192.949Z" fill="#4D5759" style="fill:#4D5759;fill:color(display-p3 0.3020 0.3412 0.3490);fill-opacity:1;"/>
<path d="M212.631 23.3503H217.331L211.711 28.9903L217.561 36.9303H212.961L208.981 31.1803L207.551 32.6403V36.9303H204.031V23.3403H207.551V28.5003L212.631 23.3403V23.3503Z" fill="#4D5759" style="fill:#4D5759;fill:color(display-p3 0.3020 0.3412 0.3490);fill-opacity:1;"/>
</svg>
