<svg width="312" height="98" viewBox="0 0 312 98" fill="none" xmlns="http://www.w3.org/2000/svg">
<g clip-path="url(#clip0_10138_1705)">
<path d="M16 46.9844C16 36.1388 16 30.7161 18.1107 26.5736C19.9673 22.9298 22.9298 19.9673 26.5736 18.1107C30.7161 16 36.1388 16 46.9844 16H51.0156C61.8612 16 67.2839 16 71.4264 18.1107C75.0701 19.9673 78.0327 22.9298 79.8894 26.5736C82 30.7161 82 36.1388 82 46.9844V51.0156C82 61.8612 82 67.2839 79.8894 71.4264C78.0327 75.0701 75.0701 78.0327 71.4264 79.8894C67.2839 82 61.8612 82 51.0156 82H46.9844C36.1388 82 30.7161 82 26.5736 79.8894C22.9298 78.0327 19.9673 75.0701 18.1107 71.4264C16 67.2839 16 61.8612 16 51.0156V46.9844Z" fill="url(#paint0_linear_10138_1705)" style=""/>
<path d="M65.9333 39.288C63.5696 39.288 61.4349 40.0029 59.6123 41.2264V30.0596H54.5702V50.6536C54.5702 56.9192 59.6677 61.9614 65.9056 61.9614C72.1435 61.9614 77.299 56.9493 77.299 50.5957C77.299 44.242 72.2567 39.288 65.9333 39.288ZM43.051 52.1087L38.4368 40.0885H34.905L30.263 52.1087L25.6211 40.0885H20.1208L28.2391 61.2238H31.7709L36.6419 48.6347L41.5406 61.2238H45.0724L53.163 40.0885H47.6929L43.051 52.1087ZM65.908 56.9217C62.4897 56.9217 59.6123 54.1879 59.6123 50.626C59.6123 47.0639 62.3185 44.3604 65.9358 44.3604C69.5532 44.3604 72.2593 47.1797 72.2593 50.626C72.2593 54.0722 69.382 56.9217 65.908 56.9217Z" fill="white" style="fill:white;fill-opacity:1;"/>
</g>
<g clip-path="url(#clip1_10138_1705)">
<path d="M178.104 43.2397C175.938 43.2397 174 43.8735 172.366 44.9174V35.1864H167.768V53.1198C167.768 58.5633 172.404 62.9627 178.066 62.9627C183.728 62.9627 188.44 58.6005 188.44 53.0826C188.44 47.5646 183.88 43.2397 178.104 43.2397ZM154.316 43.538C149.224 44.0226 145.044 48.2357 145.044 53.269C145.044 58.5633 149.794 63.0373 155.342 63.0373C160.89 63.0373 165.64 58.6005 165.64 53.269C165.64 50.9947 164.804 48.9441 163.398 47.3036L153.252 35.2237H147.324L154.316 43.538ZM118.862 54.3875L114.644 43.9481H111.414L107.234 54.3875L103.016 43.9481H98L105.372 62.3662H108.602L113.048 51.4048L117.494 62.3662H120.724L128.058 43.9481H123.08L118.862 54.3875ZM200.904 43.277C195.166 43.277 190.53 47.5273 190.53 52.9334C190.53 58.3023 194.596 63.0373 200.638 63.0373C204.248 63.0373 207.174 61.3595 209.264 58.526L205.692 55.7297C204.666 57.5193 202.652 58.5633 200.676 58.5633C198.092 58.5633 195.546 56.8109 195.356 54.2383H210.366V52.8961C210.328 47.229 206.414 43.277 200.904 43.277ZM259.424 43.277C253.686 43.277 249.088 47.5273 249.088 53.1571C249.088 58.4514 253.154 63 259.158 63C262.768 63 265.694 61.3222 267.784 58.4887L264.63 55.9161C263.528 57.5566 261.514 58.526 259.082 58.526C256.688 58.526 254.066 56.7736 253.876 54.2011H268.81V52.6724C268.81 47.229 264.934 43.277 259.424 43.277ZM275.46 49.3169C275.46 48.1611 277.094 47.2663 279.222 47.2663C281.35 47.2663 283.706 48.273 285.226 49.9135L288 46.6698C285.34 44.4328 282.68 43.277 279.336 43.277C275.156 43.277 270.862 45.1039 270.862 49.3169C270.862 54.4993 275.536 54.8722 279.336 55.1704C281.464 55.3196 283.364 55.4687 283.364 56.8109C283.364 58.265 281.198 58.9361 279.336 58.9361C276.904 58.9361 274.586 57.8549 273.028 56.028L270.064 59.0479C272.42 61.8069 275.84 63 279.184 63C283.364 63 287.962 61.0985 287.962 56.7364C287.962 51.8149 283.25 51.3302 279.64 50.9947C277.322 50.7337 275.46 50.5473 275.46 49.3169ZM217.282 48.1238V43.9481H212.684V62.3289H217.282V54.5366C217.89 50.2117 221.5 48.4594 225.68 48.4594V43.9481H225.224C221.69 43.9481 219.106 45.1784 217.282 48.1238ZM231.836 48.1238V43.9481H227.238V62.3289H231.836V54.5366C232.444 49.6525 236.852 48.4594 240.234 48.4594V43.9481H239.74C236.244 43.9481 233.66 45.1411 231.836 48.1238ZM138.128 62.3289H142.726V35.2237H138.128V62.3289ZM155.342 58.6005C152.188 58.6005 149.604 56.1771 149.604 53.1571C149.604 50.1372 152.15 47.6764 155.304 47.6764C158.42 47.6764 161.08 50.0999 161.08 53.1571C161.08 56.2144 158.534 58.6005 155.342 58.6005ZM178.104 58.6005C174.988 58.6005 172.366 56.2144 172.366 53.1198C172.366 50.0253 174.836 47.6764 178.104 47.6764C181.372 47.6764 183.88 50.0999 183.88 53.1198C183.88 56.1398 181.258 58.6005 178.104 58.6005ZM130.186 62.3289H134.784V43.9481H130.186V62.3289ZM242.172 62.3289H246.77V43.9481H242.172V62.3289ZM132.428 35C130.566 35 129.008 36.4913 129.008 38.3555C129.008 40.257 130.642 41.5619 132.428 41.5619C134.404 41.5619 135.924 39.9587 135.924 38.281C135.924 36.5659 134.328 35 132.428 35ZM244.452 35C242.59 35 240.994 36.4913 240.994 38.3555C240.994 40.2197 242.514 41.5619 244.528 41.5619C246.542 41.5619 247.91 40.257 247.91 38.4301C247.91 36.6032 246.352 35 244.452 35ZM254.408 50.5473C255.168 48.7204 256.802 47.6764 259.196 47.6764C261.59 47.6764 263.072 48.7949 263.68 50.5473H254.408ZM195.85 50.5473C196.61 48.7204 198.244 47.6764 200.6 47.6764C202.994 47.6764 204.552 48.7949 205.16 50.5473C205.198 50.5473 195.85 50.5473 195.85 50.5473Z" fill="white" style="fill:white;fill-opacity:1;"/>
</g>
<defs>
<linearGradient id="paint0_linear_10138_1705" x1="38.2001" y1="87.7001" x2="78.7" y2="20.2" gradientUnits="userSpaceOnUse">
<stop stop-color="#6F01FB" style="stop-color:#6F01FB;stop-color:color(display-p3 0.4353 0.0039 0.9843);stop-opacity:1;"/>
<stop offset="1" stop-color="#FF49D7" style="stop-color:#FF49D7;stop-color:color(display-p3 1.0000 0.2863 0.8431);stop-opacity:1;"/>
</linearGradient>
<clipPath id="clip0_10138_1705">
<rect width="66" height="66" fill="white" style="fill:white;fill-opacity:1;" transform="translate(16 16)"/>
</clipPath>
<clipPath id="clip1_10138_1705">
<rect width="190" height="28" fill="white" style="fill:white;fill-opacity:1;" transform="translate(98 35)"/>
</clipPath>
</defs>
</svg>
