<svg width="34" height="35" viewBox="0 0 34 35" fill="none" xmlns="http://www.w3.org/2000/svg">
<path d="M13.9006 34.2485C10.8872 33.6255 8.07557 32.2358 5.86826 30.2786C0.20139 25.2538 -1.54991 17.36 1.4437 10.3366C2.1789 8.61171 3.37404 6.86115 4.8549 5.34037L6.16049 3.99972L6.25258 11.8467C6.34073 19.358 6.36062 19.7362 6.7163 20.6827C7.42835 22.5764 8.1915 23.7818 9.50549 25.0882C12.8995 28.463 17.878 29.3054 22.1104 27.2208C26.0882 25.2615 28.5959 21.001 28.3046 16.6976C28.1087 13.8069 27.135 11.6873 25.033 9.57534C23.4432 7.97836 21.5731 6.93512 19.5371 6.50981C17.4654 6.07713 17.5649 6.01395 17.5649 7.76451V9.27587L18.7005 9.48476C23.0989 10.2939 26.0077 14.606 25.0909 18.9579C24.7982 20.3477 24.145 21.5751 23.0966 22.7057C21.5034 24.4237 19.2618 25.2449 17.3046 25.2413C14.0681 25.235 11.3657 23.399 10.056 20.6836C10.056 20.6836 9.713 19.9076 9.60256 19.4279C8.95414 16.6075 9.36881 10.6705 9.36881 10.6705L9.31856 1.98925L9.83185 1.7242C10.1141 1.57849 10.3849 1.45915 10.4336 1.45915C10.4822 1.45915 10.5439 5.44653 10.5708 10.3198C10.5708 10.3198 9.94743 16.708 10.7176 19.1561C10.8287 19.5094 11.0399 20.1136 11.0399 20.1136C11.715 21.4871 12.7973 22.6953 14.2036 23.3603C15.271 23.865 15.8084 24.0936 17.3876 24.0936C18.4194 24.0936 19.3335 23.7683 20.3853 23.2855C21.6252 22.7162 23.0474 21.2067 23.573 19.8285C25.0211 16.0314 23.0047 11.9461 19.1202 10.8069C17.5326 10.3414 17.5651 10.3159 17.5651 12.0394V13.5447L18.327 13.7483C21.074 14.4818 21.9121 18.1578 19.7557 20.0465C18.9938 20.7139 18.3073 21.0087 17.1065 21.0087C15.8232 21.0087 14.5915 20.2333 13.9582 19.044C13.5778 18.3295 13.5457 17.652 13.5457 17.3414C13.5457 14.4745 13.4835 9.31799 13.4835 9.31799L13.432 0.473263L13.8265 0.375496C14.0432 0.32139 14.9201 0.188352 15.7745 0.0794559C18.6727 -0.289695 22.9605 0.657153 25.8411 2.30275C29.7683 4.54608 32.7398 8.39991 33.9771 12.8544C34.4028 14.3866 34.4501 14.832 34.4501 17.2969C34.4501 19.7506 34.4016 20.211 33.985 21.7095C32.3023 27.7637 28.0216 32.0915 21.901 33.927C20.6127 34.3134 20.0094 34.387 17.7364 34.4355C15.9021 34.4745 14.7131 34.4167 13.9006 34.2485Z" fill="#111111" style="fill:#111111;fill:color(display-p3 0.0667 0.0667 0.0667);fill-opacity:1;"/>
</svg>
