<svg width="30" height="30" viewBox="0 0 30 30" fill="none" xmlns="http://www.w3.org/2000/svg">
<path d="M7.125 0.75C10.6458 0.75 13.5 3.60419 13.5 7.125V13.5H7.125C3.60419 13.5 0.75 10.6458 0.75 7.125C0.75 3.60419 3.60419 0.75 7.125 0.75ZM7.125 16.5H13.5V22.875C13.5 26.3958 10.6458 29.25 7.125 29.25C3.60419 29.25 0.75 26.3958 0.75 22.875C0.75 19.3542 3.60419 16.5 7.125 16.5ZM22.875 0.75C26.3958 0.75 29.25 3.60419 29.25 7.125C29.25 10.6458 26.3958 13.5 22.875 13.5H16.5V7.125C16.5 3.60419 19.3542 0.75 22.875 0.75ZM16.5 16.5H22.875C26.3958 16.5 29.25 19.3542 29.25 22.875C29.25 26.3958 26.3958 29.25 22.875 29.25C19.3542 29.25 16.5 26.3958 16.5 22.875V16.5Z" fill="#111111" style="fill:#111111;fill:color(display-p3 0.0667 0.0667 0.0667);fill-opacity:1;"/>
</svg>
