<svg width="36" height="36" viewBox="0 0 36 36" fill="none" xmlns="http://www.w3.org/2000/svg">
<g filter="url(#filter0_d_8186_3084)">
<path d="M18 28.6627C11.5567 28.6627 6.33337 23.4393 6.33337 16.996C6.33337 10.5527 11.5567 5.32935 18 5.32935C24.4433 5.32935 29.6667 10.5527 29.6667 16.996C29.6667 23.4393 24.4433 28.6627 18 28.6627ZM10.2171 22.1589C11.8911 24.662 14.7435 26.3101 17.9809 26.3101C23.1355 26.3101 27.3142 22.1315 27.3142 16.9768C27.3142 13.7394 25.6659 10.8869 23.1627 9.21291C24.149 12.7453 23.253 16.6928 20.4749 19.471C17.6968 22.2491 13.7494 23.145 10.2171 22.1589Z" fill="#FFFCFA" style="fill:#FFFCFA;fill:color(display-p3 1.0000 0.9882 0.9804);fill-opacity:1;"/>
</g>
<defs>
<filter id="filter0_d_8186_3084" x="0.333374" y="0.329346" width="35.3334" height="35.3334" filterUnits="userSpaceOnUse" color-interpolation-filters="sRGB">
<feFlood flood-opacity="0" result="BackgroundImageFix"/>
<feColorMatrix in="SourceAlpha" type="matrix" values="0 0 0 0 0 0 0 0 0 0 0 0 0 0 0 0 0 0 127 0" result="hardAlpha"/>
<feOffset dy="1"/>
<feGaussianBlur stdDeviation="3"/>
<feComposite in2="hardAlpha" operator="out"/>
<feColorMatrix type="matrix" values="0 0 0 0 0 0 0 0 0 0 0 0 0 0 0 0 0 0 0.2 0"/>
<feBlend mode="multiply" in2="BackgroundImageFix" result="effect1_dropShadow_8186_3084"/>
<feBlend mode="normal" in="SourceGraphic" in2="effect1_dropShadow_8186_3084" result="shape"/>
</filter>
</defs>
</svg>
