<svg width="40" height="38" viewBox="0 0 40 38" fill="none" xmlns="http://www.w3.org/2000/svg">
<g filter="url(#filter0_d_8283_1129)">
<path d="M19.9984 5.58337L24.9287 12.7974L33.3132 15.2571L27.9758 22.1754L28.2273 30.9096L19.9984 27.9714L11.7694 30.9096L12.021 22.1754L6.68359 15.2571L15.0681 12.7974L19.9984 5.58337ZM17.6651 19H15.3317C15.3317 21.5773 17.4211 23.6667 19.9984 23.6667C22.4976 23.6667 24.538 21.702 24.6593 19.2329L24.665 19H22.3317C22.3317 20.2887 21.2871 21.3334 19.9984 21.3334C18.7684 21.3334 17.7606 20.3815 17.6714 19.1742L17.6651 19Z" fill="#FFFCFA" style="fill:#FFFCFA;fill:color(display-p3 1.0000 0.9882 0.9804);fill-opacity:1;"/>
</g>
<defs>
<filter id="filter0_d_8283_1129" x="0.683594" y="0.583374" width="38.6299" height="37.3263" filterUnits="userSpaceOnUse" color-interpolation-filters="sRGB">
<feFlood flood-opacity="0" result="BackgroundImageFix"/>
<feColorMatrix in="SourceAlpha" type="matrix" values="0 0 0 0 0 0 0 0 0 0 0 0 0 0 0 0 0 0 127 0" result="hardAlpha"/>
<feOffset dy="1"/>
<feGaussianBlur stdDeviation="3"/>
<feComposite in2="hardAlpha" operator="out"/>
<feColorMatrix type="matrix" values="0 0 0 0 0 0 0 0 0 0 0 0 0 0 0 0 0 0 0.2 0"/>
<feBlend mode="multiply" in2="BackgroundImageFix" result="effect1_dropShadow_8283_1129"/>
<feBlend mode="normal" in="SourceGraphic" in2="effect1_dropShadow_8283_1129" result="shape"/>
</filter>
</defs>
</svg>
