<svg width="36" height="36" viewBox="0 0 36 36" fill="none" xmlns="http://www.w3.org/2000/svg">
<g filter="url(#filter0_d_8283_1723)">
<path d="M17.9997 28.6667C11.5563 28.6667 6.33301 23.4433 6.33301 17C6.33301 10.5567 11.5563 5.33337 17.9997 5.33337C24.4429 5.33337 29.6663 10.5567 29.6663 17C29.6663 23.4433 24.4429 28.6667 17.9997 28.6667ZM12.1663 17C12.1663 20.2217 14.778 22.8334 17.9997 22.8334C21.2213 22.8334 23.833 20.2217 23.833 17H21.4997C21.4997 18.9331 19.9327 20.5 17.9997 20.5C16.0666 20.5 14.4997 18.9331 14.4997 17H12.1663Z" fill="#FFFCFA" style="fill:#FFFCFA;fill:color(display-p3 1.0000 0.9882 0.9804);fill-opacity:1;"/>
</g>
<defs>
<filter id="filter0_d_8283_1723" x="0.333008" y="0.333374" width="35.333" height="35.3334" filterUnits="userSpaceOnUse" color-interpolation-filters="sRGB">
<feFlood flood-opacity="0" result="BackgroundImageFix"/>
<feColorMatrix in="SourceAlpha" type="matrix" values="0 0 0 0 0 0 0 0 0 0 0 0 0 0 0 0 0 0 127 0" result="hardAlpha"/>
<feOffset dy="1"/>
<feGaussianBlur stdDeviation="3"/>
<feComposite in2="hardAlpha" operator="out"/>
<feColorMatrix type="matrix" values="0 0 0 0 0 0 0 0 0 0 0 0 0 0 0 0 0 0 0.2 0"/>
<feBlend mode="multiply" in2="BackgroundImageFix" result="effect1_dropShadow_8283_1723"/>
<feBlend mode="normal" in="SourceGraphic" in2="effect1_dropShadow_8283_1723" result="shape"/>
</filter>
</defs>
</svg>
