<svg width="30" height="36" viewBox="0 0 30 36" fill="none" xmlns="http://www.w3.org/2000/svg">
<g filter="url(#filter0_d_8283_1543)">
<path d="M7.99967 5.33337H21.9997C22.644 5.33337 23.1663 5.85571 23.1663 6.50004V27.5C23.1663 28.1444 22.644 28.6667 21.9997 28.6667H7.99967C7.35535 28.6667 6.83301 28.1444 6.83301 27.5V6.50004C6.83301 5.85571 7.35535 5.33337 7.99967 5.33337ZM14.9997 22.8334C14.3553 22.8334 13.833 23.3557 13.833 24C13.833 24.6444 14.3553 25.1667 14.9997 25.1667C15.644 25.1667 16.1663 24.6444 16.1663 24C16.1663 23.3557 15.644 22.8334 14.9997 22.8334Z" fill="#FFFCFA" style="fill:#FFFCFA;fill:color(display-p3 1.0000 0.9882 0.9804);fill-opacity:1;"/>
</g>
<defs>
<filter id="filter0_d_8283_1543" x="0.833008" y="0.333374" width="28.333" height="35.3334" filterUnits="userSpaceOnUse" color-interpolation-filters="sRGB">
<feFlood flood-opacity="0" result="BackgroundImageFix"/>
<feColorMatrix in="SourceAlpha" type="matrix" values="0 0 0 0 0 0 0 0 0 0 0 0 0 0 0 0 0 0 127 0" result="hardAlpha"/>
<feOffset dy="1"/>
<feGaussianBlur stdDeviation="3"/>
<feComposite in2="hardAlpha" operator="out"/>
<feColorMatrix type="matrix" values="0 0 0 0 0 0 0 0 0 0 0 0 0 0 0 0 0 0 0.2 0"/>
<feBlend mode="multiply" in2="BackgroundImageFix" result="effect1_dropShadow_8283_1543"/>
<feBlend mode="normal" in="SourceGraphic" in2="effect1_dropShadow_8283_1543" result="shape"/>
</filter>
</defs>
</svg>
