<svg width="36" height="36" viewBox="0 0 36 36" fill="none" xmlns="http://www.w3.org/2000/svg">
<g clip-path="url(#clip0_6394_13671)">
<path d="M2.55859 17.9996C2.55859 24.1117 6.1107 29.3937 11.2615 31.8968L3.89552 11.7153C3.03871 13.6358 2.55859 15.761 2.55859 17.9996Z" fill="#111111" style="fill:#111111;fill:color(display-p3 0.0667 0.0667 0.0667);fill-opacity:1;"/>
<path d="M28.4242 17.2203C28.4242 15.312 27.7387 13.9903 27.1507 12.9617C26.368 11.6897 25.6343 10.6126 25.6343 9.3406C25.6343 7.92115 26.7109 6.59983 28.2273 6.59983C28.2958 6.59983 28.3607 6.60835 28.4274 6.61217C25.6801 4.09528 22.0199 2.55859 17.9997 2.55859C12.605 2.55859 7.85877 5.3264 5.09766 9.51866C5.45995 9.52953 5.80138 9.53717 6.09139 9.53717C7.70657 9.53717 10.2068 9.34119 10.2068 9.34119C11.0392 9.29212 11.1373 10.5147 10.3058 10.6131C10.3058 10.6131 9.46925 10.7116 8.5384 10.7604L14.1617 27.4862L17.541 17.3514L15.1352 10.7598C14.3036 10.711 13.5159 10.6126 13.5159 10.6126C12.6837 10.5638 12.7813 9.29153 13.6134 9.3406C13.6134 9.3406 16.1636 9.53658 17.6809 9.53658C19.2958 9.53658 21.7963 9.3406 21.7963 9.3406C22.6293 9.29153 22.7271 10.5141 21.8953 10.6126C21.8953 10.6126 21.057 10.711 20.1279 10.7598L25.7083 27.359L27.2486 22.2121C27.9162 20.0763 28.4242 18.5422 28.4242 17.2203Z" fill="#111111" style="fill:#111111;fill:color(display-p3 0.0667 0.0667 0.0667);fill-opacity:1;"/>
<path d="M18.2718 19.3503L13.6387 32.813C15.022 33.2196 16.485 33.4421 18.0009 33.4421C19.7991 33.4421 21.5236 33.1312 23.1288 32.5668C23.0873 32.5007 23.0497 32.4304 23.0189 32.354L18.2718 19.3503Z" fill="#111111" style="fill:#111111;fill:color(display-p3 0.0667 0.0667 0.0667);fill-opacity:1;"/>
<path d="M31.5506 10.5911C31.6171 11.0829 31.6547 11.6109 31.6547 12.1789C31.6547 13.7458 31.362 15.5073 30.4805 17.7098L25.7637 31.347C30.3545 28.67 33.4423 23.6964 33.4423 17.9998C33.4426 15.3151 32.7568 12.7906 31.5506 10.5911Z" fill="#111111" style="fill:#111111;fill:color(display-p3 0.0667 0.0667 0.0667);fill-opacity:1;"/>
<path d="M18.0006 0C8.07532 0 0 8.07453 0 17.9996C0 27.9258 8.07532 36 18.0006 36C27.9256 36 36.0021 27.9258 36.0021 17.9996C36.0018 8.07453 27.9256 0 18.0006 0ZM18.0006 35.1749C8.53046 35.1749 0.825367 27.47 0.825367 17.9996C0.825367 8.52966 8.53017 0.825347 18.0006 0.825347C27.4704 0.825347 35.1749 8.52966 35.1749 17.9996C35.1749 27.47 27.4704 35.1749 18.0006 35.1749Z" fill="#111111" style="fill:#111111;fill:color(display-p3 0.0667 0.0667 0.0667);fill-opacity:1;"/>
</g>
<defs>
<clipPath id="clip0_6394_13671">
<rect width="36" height="36" fill="white" style="fill:white;fill-opacity:1;"/>
</clipPath>
</defs>
</svg>
