<svg width="499" height="133" viewBox="0 0 499 133" fill="none" xmlns="http://www.w3.org/2000/svg">
<path d="M1 130L49.1265 124.556C49.8772 124.471 50.5159 123.971 50.7778 123.262L73.428 61.9629C74.0684 60.2298 76.5152 60.2175 77.173 61.944L90.5829 97.1406C90.9487 98.1006 91.9822 98.6274 92.9739 98.3592L143.596 84.6724C144.206 84.5074 144.858 84.6405 145.355 85.0313L193.732 123.096C194.641 123.811 195.966 123.608 196.619 122.654L217.493 92.1643C217.996 91.4292 218.925 91.1155 219.771 91.3951L240.745 98.3272C241.636 98.6218 242.612 98.257 243.091 97.4501L275.746 42.5108C276.564 41.1351 278.586 41.2293 279.272 42.675L294.25 74.224C294.725 75.2241 295.922 75.6483 296.92 75.1702L369.962 40.2031C371.001 39.7057 372.245 40.1867 372.678 41.254L392.606 90.2829C393.163 91.6525 394.962 91.9656 395.949 90.8645L441.994 39.4771C442.108 39.35 442.238 39.2381 442.38 39.1439L497 3" stroke="#A50301" stroke-width="5"/>
</svg>
