<svg width="24" height="24" viewBox="0 0 24 24" fill="none" xmlns="http://www.w3.org/2000/svg">
<path d="M23.6114 2.51526C24.0019 2.90582 24.0018 3.53894 23.6113 3.92942L16.2951 11.2448C15.9045 11.6353 15.9045 12.2685 16.295 12.659L23.6113 19.9754C24.0018 20.3658 24.0019 20.9989 23.6114 21.3895L21.3897 23.6118C20.9992 24.0024 20.366 24.0024 19.9754 23.6119L12.6593 16.2957C12.2687 15.9052 11.6356 15.9052 11.245 16.2957L3.92888 23.6119C3.53832 24.0024 2.90508 24.0024 2.51457 23.6118L0.292813 21.3894C-0.0976061 20.9989 -0.0975807 20.3659 0.292869 19.9754L7.6084 12.659C7.99889 12.2685 7.99887 11.6353 7.60836 11.2448L0.292948 3.92942C-0.0975391 3.53893 -0.0975814 2.90584 0.292853 2.5153L2.51457 0.292988C2.90508 -0.0976258 3.53832 -0.097668 3.92888 0.292893L11.245 7.60905C11.6356 7.99958 12.2687 7.99958 12.6593 7.60905L19.9754 0.292894C20.366 -0.0976677 20.9992 -0.0976254 21.3897 0.292988L23.6114 2.51526Z" fill="black"/>
</svg>
