<svg width="58" height="29" viewBox="0 0 58 29" fill="none" xmlns="http://www.w3.org/2000/svg">
<path d="M0 0.876624V4.38312C0 4.86702 0.39176 5.25975 0.874465 5.25975H19.3257C19.999 5.25975 20.4188 5.99085 20.083 6.57468L8.16751 27.2648C7.83171 27.8486 8.25146 28.5797 8.92479 28.5797H12.9631C13.2761 28.5797 13.5647 28.4132 13.7204 28.1414L26.7814 5.46312C26.8583 5.32988 26.8986 5.1791 26.8986 5.02481V0.876624C26.8986 0.392728 26.5068 0 26.0241 0H0.874465C0.39176 0 0 0.392728 0 0.876624Z" fill="#F8F8FF"/>
<path d="M31.1014 0.884328V4.37566C31.1014 4.8638 31.4932 5.25998 31.9759 5.25998H41.0529C41.5356 5.25998 41.9273 5.65616 41.9273 6.14431V27.6954C41.9273 28.1835 42.3191 28.5797 42.8018 28.5797H46.2996C46.7823 28.5797 47.1741 28.1835 47.1741 27.6954V6.14431C47.1741 5.65616 47.5659 5.25998 48.0486 5.25998H57.1255C57.6082 5.25998 58 4.8638 58 4.37566V0.884328C58 0.396179 57.6082 0 57.1255 0H31.9759C31.4932 0 31.1014 0.396179 31.1014 0.884328Z" fill="#F8F8FF"/>
<path d="M42.628 0.442164L34.9149 14.0803C34.5822 14.6692 33.7472 14.6692 33.4145 14.0803L31.268 10.2847C31.1138 10.0106 30.8279 9.84257 30.5178 9.84257H28.314C28.0039 9.84257 27.7181 10.0106 27.5639 10.2847L22.4253 19.3721C22.0926 19.961 21.2576 19.961 20.9249 19.3721L17.9069 14.0343C17.5743 13.4453 16.7392 13.4453 16.4065 14.0343L14.4055 17.5716C14.2513 17.8457 14.2513 18.1818 14.4055 18.4559L19.8802 28.1375C20.0344 28.4117 20.3203 28.5797 20.6304 28.5797H22.7163C23.0264 28.5797 23.3123 28.4117 23.4665 28.1375L28.6657 18.9476C28.9984 18.3586 29.8335 18.3586 30.1661 18.9476L32.3317 22.775C32.4859 23.0491 32.7718 23.2171 33.0819 23.2171H35.2423C35.5525 23.2171 35.8383 23.0491 35.9925 22.775L48.7299 0.265298C48.7974 0.146798 48.7126 0 48.5791 0H43.3782C43.0681 0 42.7822 0.168022 42.628 0.442164Z" fill="#A50301"/>
</svg>
