<svg width="518" height="202" viewBox="0 0 518 202" fill="none" xmlns="http://www.w3.org/2000/svg">
<path d="M2 194L46.6149 161.024C47.411 160.435 48.5179 160.518 49.2179 161.218L75.5866 187.587C75.8565 187.857 76.1982 188.044 76.571 188.126L124.189 198.602C125.21 198.826 126.233 198.226 126.534 197.224L151.384 114.548C151.718 113.44 152.919 112.844 154.002 113.251L187.329 125.748C187.763 125.911 188.24 125.918 188.678 125.768L225.558 113.164C226.622 112.8 227.777 113.385 228.114 114.458L241.79 158.108C242.328 159.825 244.682 160.014 245.487 158.406L277.319 94.8589C277.722 94.0558 278.61 93.6194 279.492 93.7919L326.635 103.019C327.456 103.179 328.289 102.812 328.726 102.099L360.424 50.2592C361.013 49.2964 362.281 49.0111 363.226 49.6288L413.897 82.7784C414.566 83.2162 415.432 83.2133 416.098 82.7709L475.823 43.1176C475.941 43.0394 476.05 42.949 476.148 42.8478L515.5 2.5" stroke="#A50301" stroke-width="5"/>
</svg>
