<svg width="497" height="285" viewBox="0 0 497 285" fill="none" xmlns="http://www.w3.org/2000/svg">
<path d="M1.55469 277L58.4463 250.626C59.248 250.255 60.1985 250.453 60.7844 251.114L87.9855 281.814C88.9179 282.866 90.6163 282.653 91.2603 281.404L128.233 209.654C128.714 208.722 129.832 208.319 130.796 208.73L155.739 219.375C156.595 219.741 157.591 219.467 158.14 218.714L245.915 98.283C246.727 97.1683 248.398 97.1913 249.179 98.328L290.878 158.984C291.595 160.026 293.086 160.15 293.965 159.24L380.932 69.2287C381.375 68.7706 382.009 68.5508 382.641 68.6367L450.082 77.817C450.894 77.9275 451.691 77.5318 452.094 76.8184L494.607 1.5" stroke="#A50301" stroke-width="5"/>
</svg>
