<svg width="59" height="52" viewBox="0 0 59 52" fill="none" xmlns="http://www.w3.org/2000/svg">
<path d="M37.8118 11.9068C31.9862 18.8133 30.183 22.3994 27.6862 29.0403C25.1895 35.6812 24.6347 49.2285 20.1961 50.6895C15.7574 52.1505 8.83325 26.8109 8.01478 16.2059M21.6167 45.9889C24.8923 43.4291 9.95979 45.0249 9.79091 49.0702C9.54963 54.8498 42.5279 35.814 24.8921 35.3686C22.4706 35.3074 20.2655 35.2953 18.2296 35.3806M18.2296 35.3806C11.9517 35.3686 7.26923 37.4305 4.95495 38.8757C2.47486 40.4243 3.13903 41.3667 5.64558 40.4755C9.98086 38.934 14.1841 37.2892 18.2296 35.3806ZM18.2296 35.3806C23.2266 33.023 27.9829 30.263 32.45 26.7982C34.3801 25.3012 37.2179 21.4697 35.1551 20.1415C33.1367 18.842 30.4684 18.4273 27.5081 18.6169M27.5081 18.6169C15.0377 19.4159 -2.61504 30.9399 1.30666 32.2279C6.15933 33.8217 18.0362 26.5463 23.0816 22.1338C24.4256 20.9583 25.9139 19.7838 27.5081 18.6169ZM27.5081 18.6169C36.5166 12.023 48.9061 5.6707 57.75 0.750135" stroke="#F0EFED" style="stroke:#F0EFED;stroke:color(display-p3 0.9412 0.9373 0.9294);stroke-opacity:1;" stroke-width="1.5" stroke-linecap="round"/>
</svg>
