<svg width="1312" height="657" viewBox="0 0 1312 657" fill="none" xmlns="http://www.w3.org/2000/svg">
<g clip-path="url(#clip0_8005_134)">
<rect y="0.66748" width="1312" height="656" rx="85.3333" fill="url(#paint0_linear_8005_134)" style=""/>
<mask id="mask0_8005_134" style="mask-type:alpha" maskUnits="userSpaceOnUse" x="0" y="0" width="1312" height="657">
<rect y="0.66748" width="1312" height="656" fill="url(#paint1_linear_8005_134)" style=""/>
</mask>
<g mask="url(#mask0_8005_134)">
<mask id="mask1_8005_134" style="mask-type:alpha" maskUnits="userSpaceOnUse" x="-4" y="-33" width="1369" height="721">
<path d="M1312 223.822C1173.67 49.8294 1171 -73.8054 863.501 172.294C556 418.393 747.165 620.667 575.333 620.667C364.421 607.283 389.568 223.822 -3.91006e-05 203.746" stroke="black" style="stroke:black;stroke-opacity:1;" stroke-width="133.333"/>
</mask>
<g mask="url(#mask1_8005_134)">
<path d="M1305.33 656.667C1309.78 656.667 1314.22 656.667 1318.67 656.667C1318.6 645.734 1318.53 634.801 1318.46 623.867C1317.21 427.068 1315.96 230.267 1314.71 33.4675C1314.64 22.5341 1314.57 11.6009 1314.5 0.667508C1312.83 0.667508 1311.17 0.667508 1309.5 0.667508C1309.43 11.6009 1309.36 22.5341 1309.29 33.4675C1308.04 230.267 1306.79 427.068 1305.54 623.867C1305.47 634.801 1305.4 645.734 1305.33 656.667Z" fill="#3A63F7" style="fill:#3A63F7;fill:color(display-p3 0.2259 0.3865 0.9669);fill-opacity:1;"/>
<path d="M1278 656.667C1282.44 656.667 1286.89 656.667 1291.33 656.667C1291.26 645.734 1291.19 634.801 1291.12 623.867C1289.87 427.068 1288.62 230.267 1287.37 33.4675C1287.31 22.5341 1287.24 11.6009 1287.17 0.667508C1285.5 0.667508 1283.83 0.667508 1282.17 0.667508C1282.1 11.6009 1282.03 22.5341 1281.96 33.4675C1280.71 230.267 1279.46 427.068 1278.21 623.867C1278.14 634.801 1278.07 645.734 1278 656.667Z" fill="#3A63F7" style="fill:#3A63F7;fill:color(display-p3 0.2259 0.3865 0.9669);fill-opacity:1;"/>
<path d="M1250.67 656.667C1255.11 656.667 1259.56 656.667 1264 656.667C1263.93 645.734 1263.86 634.801 1263.79 623.867C1262.54 427.068 1261.29 230.267 1260.04 33.4675C1259.97 22.5341 1259.9 11.6009 1259.83 0.667508C1258.17 0.667508 1256.5 0.667508 1254.83 0.667508C1254.76 11.6009 1254.69 22.5341 1254.63 33.4675C1253.38 230.267 1252.13 427.068 1250.88 623.867C1250.81 634.801 1250.74 645.734 1250.67 656.667Z" fill="#3A63F7" style="fill:#3A63F7;fill:color(display-p3 0.2259 0.3865 0.9669);fill-opacity:1;"/>
<path d="M1223.33 656.667C1227.78 656.667 1232.22 656.667 1236.67 656.667C1236.6 645.734 1236.53 634.801 1236.46 623.867C1235.21 427.068 1233.96 230.267 1232.71 33.4675C1232.64 22.5341 1232.57 11.6009 1232.5 0.667508C1230.83 0.667508 1229.17 0.667508 1227.5 0.667508C1227.43 11.6009 1227.36 22.5341 1227.29 33.4675C1226.04 230.267 1224.79 427.068 1223.54 623.867C1223.47 634.801 1223.4 645.734 1223.33 656.667Z" fill="#3A63F7" style="fill:#3A63F7;fill:color(display-p3 0.2259 0.3865 0.9669);fill-opacity:1;"/>
<path d="M1196 656.667C1200.44 656.667 1204.89 656.667 1209.33 656.667C1209.26 645.734 1209.19 634.801 1209.12 623.867C1207.87 427.068 1206.62 230.267 1205.37 33.4675C1205.31 22.5341 1205.24 11.6009 1205.17 0.667508C1203.5 0.667508 1201.83 0.667508 1200.17 0.667508C1200.1 11.6009 1200.03 22.5341 1199.96 33.4675C1198.71 230.267 1197.46 427.068 1196.21 623.867C1196.14 634.801 1196.07 645.734 1196 656.667Z" fill="#3A63F7" style="fill:#3A63F7;fill:color(display-p3 0.2259 0.3865 0.9669);fill-opacity:1;"/>
<path d="M1168.67 656.667C1173.11 656.667 1177.56 656.667 1182 656.667C1181.93 645.734 1181.86 634.801 1181.79 623.867C1180.54 427.068 1179.29 230.267 1178.04 33.4675C1177.97 22.5341 1177.9 11.6009 1177.83 0.667508C1176.17 0.667508 1174.5 0.667508 1172.83 0.667508C1172.76 11.6009 1172.69 22.5341 1172.63 33.4675C1171.38 230.267 1170.13 427.068 1168.88 623.867C1168.81 634.801 1168.74 645.734 1168.67 656.667Z" fill="#3A63F7" style="fill:#3A63F7;fill:color(display-p3 0.2259 0.3865 0.9669);fill-opacity:1;"/>
<path d="M1141.33 656.667C1145.78 656.667 1150.22 656.667 1154.67 656.667C1154.6 645.734 1154.53 634.801 1154.46 623.867C1153.21 427.068 1151.96 230.267 1150.71 33.4675C1150.64 22.5341 1150.57 11.6009 1150.5 0.667508C1148.83 0.667508 1147.17 0.667508 1145.5 0.667508C1145.43 11.6009 1145.36 22.5341 1145.29 33.4675C1144.04 230.267 1142.79 427.068 1141.54 623.867C1141.47 634.801 1141.4 645.734 1141.33 656.667Z" fill="#3A63F7" style="fill:#3A63F7;fill:color(display-p3 0.2259 0.3865 0.9669);fill-opacity:1;"/>
<path d="M1114 656.667C1118.44 656.667 1122.89 656.667 1127.33 656.667C1127.26 645.734 1127.19 634.801 1127.12 623.867C1125.87 427.068 1124.62 230.267 1123.37 33.4675C1123.31 22.5341 1123.24 11.6009 1123.17 0.667508C1121.5 0.667508 1119.83 0.667508 1118.17 0.667508C1118.1 11.6009 1118.03 22.5341 1117.96 33.4675C1116.71 230.267 1115.46 427.068 1114.21 623.867C1114.14 634.801 1114.07 645.734 1114 656.667Z" fill="#3A63F7" style="fill:#3A63F7;fill:color(display-p3 0.2259 0.3865 0.9669);fill-opacity:1;"/>
<path d="M1086.67 656.667C1091.11 656.667 1095.56 656.667 1100 656.667C1099.93 645.734 1099.86 634.801 1099.79 623.867C1098.54 427.068 1097.29 230.267 1096.04 33.4675C1095.97 22.5341 1095.9 11.6009 1095.83 0.667508C1094.17 0.667508 1092.5 0.667508 1090.83 0.667508C1090.76 11.6009 1090.69 22.5341 1090.63 33.4675C1089.38 230.267 1088.13 427.068 1086.88 623.867C1086.81 634.801 1086.74 645.734 1086.67 656.667Z" fill="#3A63F7" style="fill:#3A63F7;fill:color(display-p3 0.2259 0.3865 0.9669);fill-opacity:1;"/>
<path d="M1059.33 656.667C1063.78 656.667 1068.22 656.667 1072.67 656.667C1072.6 645.734 1072.53 634.801 1072.46 623.867C1071.21 427.068 1069.96 230.267 1068.71 33.4675C1068.64 22.5341 1068.57 11.6009 1068.5 0.667508C1066.83 0.667508 1065.17 0.667508 1063.5 0.667508C1063.43 11.6009 1063.36 22.5341 1063.29 33.4675C1062.04 230.267 1060.79 427.068 1059.54 623.867C1059.47 634.801 1059.4 645.734 1059.33 656.667Z" fill="#3A63F7" style="fill:#3A63F7;fill:color(display-p3 0.2259 0.3865 0.9669);fill-opacity:1;"/>
<path d="M1032 656.667C1036.44 656.667 1040.89 656.667 1045.33 656.667C1045.26 645.734 1045.19 634.801 1045.12 623.867C1043.87 427.068 1042.62 230.267 1041.37 33.4675C1041.31 22.5341 1041.24 11.6009 1041.17 0.667508C1039.5 0.667508 1037.83 0.667508 1036.17 0.667508C1036.1 11.6009 1036.03 22.5341 1035.96 33.4675C1034.71 230.267 1033.46 427.068 1032.21 623.867C1032.14 634.801 1032.07 645.734 1032 656.667Z" fill="#3A63F7" style="fill:#3A63F7;fill:color(display-p3 0.2259 0.3865 0.9669);fill-opacity:1;"/>
<path d="M1004.67 656.667C1009.11 656.667 1013.56 656.667 1018 656.667C1017.93 645.734 1017.86 634.801 1017.79 623.867C1016.54 427.068 1015.29 230.267 1014.04 33.4675C1013.97 22.5341 1013.9 11.6009 1013.83 0.667508C1012.17 0.667508 1010.5 0.667508 1008.83 0.667508C1008.76 11.6009 1008.69 22.5341 1008.63 33.4675C1007.38 230.267 1006.13 427.068 1004.88 623.867C1004.81 634.801 1004.74 645.734 1004.67 656.667Z" fill="#3A63F7" style="fill:#3A63F7;fill:color(display-p3 0.2259 0.3865 0.9669);fill-opacity:1;"/>
<path d="M977.333 656.667C981.778 656.667 986.222 656.667 990.667 656.667C990.597 645.734 990.528 634.801 990.458 623.867C989.208 427.068 987.958 230.267 986.708 33.4675C986.639 22.5341 986.569 11.6009 986.5 0.667508C984.833 0.667508 983.167 0.667508 981.5 0.667508C981.431 11.6009 981.361 22.5341 981.292 33.4675C980.042 230.267 978.792 427.068 977.542 623.867C977.472 634.801 977.403 645.734 977.333 656.667Z" fill="#3A63F7" style="fill:#3A63F7;fill:color(display-p3 0.2259 0.3865 0.9669);fill-opacity:1;"/>
<path d="M950 656.667C954.444 656.667 958.889 656.667 963.333 656.667C963.264 645.734 963.194 634.801 963.125 623.867C961.875 427.068 960.625 230.267 959.375 33.4675C959.305 22.5341 959.236 11.6009 959.167 0.667508C957.5 0.667508 955.833 0.667508 954.167 0.667508C954.097 11.6009 954.028 22.5341 953.958 33.4675C952.708 230.267 951.458 427.068 950.208 623.867C950.139 634.801 950.069 645.734 950 656.667Z" fill="#3A63F7" style="fill:#3A63F7;fill:color(display-p3 0.2259 0.3865 0.9669);fill-opacity:1;"/>
<path d="M922.667 656.667C927.111 656.667 931.556 656.667 936 656.667C935.931 645.734 935.861 634.801 935.792 623.867C934.542 427.068 933.292 230.267 932.042 33.4675C931.972 22.5341 931.903 11.6009 931.833 0.667508C930.167 0.667508 928.5 0.667508 926.833 0.667508C926.764 11.6009 926.695 22.5341 926.625 33.4675C925.375 230.267 924.125 427.068 922.875 623.867C922.806 634.801 922.736 645.734 922.667 656.667Z" fill="#3A63F7" style="fill:#3A63F7;fill:color(display-p3 0.2259 0.3865 0.9669);fill-opacity:1;"/>
<path d="M895.333 656.667C899.778 656.667 904.222 656.667 908.667 656.667C908.597 645.734 908.528 634.801 908.458 623.867C907.208 427.068 905.958 230.267 904.708 33.4675C904.639 22.5341 904.569 11.6009 904.5 0.667508C902.833 0.667508 901.167 0.667508 899.5 0.667508C899.431 11.6009 899.361 22.5341 899.292 33.4675C898.042 230.267 896.792 427.068 895.542 623.867C895.472 634.801 895.403 645.734 895.333 656.667Z" fill="#3A63F7" style="fill:#3A63F7;fill:color(display-p3 0.2259 0.3865 0.9669);fill-opacity:1;"/>
<path d="M868 656.667C872.444 656.667 876.889 656.667 881.333 656.667C881.264 645.734 881.194 634.801 881.125 623.867C879.875 427.068 878.625 230.267 877.375 33.4675C877.305 22.5341 877.236 11.6009 877.167 0.667508C875.5 0.667508 873.833 0.667508 872.167 0.667508C872.097 11.6009 872.028 22.5341 871.958 33.4675C870.708 230.267 869.458 427.068 868.208 623.867C868.139 634.801 868.069 645.734 868 656.667Z" fill="#3A63F7" style="fill:#3A63F7;fill:color(display-p3 0.2259 0.3865 0.9669);fill-opacity:1;"/>
<path d="M840.667 656.667C845.111 656.667 849.556 656.667 854 656.667C853.931 645.734 853.861 634.801 853.792 623.867C852.542 427.068 851.292 230.267 850.042 33.4675C849.972 22.5341 849.903 11.6009 849.833 0.667508C848.167 0.667508 846.5 0.667508 844.833 0.667508C844.764 11.6009 844.695 22.5341 844.625 33.4675C843.375 230.267 842.125 427.068 840.875 623.867C840.806 634.801 840.736 645.734 840.667 656.667Z" fill="#3A63F7" style="fill:#3A63F7;fill:color(display-p3 0.2259 0.3865 0.9669);fill-opacity:1;"/>
<path d="M813.333 656.667C817.778 656.667 822.222 656.667 826.667 656.667C826.597 645.734 826.528 634.801 826.458 623.867C825.208 427.068 823.958 230.267 822.708 33.4675C822.639 22.5341 822.569 11.6009 822.5 0.667508C820.833 0.667508 819.167 0.667508 817.5 0.667508C817.431 11.6009 817.361 22.5341 817.292 33.4675C816.042 230.267 814.792 427.068 813.542 623.867C813.472 634.801 813.403 645.734 813.333 656.667Z" fill="#3A63F7" style="fill:#3A63F7;fill:color(display-p3 0.2259 0.3865 0.9669);fill-opacity:1;"/>
<path d="M786 656.667C790.444 656.667 794.889 656.667 799.333 656.667C799.264 645.734 799.194 634.801 799.125 623.867C797.875 427.068 796.625 230.267 795.375 33.4675C795.305 22.5341 795.236 11.6009 795.167 0.667508C793.5 0.667508 791.833 0.667508 790.167 0.667508C790.097 11.6009 790.028 22.5341 789.958 33.4675C788.708 230.267 787.458 427.068 786.208 623.867C786.139 634.801 786.069 645.734 786 656.667Z" fill="#3A63F7" style="fill:#3A63F7;fill:color(display-p3 0.2259 0.3865 0.9669);fill-opacity:1;"/>
<path d="M758.667 656.667C763.111 656.667 767.556 656.667 772 656.667C771.931 645.734 771.861 634.801 771.792 623.867C770.542 427.068 769.292 230.267 768.042 33.4675C767.972 22.5341 767.903 11.6009 767.833 0.667508C766.167 0.667508 764.5 0.667508 762.833 0.667508C762.764 11.6009 762.695 22.5341 762.625 33.4675C761.375 230.267 760.125 427.068 758.875 623.867C758.806 634.801 758.736 645.734 758.667 656.667Z" fill="#3A63F7" style="fill:#3A63F7;fill:color(display-p3 0.2259 0.3865 0.9669);fill-opacity:1;"/>
<path d="M731.333 656.667C735.778 656.667 740.222 656.667 744.667 656.667C744.597 645.734 744.528 634.801 744.458 623.867C743.208 427.068 741.958 230.267 740.708 33.4675C740.639 22.5341 740.569 11.6009 740.5 0.667508C738.833 0.667508 737.167 0.667508 735.5 0.667508C735.431 11.6009 735.361 22.5341 735.292 33.4675C734.042 230.267 732.792 427.068 731.542 623.867C731.472 634.801 731.403 645.734 731.333 656.667Z" fill="#3A63F7" style="fill:#3A63F7;fill:color(display-p3 0.2259 0.3865 0.9669);fill-opacity:1;"/>
<path d="M704 656.667C708.444 656.667 712.889 656.667 717.333 656.667C717.264 645.734 717.194 634.801 717.125 623.867C715.875 427.068 714.625 230.267 713.375 33.4675C713.305 22.5341 713.236 11.6009 713.167 0.667508C711.5 0.667508 709.833 0.667508 708.167 0.667508C708.097 11.6009 708.028 22.5341 707.958 33.4675C706.708 230.267 705.458 427.068 704.208 623.867C704.139 634.801 704.069 645.734 704 656.667Z" fill="#3A63F7" style="fill:#3A63F7;fill:color(display-p3 0.2259 0.3865 0.9669);fill-opacity:1;"/>
<path d="M676.667 656.667C681.111 656.667 685.556 656.667 690 656.667C689.931 645.734 689.861 634.801 689.792 623.867C688.542 427.068 687.292 230.267 686.042 33.4675C685.972 22.5341 685.903 11.6009 685.833 0.667508C684.167 0.667508 682.5 0.667508 680.833 0.667508C680.764 11.6009 680.695 22.5341 680.625 33.4675C679.375 230.267 678.125 427.068 676.875 623.867C676.806 634.801 676.736 645.734 676.667 656.667Z" fill="#3A63F7" style="fill:#3A63F7;fill:color(display-p3 0.2259 0.3865 0.9669);fill-opacity:1;"/>
<path d="M649.333 656.667C653.778 656.667 658.222 656.667 662.667 656.667C662.597 645.734 662.528 634.801 662.458 623.867C661.208 427.068 659.958 230.267 658.708 33.4675C658.639 22.5341 658.569 11.6009 658.5 0.667508C656.833 0.667508 655.167 0.667508 653.5 0.667508C653.431 11.6009 653.361 22.5341 653.292 33.4675C652.042 230.267 650.792 427.068 649.542 623.867C649.472 634.801 649.403 645.734 649.333 656.667Z" fill="#3A63F7" style="fill:#3A63F7;fill:color(display-p3 0.2259 0.3865 0.9669);fill-opacity:1;"/>
<path d="M622 656.667C626.444 656.667 630.889 656.667 635.333 656.667C635.264 645.734 635.194 634.801 635.125 623.867C633.875 427.068 632.625 230.267 631.375 33.4675C631.305 22.5341 631.236 11.6009 631.167 0.667508C629.5 0.667508 627.833 0.667508 626.167 0.667508C626.097 11.6009 626.028 22.5341 625.958 33.4675C624.708 230.267 623.458 427.068 622.208 623.867C622.139 634.801 622.069 645.734 622 656.667Z" fill="#3A63F7" style="fill:#3A63F7;fill:color(display-p3 0.2259 0.3865 0.9669);fill-opacity:1;"/>
<path d="M594.667 656.667C599.111 656.667 603.556 656.667 608 656.667C607.931 645.734 607.861 634.801 607.792 623.867C606.542 427.068 605.292 230.267 604.042 33.4675C603.972 22.5341 603.903 11.6009 603.833 0.667508C602.167 0.667508 600.5 0.667508 598.833 0.667508C598.764 11.6009 598.695 22.5341 598.625 33.4675C597.375 230.267 596.125 427.068 594.875 623.867C594.806 634.801 594.736 645.734 594.667 656.667Z" fill="#3A63F7" style="fill:#3A63F7;fill:color(display-p3 0.2259 0.3865 0.9669);fill-opacity:1;"/>
<path d="M567.333 656.667C571.778 656.667 576.222 656.667 580.667 656.667C580.597 645.734 580.528 634.801 580.458 623.867C579.208 427.068 577.958 230.267 576.708 33.4675C576.639 22.5341 576.569 11.6009 576.5 0.667508C574.833 0.667508 573.167 0.667508 571.5 0.667508C571.431 11.6009 571.361 22.5341 571.292 33.4675C570.042 230.267 568.792 427.068 567.542 623.867C567.472 634.801 567.403 645.734 567.333 656.667Z" fill="#3A63F7" style="fill:#3A63F7;fill:color(display-p3 0.2259 0.3865 0.9669);fill-opacity:1;"/>
<path d="M540 656.667C544.444 656.667 548.889 656.667 553.333 656.667C553.264 645.734 553.194 634.801 553.125 623.867C551.875 427.068 550.625 230.267 549.375 33.4675C549.305 22.5341 549.236 11.6009 549.167 0.667508C547.5 0.667508 545.833 0.667508 544.167 0.667508C544.097 11.6009 544.028 22.5341 543.958 33.4675C542.708 230.267 541.458 427.068 540.208 623.867C540.139 634.801 540.069 645.734 540 656.667Z" fill="#3A63F7" style="fill:#3A63F7;fill:color(display-p3 0.2259 0.3865 0.9669);fill-opacity:1;"/>
<path d="M512.667 656.667C517.111 656.667 521.556 656.667 526 656.667C525.931 645.734 525.861 634.801 525.792 623.867C524.542 427.068 523.292 230.267 522.042 33.4675C521.972 22.5341 521.903 11.6009 521.833 0.667508C520.167 0.667508 518.5 0.667508 516.833 0.667508C516.764 11.6009 516.695 22.5341 516.625 33.4675C515.375 230.267 514.125 427.068 512.875 623.867C512.806 634.801 512.736 645.734 512.667 656.667Z" fill="#3A63F7" style="fill:#3A63F7;fill:color(display-p3 0.2259 0.3865 0.9669);fill-opacity:1;"/>
<path d="M485.333 656.667C489.778 656.667 494.222 656.667 498.667 656.667C498.597 645.734 498.528 634.801 498.458 623.867C497.208 427.068 495.958 230.267 494.708 33.4675C494.639 22.5341 494.569 11.6009 494.5 0.667508C492.833 0.667508 491.167 0.667508 489.5 0.667508C489.431 11.6009 489.361 22.5341 489.292 33.4675C488.042 230.267 486.792 427.068 485.542 623.867C485.472 634.801 485.403 645.734 485.333 656.667Z" fill="#3A63F7" style="fill:#3A63F7;fill:color(display-p3 0.2259 0.3865 0.9669);fill-opacity:1;"/>
<path d="M458 656.667C462.444 656.667 466.889 656.667 471.333 656.667C471.264 645.734 471.194 634.801 471.125 623.867C469.875 427.068 468.625 230.267 467.375 33.4675C467.305 22.5341 467.236 11.6009 467.167 0.667508C465.5 0.667508 463.833 0.667508 462.167 0.667508C462.097 11.6009 462.028 22.5341 461.958 33.4675C460.708 230.267 459.458 427.068 458.208 623.867C458.139 634.801 458.069 645.734 458 656.667Z" fill="#3A63F7" style="fill:#3A63F7;fill:color(display-p3 0.2259 0.3865 0.9669);fill-opacity:1;"/>
<path d="M430.667 656.667C435.111 656.667 439.556 656.667 444 656.667C443.931 645.734 443.861 634.801 443.792 623.867C442.542 427.068 441.292 230.267 440.042 33.4675C439.972 22.5341 439.903 11.6009 439.833 0.667508C438.167 0.667508 436.5 0.667508 434.833 0.667508C434.764 11.6009 434.695 22.5341 434.625 33.4675C433.375 230.267 432.125 427.068 430.875 623.867C430.806 634.801 430.736 645.734 430.667 656.667Z" fill="#3A63F7" style="fill:#3A63F7;fill:color(display-p3 0.2259 0.3865 0.9669);fill-opacity:1;"/>
<path d="M403.333 656.667C407.778 656.667 412.222 656.667 416.667 656.667C416.597 645.734 416.528 634.801 416.458 623.867C415.208 427.068 413.958 230.267 412.708 33.4675C412.639 22.5341 412.569 11.6009 412.5 0.667508C410.833 0.667508 409.167 0.667508 407.5 0.667508C407.431 11.6009 407.361 22.5341 407.292 33.4675C406.042 230.267 404.792 427.068 403.542 623.867C403.472 634.801 403.403 645.734 403.333 656.667Z" fill="#3A63F7" style="fill:#3A63F7;fill:color(display-p3 0.2259 0.3865 0.9669);fill-opacity:1;"/>
<path d="M376 656.667C380.445 656.667 384.889 656.667 389.334 656.667C389.264 645.734 389.195 634.801 389.125 623.867C387.875 427.068 386.625 230.267 385.375 33.4675C385.306 22.5341 385.236 11.6009 385.167 0.667508C383.5 0.667508 381.834 0.667508 380.167 0.667508C380.098 11.6009 380.028 22.5341 379.959 33.4675C378.709 230.267 377.459 427.068 376.209 623.867C376.139 634.801 376.07 645.734 376 656.667Z" fill="#3A63F7" style="fill:#3A63F7;fill:color(display-p3 0.2259 0.3865 0.9669);fill-opacity:1;"/>
<path d="M348.667 656.667C353.111 656.667 357.556 656.667 362 656.667C361.931 645.734 361.861 634.801 361.792 623.867C360.542 427.068 359.292 230.267 358.042 33.4675C357.972 22.5341 357.903 11.6009 357.833 0.667508C356.167 0.667508 354.5 0.667508 352.833 0.667508C352.764 11.6009 352.695 22.5341 352.625 33.4675C351.375 230.267 350.125 427.068 348.875 623.867C348.806 634.801 348.736 645.734 348.667 656.667Z" fill="#3A63F7" style="fill:#3A63F7;fill:color(display-p3 0.2259 0.3865 0.9669);fill-opacity:1;"/>
<path d="M321.334 656.667C325.778 656.667 330.223 656.667 334.667 656.667C334.598 645.734 334.528 634.801 334.459 623.867C333.209 427.068 331.959 230.267 330.709 33.4675C330.639 22.5341 330.57 11.6009 330.5 0.667508C328.834 0.667508 327.167 0.667508 325.5 0.667508C325.431 11.6009 325.362 22.5341 325.292 33.4675C324.042 230.267 322.792 427.068 321.542 623.867C321.473 634.801 321.403 645.734 321.334 656.667Z" fill="#3A63F7" style="fill:#3A63F7;fill:color(display-p3 0.2259 0.3865 0.9669);fill-opacity:1;"/>
<path d="M294 656.667C298.445 656.667 302.889 656.667 307.334 656.667C307.264 645.734 307.195 634.801 307.125 623.867C305.875 427.068 304.625 230.267 303.375 33.4675C303.306 22.5341 303.236 11.6009 303.167 0.667508C301.5 0.667508 299.834 0.667508 298.167 0.667508C298.098 11.6009 298.028 22.5341 297.959 33.4675C296.709 230.267 295.459 427.068 294.209 623.867C294.139 634.801 294.07 645.734 294 656.667Z" fill="#3A63F7" style="fill:#3A63F7;fill:color(display-p3 0.2259 0.3865 0.9669);fill-opacity:1;"/>
<path d="M266.667 656.667C271.111 656.667 275.556 656.667 280 656.667C279.931 645.734 279.861 634.801 279.792 623.867C278.542 427.068 277.292 230.267 276.042 33.4675C275.972 22.5341 275.903 11.6009 275.833 0.667508C274.167 0.667508 272.5 0.667508 270.833 0.667508C270.764 11.6009 270.695 22.5341 270.625 33.4675C269.375 230.267 268.125 427.068 266.875 623.867C266.806 634.801 266.736 645.734 266.667 656.667Z" fill="#3A63F7" style="fill:#3A63F7;fill:color(display-p3 0.2259 0.3865 0.9669);fill-opacity:1;"/>
<path d="M239.333 656.667C243.778 656.667 248.222 656.667 252.667 656.667C252.597 645.734 252.528 634.801 252.458 623.867C251.208 427.068 249.958 230.267 248.708 33.4675C248.639 22.5341 248.569 11.6009 248.5 0.667508C246.833 0.667508 245.167 0.667508 243.5 0.667508C243.431 11.6009 243.361 22.5341 243.292 33.4675C242.042 230.267 240.792 427.068 239.542 623.867C239.472 634.801 239.403 645.734 239.333 656.667Z" fill="#3A63F7" style="fill:#3A63F7;fill:color(display-p3 0.2259 0.3865 0.9669);fill-opacity:1;"/>
<path d="M212 656.667C216.444 656.667 220.889 656.667 225.333 656.667C225.264 645.734 225.194 634.801 225.125 623.867C223.875 427.068 222.625 230.267 221.375 33.4675C221.305 22.5341 221.236 11.6009 221.167 0.667508C219.5 0.667508 217.833 0.667508 216.167 0.667508C216.097 11.6009 216.028 22.5341 215.958 33.4675C214.708 230.267 213.458 427.068 212.208 623.867C212.139 634.801 212.069 645.734 212 656.667Z" fill="#3A63F7" style="fill:#3A63F7;fill:color(display-p3 0.2259 0.3865 0.9669);fill-opacity:1;"/>
<path d="M184.667 656.667C189.111 656.667 193.556 656.667 198 656.667C197.931 645.734 197.861 634.801 197.792 623.867C196.542 427.068 195.292 230.267 194.042 33.4675C193.972 22.5341 193.903 11.6009 193.833 0.667508C192.167 0.667508 190.5 0.667508 188.833 0.667508C188.764 11.6009 188.695 22.5341 188.625 33.4675C187.375 230.267 186.125 427.068 184.875 623.867C184.806 634.801 184.736 645.734 184.667 656.667Z" fill="#3A63F7" style="fill:#3A63F7;fill:color(display-p3 0.2259 0.3865 0.9669);fill-opacity:1;"/>
<path d="M157.333 656.667C161.778 656.667 166.222 656.667 170.667 656.667C170.597 645.734 170.528 634.801 170.458 623.867C169.208 427.068 167.958 230.267 166.708 33.4675C166.639 22.5341 166.569 11.6009 166.5 0.667508C164.833 0.667508 163.167 0.667508 161.5 0.667508C161.431 11.6009 161.361 22.5341 161.292 33.4675C160.042 230.267 158.792 427.068 157.542 623.867C157.472 634.801 157.403 645.734 157.333 656.667Z" fill="#3A63F7" style="fill:#3A63F7;fill:color(display-p3 0.2259 0.3865 0.9669);fill-opacity:1;"/>
<path d="M130 656.667C134.444 656.667 138.889 656.667 143.333 656.667C143.264 645.734 143.194 634.801 143.125 623.867C141.875 427.068 140.625 230.267 139.375 33.4675C139.305 22.5341 139.236 11.6009 139.167 0.667508C137.5 0.667508 135.833 0.667508 134.167 0.667508C134.097 11.6009 134.028 22.5341 133.958 33.4675C132.708 230.267 131.458 427.068 130.208 623.867C130.139 634.801 130.069 645.734 130 656.667Z" fill="#3A63F7" style="fill:#3A63F7;fill:color(display-p3 0.2259 0.3865 0.9669);fill-opacity:1;"/>
<path d="M102.667 656.667C107.111 656.667 111.556 656.667 116 656.667C115.931 645.734 115.861 634.801 115.792 623.867C114.542 427.068 113.292 230.267 112.042 33.4675C111.972 22.5341 111.903 11.6009 111.833 0.667508C110.167 0.667508 108.5 0.667508 106.833 0.667508C106.764 11.6009 106.695 22.5341 106.625 33.4675C105.375 230.267 104.125 427.068 102.875 623.867C102.806 634.801 102.736 645.734 102.667 656.667Z" fill="#3A63F7" style="fill:#3A63F7;fill:color(display-p3 0.2259 0.3865 0.9669);fill-opacity:1;"/>
<path d="M75.3333 656.667C79.7778 656.667 84.2222 656.667 88.6667 656.667C88.5972 645.734 88.5278 634.801 88.4583 623.867C87.2083 427.068 85.9583 230.267 84.7083 33.4675C84.6389 22.5341 84.5694 11.6009 84.5 0.667508C82.8333 0.667508 81.1667 0.667508 79.5 0.667508C79.4306 11.6009 79.3611 22.5341 79.2917 33.4675C78.0417 230.267 76.7917 427.068 75.5417 623.867C75.4722 634.801 75.4028 645.734 75.3333 656.667Z" fill="#3A63F7" style="fill:#3A63F7;fill:color(display-p3 0.2259 0.3865 0.9669);fill-opacity:1;"/>
<path d="M47.9998 656.667C52.4443 656.667 56.8887 656.667 61.3332 656.667C61.2637 645.734 61.1943 634.801 61.1248 623.867C59.8748 427.068 58.6248 230.267 57.3748 33.4675C57.3054 22.5341 57.2359 11.6009 57.1665 0.667508C55.4998 0.667508 53.8332 0.667508 52.1665 0.667508C52.0971 11.6009 52.0276 22.5341 51.9582 33.4675C50.7082 230.267 49.4582 427.068 48.2082 623.867C48.1387 634.801 48.0693 645.734 47.9998 656.667Z" fill="#3A63F7" style="fill:#3A63F7;fill:color(display-p3 0.2259 0.3865 0.9669);fill-opacity:1;"/>
<path d="M20.6668 656.667C25.1113 656.667 29.5557 656.667 34.0002 656.667C33.9307 645.734 33.8613 634.801 33.7918 623.867C32.5418 427.068 31.2918 230.267 30.0418 33.4675C29.9724 22.5341 29.9029 11.6009 29.8335 0.667508C28.1668 0.667508 26.5002 0.667508 24.8335 0.667508C24.7641 11.6009 24.6946 22.5341 24.6252 33.4675C23.3752 230.267 22.1252 427.068 20.8752 623.867C20.8057 634.801 20.7363 645.734 20.6668 656.667Z" fill="#3A63F7" style="fill:#3A63F7;fill:color(display-p3 0.2259 0.3865 0.9669);fill-opacity:1;"/>
<path d="M-6.66667 656.667C-2.22222 656.667 2.22222 656.667 6.66667 656.667C6.59722 645.734 6.52778 634.801 6.45833 623.867C5.20833 427.068 3.95833 230.267 2.70833 33.4675C2.63889 22.5341 2.56944 11.6009 2.5 0.667508C0.833333 0.667508 -0.833333 0.667508 -2.5 0.667508C-2.56944 11.6009 -2.63889 22.5341 -2.70833 33.4675C-3.95833 230.267 -5.20833 427.068 -6.45833 623.867C-6.52778 634.801 -6.59722 645.734 -6.66667 656.667Z" fill="#3A63F7" style="fill:#3A63F7;fill:color(display-p3 0.2259 0.3865 0.9669);fill-opacity:1;"/>
</g>
<mask id="mask2_8005_134" style="mask-type:alpha" maskUnits="userSpaceOnUse" x="-53" y="-27" width="1369" height="718">
<path d="M0 434.999C138.334 608.182 140.999 731.241 448.499 486.288C756 241.334 564.835 40.001 736.667 40.001C947.579 53.3227 922.432 434.999 1312 454.982" stroke="black" style="stroke:black;stroke-opacity:1;" stroke-width="133.333"/>
</mask>
<g mask="url(#mask2_8005_134)">
<path d="M6.66667 0.66748C2.22222 0.66748 -2.22222 0.66748 -6.66667 0.66748C-6.59722 11.6008 -6.52778 22.5342 -6.45833 33.4675C-5.20833 230.267 -3.95833 427.067 -2.70833 623.867C-2.63889 634.801 -2.56944 645.734 -2.5 656.667C-0.833333 656.667 0.833333 656.667 2.5 656.667C2.56944 645.734 2.63889 634.801 2.70833 623.867C3.95833 427.067 5.20833 230.267 6.45833 33.4675C6.52778 22.5342 6.59722 11.6008 6.66667 0.66748Z" fill="#FF6600" style="fill:#FF6600;fill:color(display-p3 1.0000 0.3999 0.0000);fill-opacity:1;"/>
<path d="M34.0002 0.66748C29.5557 0.66748 25.1113 0.66748 20.6668 0.66748C20.7363 11.6008 20.8057 22.5342 20.8752 33.4675C22.1252 230.267 23.3752 427.067 24.6252 623.867C24.6946 634.801 24.7641 645.734 24.8335 656.667C26.5002 656.667 28.1668 656.667 29.8335 656.667C29.9029 645.734 29.9724 634.801 30.0418 623.867C31.2918 427.067 32.5418 230.267 33.7918 33.4675C33.8613 22.5342 33.9307 11.6008 34.0002 0.66748Z" fill="#FF6600" style="fill:#FF6600;fill:color(display-p3 1.0000 0.3999 0.0000);fill-opacity:1;"/>
<path d="M61.3332 0.66748C56.8887 0.66748 52.4443 0.66748 47.9998 0.66748C48.0693 11.6008 48.1387 22.5342 48.2082 33.4675C49.4582 230.267 50.7082 427.067 51.9582 623.867C52.0276 634.801 52.0971 645.734 52.1665 656.667C53.8332 656.667 55.4998 656.667 57.1665 656.667C57.2359 645.734 57.3054 634.801 57.3748 623.867C58.6248 427.067 59.8748 230.267 61.1248 33.4675C61.1943 22.5342 61.2637 11.6008 61.3332 0.66748Z" fill="#FF6600" style="fill:#FF6600;fill:color(display-p3 1.0000 0.3999 0.0000);fill-opacity:1;"/>
<path d="M88.6667 0.66748C84.2222 0.66748 79.7778 0.66748 75.3333 0.66748C75.4028 11.6008 75.4722 22.5342 75.5417 33.4675C76.7917 230.267 78.0417 427.067 79.2917 623.867C79.3611 634.801 79.4306 645.734 79.5 656.667C81.1667 656.667 82.8333 656.667 84.5 656.667C84.5694 645.734 84.6389 634.801 84.7083 623.867C85.9583 427.067 87.2083 230.267 88.4583 33.4675C88.5278 22.5342 88.5972 11.6008 88.6667 0.66748Z" fill="#FF6600" style="fill:#FF6600;fill:color(display-p3 1.0000 0.3999 0.0000);fill-opacity:1;"/>
<path d="M116 0.66748C111.556 0.66748 107.111 0.66748 102.667 0.66748C102.736 11.6008 102.806 22.5342 102.875 33.4675C104.125 230.267 105.375 427.067 106.625 623.867C106.695 634.801 106.764 645.734 106.833 656.667C108.5 656.667 110.167 656.667 111.833 656.667C111.903 645.734 111.972 634.801 112.042 623.867C113.292 427.067 114.542 230.267 115.792 33.4675C115.861 22.5342 115.931 11.6008 116 0.66748Z" fill="#FF6600" style="fill:#FF6600;fill:color(display-p3 1.0000 0.3999 0.0000);fill-opacity:1;"/>
<path d="M143.333 0.66748C138.889 0.66748 134.444 0.66748 130 0.66748C130.069 11.6008 130.139 22.5342 130.208 33.4675C131.458 230.267 132.708 427.067 133.958 623.867C134.028 634.801 134.097 645.734 134.167 656.667C135.833 656.667 137.5 656.667 139.167 656.667C139.236 645.734 139.305 634.801 139.375 623.867C140.625 427.067 141.875 230.267 143.125 33.4675C143.194 22.5342 143.264 11.6008 143.333 0.66748Z" fill="#FF6600" style="fill:#FF6600;fill:color(display-p3 1.0000 0.3999 0.0000);fill-opacity:1;"/>
<path d="M170.667 0.66748C166.222 0.66748 161.778 0.66748 157.333 0.66748C157.403 11.6008 157.472 22.5342 157.542 33.4675C158.792 230.267 160.042 427.067 161.292 623.867C161.361 634.801 161.431 645.734 161.5 656.667C163.167 656.667 164.833 656.667 166.5 656.667C166.569 645.734 166.639 634.801 166.708 623.867C167.958 427.067 169.208 230.267 170.458 33.4675C170.528 22.5342 170.597 11.6008 170.667 0.66748Z" fill="#FF6600" style="fill:#FF6600;fill:color(display-p3 1.0000 0.3999 0.0000);fill-opacity:1;"/>
<path d="M198 0.66748C193.556 0.66748 189.111 0.66748 184.667 0.66748C184.736 11.6008 184.806 22.5342 184.875 33.4675C186.125 230.267 187.375 427.067 188.625 623.867C188.695 634.801 188.764 645.734 188.833 656.667C190.5 656.667 192.167 656.667 193.833 656.667C193.903 645.734 193.972 634.801 194.042 623.867C195.292 427.067 196.542 230.267 197.792 33.4675C197.861 22.5342 197.931 11.6008 198 0.66748Z" fill="#FF6600" style="fill:#FF6600;fill:color(display-p3 1.0000 0.3999 0.0000);fill-opacity:1;"/>
<path d="M225.333 0.66748C220.889 0.66748 216.444 0.66748 212 0.66748C212.069 11.6008 212.139 22.5342 212.208 33.4675C213.458 230.267 214.708 427.067 215.958 623.867C216.028 634.801 216.097 645.734 216.167 656.667C217.833 656.667 219.5 656.667 221.167 656.667C221.236 645.734 221.305 634.801 221.375 623.867C222.625 427.067 223.875 230.267 225.125 33.4675C225.194 22.5342 225.264 11.6008 225.333 0.66748Z" fill="#FF6600" style="fill:#FF6600;fill:color(display-p3 1.0000 0.3999 0.0000);fill-opacity:1;"/>
<path d="M252.667 0.66748C248.222 0.66748 243.778 0.66748 239.333 0.66748C239.403 11.6008 239.472 22.5342 239.542 33.4675C240.792 230.267 242.042 427.067 243.292 623.867C243.361 634.801 243.431 645.734 243.5 656.667C245.167 656.667 246.833 656.667 248.5 656.667C248.569 645.734 248.639 634.801 248.708 623.867C249.958 427.067 251.208 230.267 252.458 33.4675C252.528 22.5342 252.597 11.6008 252.667 0.66748Z" fill="#FF6600" style="fill:#FF6600;fill:color(display-p3 1.0000 0.3999 0.0000);fill-opacity:1;"/>
<path d="M280 0.66748C275.556 0.66748 271.111 0.66748 266.667 0.66748C266.736 11.6008 266.806 22.5342 266.875 33.4675C268.125 230.267 269.375 427.067 270.625 623.867C270.695 634.801 270.764 645.734 270.833 656.667C272.5 656.667 274.167 656.667 275.833 656.667C275.903 645.734 275.972 634.801 276.042 623.867C277.292 427.067 278.542 230.267 279.792 33.4675C279.861 22.5342 279.931 11.6008 280 0.66748Z" fill="#FF6600" style="fill:#FF6600;fill:color(display-p3 1.0000 0.3999 0.0000);fill-opacity:1;"/>
<path d="M307.333 0.66748C302.889 0.66748 298.444 0.66748 294 0.66748C294.069 11.6008 294.139 22.5342 294.208 33.4675C295.458 230.267 296.708 427.067 297.958 623.867C298.028 634.801 298.097 645.734 298.167 656.667C299.833 656.667 301.5 656.667 303.167 656.667C303.236 645.734 303.305 634.801 303.375 623.867C304.625 427.067 305.875 230.267 307.125 33.4675C307.194 22.5342 307.264 11.6008 307.333 0.66748Z" fill="#FF6600" style="fill:#FF6600;fill:color(display-p3 1.0000 0.3999 0.0000);fill-opacity:1;"/>
<path d="M334.667 0.66748C330.222 0.66748 325.778 0.66748 321.333 0.66748C321.403 11.6008 321.472 22.5342 321.542 33.4675C322.792 230.267 324.042 427.067 325.292 623.867C325.361 634.801 325.431 645.734 325.5 656.667C327.167 656.667 328.833 656.667 330.5 656.667C330.569 645.734 330.639 634.801 330.708 623.867C331.958 427.067 333.208 230.267 334.458 33.4675C334.528 22.5342 334.597 11.6008 334.667 0.66748Z" fill="#FF6600" style="fill:#FF6600;fill:color(display-p3 1.0000 0.3999 0.0000);fill-opacity:1;"/>
<path d="M362 0.66748C357.556 0.66748 353.111 0.66748 348.667 0.66748C348.736 11.6008 348.806 22.5342 348.875 33.4675C350.125 230.267 351.375 427.067 352.625 623.867C352.695 634.801 352.764 645.734 352.833 656.667C354.5 656.667 356.167 656.667 357.833 656.667C357.903 645.734 357.972 634.801 358.042 623.867C359.292 427.067 360.542 230.267 361.792 33.4675C361.861 22.5342 361.931 11.6008 362 0.66748Z" fill="#FF6600" style="fill:#FF6600;fill:color(display-p3 1.0000 0.3999 0.0000);fill-opacity:1;"/>
<path d="M389.333 0.66748C384.889 0.66748 380.444 0.66748 376 0.66748C376.069 11.6008 376.139 22.5342 376.208 33.4675C377.458 230.267 378.708 427.067 379.958 623.867C380.028 634.801 380.097 645.734 380.167 656.667C381.833 656.667 383.5 656.667 385.167 656.667C385.236 645.734 385.305 634.801 385.375 623.867C386.625 427.067 387.875 230.267 389.125 33.4675C389.194 22.5342 389.264 11.6008 389.333 0.66748Z" fill="#FF6600" style="fill:#FF6600;fill:color(display-p3 1.0000 0.3999 0.0000);fill-opacity:1;"/>
<path d="M416.667 0.66748C412.222 0.66748 407.778 0.66748 403.333 0.66748C403.403 11.6008 403.472 22.5342 403.542 33.4675C404.792 230.267 406.042 427.067 407.292 623.867C407.361 634.801 407.431 645.734 407.5 656.667C409.167 656.667 410.833 656.667 412.5 656.667C412.569 645.734 412.639 634.801 412.708 623.867C413.958 427.067 415.208 230.267 416.458 33.4675C416.528 22.5342 416.597 11.6008 416.667 0.66748Z" fill="#FF6600" style="fill:#FF6600;fill:color(display-p3 1.0000 0.3999 0.0000);fill-opacity:1;"/>
<path d="M444 0.66748C439.556 0.66748 435.111 0.66748 430.667 0.66748C430.736 11.6008 430.806 22.5342 430.875 33.4675C432.125 230.267 433.375 427.067 434.625 623.867C434.695 634.801 434.764 645.734 434.833 656.667C436.5 656.667 438.167 656.667 439.833 656.667C439.903 645.734 439.972 634.801 440.042 623.867C441.292 427.067 442.542 230.267 443.792 33.4675C443.861 22.5342 443.931 11.6008 444 0.66748Z" fill="#FF6600" style="fill:#FF6600;fill:color(display-p3 1.0000 0.3999 0.0000);fill-opacity:1;"/>
<path d="M471.333 0.66748C466.889 0.66748 462.444 0.66748 458 0.66748C458.069 11.6008 458.139 22.5342 458.208 33.4675C459.458 230.267 460.708 427.067 461.958 623.867C462.028 634.801 462.097 645.734 462.167 656.667C463.833 656.667 465.5 656.667 467.167 656.667C467.236 645.734 467.305 634.801 467.375 623.867C468.625 427.067 469.875 230.267 471.125 33.4675C471.194 22.5342 471.264 11.6008 471.333 0.66748Z" fill="#FF6600" style="fill:#FF6600;fill:color(display-p3 1.0000 0.3999 0.0000);fill-opacity:1;"/>
<path d="M498.667 0.66748C494.222 0.66748 489.778 0.66748 485.333 0.66748C485.403 11.6008 485.472 22.5342 485.542 33.4675C486.792 230.267 488.042 427.067 489.292 623.867C489.361 634.801 489.431 645.734 489.5 656.667C491.167 656.667 492.833 656.667 494.5 656.667C494.569 645.734 494.639 634.801 494.708 623.867C495.958 427.067 497.208 230.267 498.458 33.4675C498.528 22.5342 498.597 11.6008 498.667 0.66748Z" fill="#FF6600" style="fill:#FF6600;fill:color(display-p3 1.0000 0.3999 0.0000);fill-opacity:1;"/>
<path d="M526 0.66748C521.556 0.66748 517.111 0.66748 512.667 0.66748C512.736 11.6008 512.806 22.5342 512.875 33.4675C514.125 230.267 515.375 427.067 516.625 623.867C516.695 634.801 516.764 645.734 516.833 656.667C518.5 656.667 520.167 656.667 521.833 656.667C521.903 645.734 521.972 634.801 522.042 623.867C523.292 427.067 524.542 230.267 525.792 33.4675C525.861 22.5342 525.931 11.6008 526 0.66748Z" fill="#FF6600" style="fill:#FF6600;fill:color(display-p3 1.0000 0.3999 0.0000);fill-opacity:1;"/>
<path d="M553.333 0.66748C548.889 0.66748 544.444 0.66748 540 0.66748C540.069 11.6008 540.139 22.5342 540.208 33.4675C541.458 230.267 542.708 427.067 543.958 623.867C544.028 634.801 544.097 645.734 544.167 656.667C545.833 656.667 547.5 656.667 549.167 656.667C549.236 645.734 549.305 634.801 549.375 623.867C550.625 427.067 551.875 230.267 553.125 33.4675C553.194 22.5342 553.264 11.6008 553.333 0.66748Z" fill="#FF6600" style="fill:#FF6600;fill:color(display-p3 1.0000 0.3999 0.0000);fill-opacity:1;"/>
<path d="M580.667 0.66748C576.222 0.66748 571.778 0.66748 567.333 0.66748C567.403 11.6008 567.472 22.5342 567.542 33.4675C568.792 230.267 570.042 427.067 571.292 623.867C571.361 634.801 571.431 645.734 571.5 656.667C573.167 656.667 574.833 656.667 576.5 656.667C576.569 645.734 576.639 634.801 576.708 623.867C577.958 427.067 579.208 230.267 580.458 33.4675C580.528 22.5342 580.597 11.6008 580.667 0.66748Z" fill="#FF6600" style="fill:#FF6600;fill:color(display-p3 1.0000 0.3999 0.0000);fill-opacity:1;"/>
<path d="M608 0.66748C603.556 0.66748 599.111 0.66748 594.667 0.66748C594.736 11.6008 594.806 22.5342 594.875 33.4675C596.125 230.267 597.375 427.067 598.625 623.867C598.695 634.801 598.764 645.734 598.833 656.667C600.5 656.667 602.167 656.667 603.833 656.667C603.903 645.734 603.972 634.801 604.042 623.867C605.292 427.067 606.542 230.267 607.792 33.4675C607.861 22.5342 607.931 11.6008 608 0.66748Z" fill="#FF6600" style="fill:#FF6600;fill:color(display-p3 1.0000 0.3999 0.0000);fill-opacity:1;"/>
<path d="M635.333 0.66748C630.889 0.66748 626.444 0.66748 622 0.66748C622.069 11.6008 622.139 22.5342 622.208 33.4675C623.458 230.267 624.708 427.067 625.958 623.867C626.028 634.801 626.097 645.734 626.167 656.667C627.833 656.667 629.5 656.667 631.167 656.667C631.236 645.734 631.305 634.801 631.375 623.867C632.625 427.067 633.875 230.267 635.125 33.4675C635.194 22.5342 635.264 11.6008 635.333 0.66748Z" fill="#FF6600" style="fill:#FF6600;fill:color(display-p3 1.0000 0.3999 0.0000);fill-opacity:1;"/>
<path d="M662.667 0.66748C658.222 0.66748 653.778 0.66748 649.333 0.66748C649.403 11.6008 649.472 22.5342 649.542 33.4675C650.792 230.267 652.042 427.067 653.292 623.867C653.361 634.801 653.431 645.734 653.5 656.667C655.167 656.667 656.833 656.667 658.5 656.667C658.569 645.734 658.639 634.801 658.708 623.867C659.958 427.067 661.208 230.267 662.458 33.4675C662.528 22.5342 662.597 11.6008 662.667 0.66748Z" fill="#FF6600" style="fill:#FF6600;fill:color(display-p3 1.0000 0.3999 0.0000);fill-opacity:1;"/>
<path d="M690 0.66748C685.556 0.66748 681.111 0.66748 676.667 0.66748C676.736 11.6008 676.806 22.5342 676.875 33.4675C678.125 230.267 679.375 427.067 680.625 623.867C680.695 634.801 680.764 645.734 680.833 656.667C682.5 656.667 684.167 656.667 685.833 656.667C685.903 645.734 685.972 634.801 686.042 623.867C687.292 427.067 688.542 230.267 689.792 33.4675C689.861 22.5342 689.931 11.6008 690 0.66748Z" fill="#FF6600" style="fill:#FF6600;fill:color(display-p3 1.0000 0.3999 0.0000);fill-opacity:1;"/>
<path d="M717.333 0.66748C712.889 0.66748 708.444 0.66748 704 0.66748C704.069 11.6008 704.139 22.5342 704.208 33.4675C705.458 230.267 706.708 427.067 707.958 623.867C708.028 634.801 708.097 645.734 708.167 656.667C709.833 656.667 711.5 656.667 713.167 656.667C713.236 645.734 713.305 634.801 713.375 623.867C714.625 427.067 715.875 230.267 717.125 33.4675C717.194 22.5342 717.264 11.6008 717.333 0.66748Z" fill="#FF6600" style="fill:#FF6600;fill:color(display-p3 1.0000 0.3999 0.0000);fill-opacity:1;"/>
<path d="M744.667 0.66748C740.222 0.66748 735.778 0.66748 731.333 0.66748C731.403 11.6008 731.472 22.5342 731.542 33.4675C732.792 230.267 734.042 427.067 735.292 623.867C735.361 634.801 735.431 645.734 735.5 656.667C737.167 656.667 738.833 656.667 740.5 656.667C740.569 645.734 740.639 634.801 740.708 623.867C741.958 427.067 743.208 230.267 744.458 33.4675C744.528 22.5342 744.597 11.6008 744.667 0.66748Z" fill="#FF6600" style="fill:#FF6600;fill:color(display-p3 1.0000 0.3999 0.0000);fill-opacity:1;"/>
<path d="M772 0.66748C767.556 0.66748 763.111 0.66748 758.667 0.66748C758.736 11.6008 758.806 22.5342 758.875 33.4675C760.125 230.267 761.375 427.067 762.625 623.867C762.695 634.801 762.764 645.734 762.833 656.667C764.5 656.667 766.167 656.667 767.833 656.667C767.903 645.734 767.972 634.801 768.042 623.867C769.292 427.067 770.542 230.267 771.792 33.4675C771.861 22.5342 771.931 11.6008 772 0.66748Z" fill="#FF6600" style="fill:#FF6600;fill:color(display-p3 1.0000 0.3999 0.0000);fill-opacity:1;"/>
<path d="M799.333 0.66748C794.889 0.66748 790.444 0.66748 786 0.66748C786.069 11.6008 786.139 22.5342 786.208 33.4675C787.458 230.267 788.708 427.067 789.958 623.867C790.028 634.801 790.097 645.734 790.167 656.667C791.833 656.667 793.5 656.667 795.167 656.667C795.236 645.734 795.305 634.801 795.375 623.867C796.625 427.067 797.875 230.267 799.125 33.4675C799.194 22.5342 799.264 11.6008 799.333 0.66748Z" fill="#FF6600" style="fill:#FF6600;fill:color(display-p3 1.0000 0.3999 0.0000);fill-opacity:1;"/>
<path d="M826.667 0.66748C822.222 0.66748 817.778 0.66748 813.333 0.66748C813.403 11.6008 813.472 22.5342 813.542 33.4675C814.792 230.267 816.042 427.067 817.292 623.867C817.361 634.801 817.431 645.734 817.5 656.667C819.167 656.667 820.833 656.667 822.5 656.667C822.569 645.734 822.639 634.801 822.708 623.867C823.958 427.067 825.208 230.267 826.458 33.4675C826.528 22.5342 826.597 11.6008 826.667 0.66748Z" fill="#FF6600" style="fill:#FF6600;fill:color(display-p3 1.0000 0.3999 0.0000);fill-opacity:1;"/>
<path d="M854 0.66748C849.555 0.66748 845.111 0.66748 840.666 0.66748C840.736 11.6008 840.805 22.5342 840.875 33.4675C842.125 230.267 843.375 427.067 844.625 623.867C844.694 634.801 844.764 645.734 844.833 656.667C846.5 656.667 848.166 656.667 849.833 656.667C849.902 645.734 849.972 634.801 850.041 623.867C851.291 427.067 852.541 230.267 853.791 33.4675C853.861 22.5342 853.93 11.6008 854 0.66748Z" fill="#FF6600" style="fill:#FF6600;fill:color(display-p3 1.0000 0.3999 0.0000);fill-opacity:1;"/>
<path d="M881.333 0.66748C876.889 0.66748 872.444 0.66748 868 0.66748C868.069 11.6008 868.139 22.5342 868.208 33.4675C869.458 230.267 870.708 427.067 871.958 623.867C872.028 634.801 872.097 645.734 872.167 656.667C873.833 656.667 875.5 656.667 877.167 656.667C877.236 645.734 877.305 634.801 877.375 623.867C878.625 427.067 879.875 230.267 881.125 33.4675C881.194 22.5342 881.264 11.6008 881.333 0.66748Z" fill="#FF6600" style="fill:#FF6600;fill:color(display-p3 1.0000 0.3999 0.0000);fill-opacity:1;"/>
<path d="M908.667 0.66748C904.222 0.66748 899.778 0.66748 895.333 0.66748C895.403 11.6008 895.472 22.5342 895.542 33.4675C896.792 230.267 898.042 427.067 899.292 623.867C899.361 634.801 899.431 645.734 899.5 656.667C901.167 656.667 902.833 656.667 904.5 656.667C904.569 645.734 904.639 634.801 904.708 623.867C905.958 427.067 907.208 230.267 908.458 33.4675C908.528 22.5342 908.597 11.6008 908.667 0.66748Z" fill="#FF6600" style="fill:#FF6600;fill:color(display-p3 1.0000 0.3999 0.0000);fill-opacity:1;"/>
<path d="M936 0.66748C931.555 0.66748 927.111 0.66748 922.666 0.66748C922.736 11.6008 922.805 22.5342 922.875 33.4675C924.125 230.267 925.375 427.067 926.625 623.867C926.694 634.801 926.764 645.734 926.833 656.667C928.5 656.667 930.166 656.667 931.833 656.667C931.902 645.734 931.972 634.801 932.041 623.867C933.291 427.067 934.541 230.267 935.791 33.4675C935.861 22.5342 935.93 11.6008 936 0.66748Z" fill="#FF6600" style="fill:#FF6600;fill:color(display-p3 1.0000 0.3999 0.0000);fill-opacity:1;"/>
<path d="M963.333 0.66748C958.889 0.66748 954.444 0.66748 950 0.66748C950.069 11.6008 950.139 22.5342 950.208 33.4675C951.458 230.267 952.708 427.067 953.958 623.867C954.028 634.801 954.097 645.734 954.167 656.667C955.833 656.667 957.5 656.667 959.167 656.667C959.236 645.734 959.305 634.801 959.375 623.867C960.625 427.067 961.875 230.267 963.125 33.4675C963.194 22.5342 963.264 11.6008 963.333 0.66748Z" fill="#FF6600" style="fill:#FF6600;fill:color(display-p3 1.0000 0.3999 0.0000);fill-opacity:1;"/>
<path d="M990.666 0.66748C986.222 0.66748 981.777 0.66748 977.333 0.66748C977.402 11.6008 977.472 22.5342 977.541 33.4675C978.791 230.267 980.041 427.067 981.291 623.867C981.361 634.801 981.43 645.734 981.5 656.667C983.166 656.667 984.833 656.667 986.5 656.667C986.569 645.734 986.638 634.801 986.708 623.867C987.958 427.067 989.208 230.267 990.458 33.4675C990.527 22.5342 990.597 11.6008 990.666 0.66748Z" fill="#FF6600" style="fill:#FF6600;fill:color(display-p3 1.0000 0.3999 0.0000);fill-opacity:1;"/>
<path d="M1018 0.66748C1013.56 0.66748 1009.11 0.66748 1004.67 0.66748C1004.74 11.6008 1004.81 22.5342 1004.87 33.4675C1006.12 230.267 1007.37 427.067 1008.62 623.867C1008.69 634.801 1008.76 645.734 1008.83 656.667C1010.5 656.667 1012.17 656.667 1013.83 656.667C1013.9 645.734 1013.97 634.801 1014.04 623.867C1015.29 427.067 1016.54 230.267 1017.79 33.4675C1017.86 22.5342 1017.93 11.6008 1018 0.66748Z" fill="#FF6600" style="fill:#FF6600;fill:color(display-p3 1.0000 0.3999 0.0000);fill-opacity:1;"/>
<path d="M1045.33 0.66748C1040.89 0.66748 1036.44 0.66748 1032 0.66748C1032.07 11.6008 1032.14 22.5342 1032.21 33.4675C1033.46 230.267 1034.71 427.067 1035.96 623.867C1036.03 634.801 1036.1 645.734 1036.17 656.667C1037.83 656.667 1039.5 656.667 1041.17 656.667C1041.24 645.734 1041.31 634.801 1041.38 623.867C1042.63 427.067 1043.88 230.267 1045.13 33.4675C1045.19 22.5342 1045.26 11.6008 1045.33 0.66748Z" fill="#FF6600" style="fill:#FF6600;fill:color(display-p3 1.0000 0.3999 0.0000);fill-opacity:1;"/>
<path d="M1072.67 0.66748C1068.22 0.66748 1063.78 0.66748 1059.33 0.66748C1059.4 11.6008 1059.47 22.5342 1059.54 33.4675C1060.79 230.267 1062.04 427.067 1063.29 623.867C1063.36 634.801 1063.43 645.734 1063.5 656.667C1065.17 656.667 1066.83 656.667 1068.5 656.667C1068.57 645.734 1068.64 634.801 1068.71 623.867C1069.96 427.067 1071.21 230.267 1072.46 33.4675C1072.53 22.5342 1072.6 11.6008 1072.67 0.66748Z" fill="#FF6600" style="fill:#FF6600;fill:color(display-p3 1.0000 0.3999 0.0000);fill-opacity:1;"/>
<path d="M1100 0.66748C1095.56 0.66748 1091.11 0.66748 1086.67 0.66748C1086.74 11.6008 1086.81 22.5342 1086.88 33.4675C1088.13 230.267 1089.38 427.067 1090.63 623.867C1090.69 634.801 1090.76 645.734 1090.83 656.667C1092.5 656.667 1094.17 656.667 1095.83 656.667C1095.9 645.734 1095.97 634.801 1096.04 623.867C1097.29 427.067 1098.54 230.267 1099.79 33.4675C1099.86 22.5342 1099.93 11.6008 1100 0.66748Z" fill="#FF6600" style="fill:#FF6600;fill:color(display-p3 1.0000 0.3999 0.0000);fill-opacity:1;"/>
<path d="M1127.33 0.66748C1122.89 0.66748 1118.44 0.66748 1114 0.66748C1114.07 11.6008 1114.14 22.5342 1114.21 33.4675C1115.46 230.267 1116.71 427.067 1117.96 623.867C1118.03 634.801 1118.1 645.734 1118.17 656.667C1119.83 656.667 1121.5 656.667 1123.17 656.667C1123.24 645.734 1123.31 634.801 1123.38 623.867C1124.63 427.067 1125.88 230.267 1127.13 33.4675C1127.19 22.5342 1127.26 11.6008 1127.33 0.66748Z" fill="#FF6600" style="fill:#FF6600;fill:color(display-p3 1.0000 0.3999 0.0000);fill-opacity:1;"/>
<path d="M1154.67 0.66748C1150.22 0.66748 1145.78 0.66748 1141.33 0.66748C1141.4 11.6008 1141.47 22.5342 1141.54 33.4675C1142.79 230.267 1144.04 427.067 1145.29 623.867C1145.36 634.801 1145.43 645.734 1145.5 656.667C1147.17 656.667 1148.83 656.667 1150.5 656.667C1150.57 645.734 1150.64 634.801 1150.71 623.867C1151.96 427.067 1153.21 230.267 1154.46 33.4675C1154.53 22.5342 1154.6 11.6008 1154.67 0.66748Z" fill="#FF6600" style="fill:#FF6600;fill:color(display-p3 1.0000 0.3999 0.0000);fill-opacity:1;"/>
<path d="M1182 0.66748C1177.56 0.66748 1173.11 0.66748 1168.67 0.66748C1168.74 11.6008 1168.81 22.5342 1168.88 33.4675C1170.13 230.267 1171.38 427.067 1172.63 623.867C1172.69 634.801 1172.76 645.734 1172.83 656.667C1174.5 656.667 1176.17 656.667 1177.83 656.667C1177.9 645.734 1177.97 634.801 1178.04 623.867C1179.29 427.067 1180.54 230.267 1181.79 33.4675C1181.86 22.5342 1181.93 11.6008 1182 0.66748Z" fill="#FF6600" style="fill:#FF6600;fill:color(display-p3 1.0000 0.3999 0.0000);fill-opacity:1;"/>
<path d="M1209.33 0.66748C1204.89 0.66748 1200.44 0.66748 1196 0.66748C1196.07 11.6008 1196.14 22.5342 1196.21 33.4675C1197.46 230.267 1198.71 427.067 1199.96 623.867C1200.03 634.801 1200.1 645.734 1200.17 656.667C1201.83 656.667 1203.5 656.667 1205.17 656.667C1205.24 645.734 1205.31 634.801 1205.38 623.867C1206.63 427.067 1207.88 230.267 1209.13 33.4675C1209.19 22.5342 1209.26 11.6008 1209.33 0.66748Z" fill="#FF6600" style="fill:#FF6600;fill:color(display-p3 1.0000 0.3999 0.0000);fill-opacity:1;"/>
<path d="M1236.67 0.66748C1232.22 0.66748 1227.78 0.66748 1223.33 0.66748C1223.4 11.6008 1223.47 22.5342 1223.54 33.4675C1224.79 230.267 1226.04 427.067 1227.29 623.867C1227.36 634.801 1227.43 645.734 1227.5 656.667C1229.17 656.667 1230.83 656.667 1232.5 656.667C1232.57 645.734 1232.64 634.801 1232.71 623.867C1233.96 427.067 1235.21 230.267 1236.46 33.4675C1236.53 22.5342 1236.6 11.6008 1236.67 0.66748Z" fill="#FF6600" style="fill:#FF6600;fill:color(display-p3 1.0000 0.3999 0.0000);fill-opacity:1;"/>
<path d="M1264 0.66748C1259.56 0.66748 1255.11 0.66748 1250.67 0.66748C1250.74 11.6008 1250.81 22.5342 1250.88 33.4675C1252.13 230.267 1253.38 427.067 1254.63 623.867C1254.69 634.801 1254.76 645.734 1254.83 656.667C1256.5 656.667 1258.17 656.667 1259.83 656.667C1259.9 645.734 1259.97 634.801 1260.04 623.867C1261.29 427.067 1262.54 230.267 1263.79 33.4675C1263.86 22.5342 1263.93 11.6008 1264 0.66748Z" fill="#FF6600" style="fill:#FF6600;fill:color(display-p3 1.0000 0.3999 0.0000);fill-opacity:1;"/>
<path d="M1291.33 0.66748C1286.89 0.66748 1282.44 0.66748 1278 0.66748C1278.07 11.6008 1278.14 22.5342 1278.21 33.4675C1279.46 230.267 1280.71 427.067 1281.96 623.867C1282.03 634.801 1282.1 645.734 1282.17 656.667C1283.83 656.667 1285.5 656.667 1287.17 656.667C1287.24 645.734 1287.31 634.801 1287.38 623.867C1288.63 427.067 1289.88 230.267 1291.13 33.4675C1291.19 22.5342 1291.26 11.6008 1291.33 0.66748Z" fill="#FF6600" style="fill:#FF6600;fill:color(display-p3 1.0000 0.3999 0.0000);fill-opacity:1;"/>
<path d="M1318.67 0.66748C1314.22 0.66748 1309.78 0.66748 1305.33 0.66748C1305.4 11.6008 1305.47 22.5342 1305.54 33.4675C1306.79 230.267 1308.04 427.067 1309.29 623.867C1309.36 634.801 1309.43 645.734 1309.5 656.667C1311.17 656.667 1312.83 656.667 1314.5 656.667C1314.57 645.734 1314.64 634.801 1314.71 623.867C1315.96 427.067 1317.21 230.267 1318.46 33.4675C1318.53 22.5342 1318.6 11.6008 1318.67 0.66748Z" fill="#FF6600" style="fill:#FF6600;fill:color(display-p3 1.0000 0.3999 0.0000);fill-opacity:1;"/>
</g>
</g>
<g filter="url(#filter0_f_8005_134)">
<ellipse cx="656.667" cy="274.001" rx="507.333" ry="273.333" fill="#FDFCF2" style="fill:#FDFCF2;fill:color(display-p3 0.9922 0.9882 0.9490);fill-opacity:1;"/>
</g>
<g style="mix-blend-mode:screen" filter="url(#filter1_f_8005_134)">
<ellipse cx="787.553" cy="-44.3704" rx="145.548" ry="11.5167" transform="rotate(120 787.553 -44.3704)" fill="url(#paint2_linear_8005_134)" fill-opacity="0.6" style=""/>
</g>
<g style="mix-blend-mode:screen" filter="url(#filter2_f_8005_134)">
<ellipse cx="511.114" cy="700.776" rx="145.548" ry="11.5167" transform="rotate(-60 511.114 700.776)" fill="url(#paint3_linear_8005_134)" fill-opacity="0.6" style=""/>
</g>
<g style="mix-blend-mode:screen" filter="url(#filter3_f_8005_134)">
<ellipse cx="758" cy="-29.9989" rx="13.3333" ry="38" transform="rotate(-90 758 -29.9989)" fill="white" fill-opacity="0.6" style="fill:white;fill-opacity:0.6;"/>
</g>
<g style="mix-blend-mode:screen" filter="url(#filter4_f_8005_134)">
<ellipse cx="540.667" cy="686.405" rx="13.3333" ry="38" transform="rotate(90 540.667 686.405)" fill="white" fill-opacity="0.6" style="fill:white;fill-opacity:0.6;"/>
</g>
<g style="mix-blend-mode:screen" filter="url(#filter5_f_8005_134)">
<ellipse cx="750.32" cy="24.9772" rx="177.584" ry="20.6028" transform="rotate(-60 750.32 24.9772)" fill="white" style="fill:white;fill-opacity:1;"/>
</g>
<g style="mix-blend-mode:color" filter="url(#filter6_f_8005_134)">
<ellipse cx="753.333" cy="-43.3324" rx="145.333" ry="250.667" transform="rotate(-90 753.333 -43.3324)" fill="#FF6600" style="fill:#FF6600;fill:color(display-p3 1.0000 0.3999 0.0000);fill-opacity:1;"/>
</g>
<g style="mix-blend-mode:screen" filter="url(#filter7_f_8005_134)">
<ellipse cx="705.468" cy="205.552" rx="477.748" ry="20.6028" transform="rotate(165 705.468 205.552)" fill="white" style="fill:white;fill-opacity:1;"/>
</g>
</g>
<rect x="0.666667" y="1.33415" width="1310.67" height="654.667" rx="84.6667" stroke="url(#paint4_linear_8005_134)" style="" stroke-width="1.33333"/>
<defs>
<filter id="filter0_f_8005_134" x="-50.6665" y="-199.333" width="1414.67" height="946.667" filterUnits="userSpaceOnUse" color-interpolation-filters="sRGB">
<feFlood flood-opacity="0" result="BackgroundImageFix"/>
<feBlend mode="normal" in="SourceGraphic" in2="BackgroundImageFix" result="shape"/>
<feGaussianBlur stdDeviation="100" result="effect1_foregroundBlur_8005_134"/>
</filter>
<filter id="filter1_f_8005_134" x="674.089" y="-210.553" width="226.927" height="332.365" filterUnits="userSpaceOnUse" color-interpolation-filters="sRGB">
<feFlood flood-opacity="0" result="BackgroundImageFix"/>
<feBlend mode="normal" in="SourceGraphic" in2="BackgroundImageFix" result="shape"/>
<feGaussianBlur stdDeviation="20" result="effect1_foregroundBlur_8005_134"/>
</filter>
<filter id="filter2_f_8005_134" x="397.65" y="534.593" width="226.927" height="332.365" filterUnits="userSpaceOnUse" color-interpolation-filters="sRGB">
<feFlood flood-opacity="0" result="BackgroundImageFix"/>
<feBlend mode="normal" in="SourceGraphic" in2="BackgroundImageFix" result="shape"/>
<feGaussianBlur stdDeviation="20" result="effect1_foregroundBlur_8005_134"/>
</filter>
<filter id="filter3_f_8005_134" x="680" y="-83.332" width="156" height="106.667" filterUnits="userSpaceOnUse" color-interpolation-filters="sRGB">
<feFlood flood-opacity="0" result="BackgroundImageFix"/>
<feBlend mode="normal" in="SourceGraphic" in2="BackgroundImageFix" result="shape"/>
<feGaussianBlur stdDeviation="20" result="effect1_foregroundBlur_8005_134"/>
</filter>
<filter id="filter4_f_8005_134" x="462.667" y="633.071" width="156" height="106.667" filterUnits="userSpaceOnUse" color-interpolation-filters="sRGB">
<feFlood flood-opacity="0" result="BackgroundImageFix"/>
<feBlend mode="normal" in="SourceGraphic" in2="BackgroundImageFix" result="shape"/>
<feGaussianBlur stdDeviation="20" result="effect1_foregroundBlur_8005_134"/>
</filter>
<filter id="filter5_f_8005_134" x="526.402" y="-262.499" width="447.836" height="574.953" filterUnits="userSpaceOnUse" color-interpolation-filters="sRGB">
<feFlood flood-opacity="0" result="BackgroundImageFix"/>
<feBlend mode="normal" in="SourceGraphic" in2="BackgroundImageFix" result="shape"/>
<feGaussianBlur stdDeviation="66.6667" result="effect1_foregroundBlur_8005_134"/>
</filter>
<filter id="filter6_f_8005_134" x="369.333" y="-321.999" width="768" height="557.333" filterUnits="userSpaceOnUse" color-interpolation-filters="sRGB">
<feFlood flood-opacity="0" result="BackgroundImageFix"/>
<feBlend mode="normal" in="SourceGraphic" in2="BackgroundImageFix" result="shape"/>
<feGaussianBlur stdDeviation="66.6667" result="effect1_foregroundBlur_8005_134"/>
</filter>
<filter id="filter7_f_8005_134" x="110.634" y="-53.0418" width="1189.67" height="517.187" filterUnits="userSpaceOnUse" color-interpolation-filters="sRGB">
<feFlood flood-opacity="0" result="BackgroundImageFix"/>
<feBlend mode="normal" in="SourceGraphic" in2="BackgroundImageFix" result="shape"/>
<feGaussianBlur stdDeviation="66.6667" result="effect1_foregroundBlur_8005_134"/>
</filter>
<linearGradient id="paint0_linear_8005_134" x1="656" y1="0.66748" x2="656" y2="656.667" gradientUnits="userSpaceOnUse">
<stop stop-color="#F5F0E3" style="stop-color:#F5F0E3;stop-color:color(display-p3 0.9608 0.9412 0.8902);stop-opacity:1;"/>
<stop offset="1" stop-color="#FDFCF2" stop-opacity="0" style="stop-color:none;stop-opacity:0;"/>
</linearGradient>
<linearGradient id="paint1_linear_8005_134" x1="656" y1="0.66748" x2="656" y2="656.667" gradientUnits="userSpaceOnUse">
<stop stop-color="#D9D9D9" style="stop-color:#D9D9D9;stop-color:color(display-p3 0.8510 0.8510 0.8510);stop-opacity:1;"/>
<stop offset="1" stop-color="#737373" stop-opacity="0" style="stop-color:none;stop-opacity:0;"/>
</linearGradient>
<linearGradient id="paint2_linear_8005_134" x1="787.553" y1="-55.887" x2="787.553" y2="-32.8537" gradientUnits="userSpaceOnUse">
<stop style="stop-color:black;stop-opacity:1;"/>
<stop offset="1" stop-color="white" stop-opacity="0" style="stop-color:none;stop-opacity:0;"/>
</linearGradient>
<linearGradient id="paint3_linear_8005_134" x1="511.114" y1="689.259" x2="511.114" y2="712.292" gradientUnits="userSpaceOnUse">
<stop style="stop-color:black;stop-opacity:1;"/>
<stop offset="1" stop-color="white" stop-opacity="0" style="stop-color:none;stop-opacity:0;"/>
</linearGradient>
<linearGradient id="paint4_linear_8005_134" x1="656" y1="0.66748" x2="656" y2="656.667" gradientUnits="userSpaceOnUse">
<stop stop-color="#FF6600" style="stop-color:#FF6600;stop-color:color(display-p3 1.0000 0.3999 0.0000);stop-opacity:1;"/>
<stop offset="1" stop-color="#FDFCF2" stop-opacity="0" style="stop-color:none;stop-opacity:0;"/>
</linearGradient>
<clipPath id="clip0_8005_134">
<rect y="0.66748" width="1312" height="656" rx="85.3333" fill="white" style="fill:white;fill-opacity:1;"/>
</clipPath>
</defs>
</svg>
