<svg width="984" height="492" viewBox="0 0 984 492" fill="none" xmlns="http://www.w3.org/2000/svg">
<path d="M492 -35C896.272 -35 1224 292.728 1224 697C1224 1101.27 896.272 1429 492 1429C87.7276 1429 -240 1101.27 -240 697C-240 292.728 87.7276 -35 492 -35ZM492 -34C88.2798 -34 -239 293.28 -239 697C-239 1100.72 88.2798 1428 492 1428C895.72 1428 1223 1100.72 1223 697C1223 293.28 895.72 -34 492 -34ZM492 44C852.642 44 1145 336.358 1145 697C1145 1057.64 852.642 1350 492 1350C131.358 1350 -161 1057.64 -161 697C-161 336.358 131.358 44 492 44ZM492 45C131.91 45 -160 336.91 -160 697C-160 1057.09 131.91 1349 492 1349C852.09 1349 1144 1057.09 1144 697C1144 336.91 852.09 45 492 45ZM492 124C808.459 124 1065 380.541 1065 697C1065 1013.46 808.459 1270 492 1270C175.541 1270 -81 1013.46 -81 697C-81 380.541 175.541 124 492 124ZM492 125C176.093 125 -80 381.093 -80 697C-80 1012.91 176.093 1269 492 1269C807.907 1269 1064 1012.91 1064 697C1064 381.093 807.907 125 492 125ZM492 204C764.276 204 985 424.724 985 697C985 969.276 764.276 1190 492 1190C219.724 1190 -1 969.276 -1 697C-1 424.724 219.724 204 492 204ZM492 205C220.276 205 0 425.276 0 697C0 968.724 220.276 1189 492 1189C763.724 1189 984 968.724 984 697C984 425.276 763.724 205 492 205ZM492 284C720.094 284 905 468.906 905 697C905 925.094 720.094 1110 492 1110C263.906 1110 79 925.094 79 697C79 468.906 263.906 284 492 284ZM492 285C264.459 285 80 469.459 80 697C80 924.541 264.459 1109 492 1109C719.541 1109 904 924.541 904 697C904 469.459 719.541 285 492 285ZM492 369C673.149 369 820 515.851 820 697C820 878.149 673.149 1025 492 1025C310.851 1025 164 878.149 164 697C164 515.851 310.851 369 492 369ZM492 370C311.403 370 165 516.403 165 697C165 877.597 311.403 1024 492 1024C672.597 1024 819 877.597 819 697C819 516.403 672.597 370 492 370Z" fill="url(#paint0_radial_6394_13106)" style=""/>
<path d="M492 -35C896.272 -35 1224 292.728 1224 697C1224 1101.27 896.272 1429 492 1429C87.7276 1429 -240 1101.27 -240 697C-240 292.728 87.7276 -35 492 -35ZM492 -34C88.2798 -34 -239 293.28 -239 697C-239 1100.72 88.2798 1428 492 1428C895.72 1428 1223 1100.72 1223 697C1223 293.28 895.72 -34 492 -34ZM492 44C852.642 44 1145 336.358 1145 697C1145 1057.64 852.642 1350 492 1350C131.358 1350 -161 1057.64 -161 697C-161 336.358 131.358 44 492 44ZM492 45C131.91 45 -160 336.91 -160 697C-160 1057.09 131.91 1349 492 1349C852.09 1349 1144 1057.09 1144 697C1144 336.91 852.09 45 492 45ZM492 124C808.459 124 1065 380.541 1065 697C1065 1013.46 808.459 1270 492 1270C175.541 1270 -81 1013.46 -81 697C-81 380.541 175.541 124 492 124ZM492 125C176.093 125 -80 381.093 -80 697C-80 1012.91 176.093 1269 492 1269C807.907 1269 1064 1012.91 1064 697C1064 381.093 807.907 125 492 125ZM492 204C764.276 204 985 424.724 985 697C985 969.276 764.276 1190 492 1190C219.724 1190 -1 969.276 -1 697C-1 424.724 219.724 204 492 204ZM492 205C220.276 205 0 425.276 0 697C0 968.724 220.276 1189 492 1189C763.724 1189 984 968.724 984 697C984 425.276 763.724 205 492 205ZM492 284C720.094 284 905 468.906 905 697C905 925.094 720.094 1110 492 1110C263.906 1110 79 925.094 79 697C79 468.906 263.906 284 492 284ZM492 285C264.459 285 80 469.459 80 697C80 924.541 264.459 1109 492 1109C719.541 1109 904 924.541 904 697C904 469.459 719.541 285 492 285ZM492 369C673.149 369 820 515.851 820 697C820 878.149 673.149 1025 492 1025C310.851 1025 164 878.149 164 697C164 515.851 310.851 369 492 369ZM492 370C311.403 370 165 516.403 165 697C165 877.597 311.403 1024 492 1024C672.597 1024 819 877.597 819 697C819 516.403 672.597 370 492 370Z" fill="url(#paint1_linear_6394_13106)" style=""/>
<defs>
<radialGradient id="paint0_radial_6394_13106" cx="0" cy="0" r="1" gradientUnits="userSpaceOnUse" gradientTransform="translate(492 697) rotate(90) scale(720)">
<stop stop-color="#111111" style="stop-color:#111111;stop-color:color(display-p3 0.0667 0.0667 0.0667);stop-opacity:1;"/>
<stop offset="1" stop-color="#111111" stop-opacity="0.04" style="stop-color:#111111;stop-color:color(display-p3 0.0667 0.0667 0.0667);stop-opacity:0.04;"/>
</radialGradient>
<linearGradient id="paint1_linear_6394_13106" x1="492" y1="1417" x2="492" y2="-23" gradientUnits="userSpaceOnUse">
<stop stop-color="#111111" stop-opacity="0" style="stop-color:none;stop-opacity:0;"/>
<stop offset="0.504808" stop-color="#FFFCFA" stop-opacity="0" style="stop-color:none;stop-opacity:0;"/>
<stop offset="1" stop-color="#FFFCFA" style="stop-color:#FFFCFA;stop-color:color(display-p3 1.0000 0.9882 0.9804);stop-opacity:1;"/>
</linearGradient>
</defs>
</svg>
